<svg width="16" height="16" xmlns="http://www.w3.org/2000/svg"><g fill="currentColor" fill-rule="evenodd"><path d="M13.333 0A2.667 2.667 0 0116 2.667v10.666A2.667 2.667 0 0113.333 16H2.667A2.667 2.667 0 010 13.333V2.667A2.667 2.667 0 012.667 0h10.666zm0 .889H2.667c-.938 0-1.705.725-1.773 1.645l-.005.133v10.666c0 .938.725 1.705 1.645 1.773l.133.005h10.666c.938 0 1.705-.725 1.773-1.645l.005-.133V2.667c0-.938-.725-1.705-1.645-1.773l-.133-.005z" fill-rule="nonzero"/><path d="M7.5 3h1v10h-1z"/><path d="M13 7.5v1H3v-1z"/></g></svg>
