<svg height="19" viewBox="0 0 19 19" width="19" xmlns="http://www.w3.org/2000/svg"><path d="m17 0c1.1045695 0 2 .8954305 2 2s-.8954305 2-2 2c-.3709561 0-.718324-.10099289-1.0161084-.27698325l-4.2608749 4.26087485c.1759904.29778436.2769833.6451523.2769833 1.0161084 0 1.1045695-.8954305 2-2 2-.3709561 0-.71832404-.1009929-1.0161084-.2769833l-5.26087485 5.2608749c.17599036.2977844.27698325.6451523.27698325 1.0161084 0 1.1045695-.8954305 2-2 2s-2-.8954305-2-2 .8954305-2 2-2c.3709561 0 .71832404.1009929 1.0161084.2769833l5.26087485-5.2608749c-.17599036-.29778436-.27698325-.6451523-.27698325-1.0161084 0-1.1045695.8954305-2 2-2 .3709561 0 .718324.10099289 1.0161084.27698325l4.2608749-4.26087485c-.1759904-.29778436-.2769833-.6451523-.2769833-1.0161084 0-1.1045695.8954305-2 2-2z" fill="currentColor" fill-rule="evenodd"/></svg>