<svg height="20" viewBox="0 0 20 20" width="20" xmlns="http://www.w3.org/2000/svg"><g fill="currentColor" fill-rule="evenodd"><path d="m4 18c0 1.1045695-.8954305 2-2 2s-2-.8954305-2-2 .8954305-2 2-2v-12c-1.1045695 0-2-.8954305-2-2s.8954305-2 2-2 2 .8954305 2 2h12c0-1.1045695.8954305-2 2-2s2 .8954305 2 2-.8954305 2-2 2v12c1.1045695 0 2 .8954305 2 2s-.8954305 2-2 2-2-.8954305-2-2zm12.2681881-14.9989225h-12.53637624c-.17540668.30279037-.42794399.55532768-.73073436.73073436v12.53637624c.30312532.1756008.55588632.4285028.73131618.7317394h12.53521262c.1756237-.3035716.4287496-.5566975.7323212-.7323212v-12.53521262c-.3032366-.17542986-.5561386-.42819086-.7317394-.73131618z"/><path d="m2.313709 2.313709h15v15h-15z" fill-opacity=".1" transform="matrix(0 1 -1 0 19.627416 0)"/></g></svg>