 <svg width="28" height="28" viewBox="0 0 28 28" xmlns="http://www.w3.org/2000/svg"><path d="M13.12 24.51v1.5H8.298v-1.5h4.824zm-9.78-3.35v3.349h3.35v1.34H2v-4.69h1.34zm16.078 0v4.69h-4.69v-1.34l3.35-.001v-3.35h1.34zM3.5 14.729v4.823H2v-4.823h1.5zM19.418 8.43v10.987H8.431V8.431h10.987zm6.431 6.298v4.689h-4.69v-1.34h3.35v-3.35h1.34zM6.69 8.43v1.34H3.34v3.35H2V8.43h4.69zm19.32-.134v4.824h-1.5V8.297h1.5zM13.121 2v1.34H9.77v3.35h-1.34V2h4.69zm12.728 0v4.69h-1.34V3.34h-3.35V2h4.69zm-6.297 0v1.5h-4.823V2h4.823z" fill="#0C0524" fill-rule="evenodd"/></svg>
