<?xml version="1.0" encoding="UTF-8" standalone="no"?>
<!-- Created with Inkscape (http://www.inkscape.org/) -->
<svg xmlns:dc="http://purl.org/dc/elements/1.1/" xmlns:cc="http://web.resource.org/cc/" xmlns:rdf="http://www.w3.org/1999/02/22-rdf-syntax-ns#" xmlns:svg="http://www.w3.org/2000/svg" xmlns="http://www.w3.org/2000/svg" xmlns:sodipodi="http://sodipodi.sourceforge.net/DTD/sodipodi-0.dtd" xmlns:inkscape="http://www.inkscape.org/namespaces/inkscape" version="1.0" x="0.00000000" y="0.00000000" width="600.00000" height="600.00000" id="svg2" sodipodi:version="0.32" inkscape:version="0.45.1" sodipodi:docname="Brosen_windrose_nl.svg" sodipodi:docbase="C:\DOCUME~1\GEERTW~1\BUREAU~1" inkscape:label="napisy" inkscape:output_extension="org.inkscape.output.svg.inkscape">
  <metadata id="metadata36">
    <rdf:RDF>
      <cc:Work rdf:about="">
        <dc:format>image/svg+xml</dc:format>
        <dc:type rdf:resource="http://purl.org/dc/dcmitype/StillImage"/>
      </cc:Work>
    </rdf:RDF>
  </metadata>
  <sodipodi:namedview inkscape:window-height="977" inkscape:window-width="1280" inkscape:pageshadow="2" inkscape:pageopacity="0.0" borderopacity="1.0" bordercolor="#666666" pagecolor="#ffffff" id="base" inkscape:zoom="1.1775672" inkscape:cx="300.97638" inkscape:cy="299.30626" inkscape:window-x="0" inkscape:window-y="20" inkscape:current-layer="g1561" showgrid="true"/>
  <defs id="defs4"/>
  <g inkscape:groupmode="layer" id="layer7" inkscape:label="p4" style="display:inline">
    <path sodipodi:type="arc" style="opacity:1;fill:none;fill-opacity:1;fill-rule:nonzero;stroke:#000000;stroke-width:0.88720989;stroke-linecap:square;stroke-linejoin:miter;stroke-miterlimit:4;stroke-dasharray:none;stroke-dashoffset:0;stroke-opacity:1" id="path2408" sodipodi:cx="187.67506" sodipodi:cy="113.40358" sodipodi:rx="119.73839" sodipodi:ry="119.73839" d="M 307.41345 113.40358 A 119.73839 119.73839 0 1 1  67.936676,113.40358 A 119.73839 119.73839 0 1 1  307.41345 113.40358 z" transform="matrix(1.127129,0,0,1.127129,95.65651,171.7962)"/>
  </g>
  <g style="display:inline" id="layer3"/>
  <g style="display:inline" id="layer4"/>
  <g inkscape:groupmode="layer" id="layer1" inkscape:label="p3" style="display:inline">
    <g id="g2362" transform="matrix(0.695009,0,0,0.683713,94.00027,94.69452)">
      <path d="M 264.65488,281.35479 L 307.55343,299.12392 L 307.53867,299.13003 L 83.172594,392.06566 L 264.65488,281.35479" style="fill:#c2c2c2;fill-opacity:1;fill-rule:evenodd;stroke:#c2c2c2;stroke-width:1.0000006;stroke-linecap:square;stroke-linejoin:miter;stroke-miterlimit:4;stroke-dasharray:none;stroke-opacity:1;display:inline" id="path8773"/>
      <path d="M 290.16697,342.94635 L 307.9361,300.0478 L 307.92135,300.05391 L 83.555271,392.98954 L 290.16697,342.94635" style="fill:#999999;fill-opacity:1;fill-rule:evenodd;stroke:#999999;stroke-width:1.0000006;stroke-linecap:square;stroke-linejoin:miter;stroke-miterlimit:4;stroke-dasharray:none;stroke-opacity:1;display:inline" id="path8775"/>
      <path d="M 351.75849,317.43427 L 308.85994,299.66514 L 308.8747,299.65903 L 533.24078,206.7234 L 351.75849,317.43427" style="fill:#e1e1e1;fill-opacity:1;fill-rule:evenodd;stroke:#c2c2c2;stroke-width:1.0000006;stroke-linecap:square;stroke-linejoin:miter;stroke-miterlimit:4;stroke-dasharray:none;stroke-opacity:1;display:inline" id="path8779"/>
      <path d="M 290.16693,342.94611 L 307.93606,300.04756 L 307.94217,300.06232 L 400.8778,524.4284 L 290.16693,342.94611" style="fill:#c2c2c2;fill-opacity:1;fill-rule:evenodd;stroke:#c2c2c2;stroke-width:1.0000006;stroke-linecap:square;stroke-linejoin:miter;stroke-miterlimit:4;stroke-dasharray:none;stroke-opacity:1;display:inline" id="path8787"/>
      <path d="M 351.75849,317.43402 L 308.85994,299.66489 L 308.86605,299.67964 L 401.80168,524.04572 L 351.75849,317.43402" style="fill:#999999;fill-opacity:1;fill-rule:evenodd;stroke:#999999;stroke-width:1.0000006;stroke-linecap:square;stroke-linejoin:miter;stroke-miterlimit:4;stroke-dasharray:none;stroke-opacity:1;display:inline" id="path8789"/>
      <path d="M 326.24641,255.8425 L 308.47728,298.74105 L 308.47117,298.72629 L 215.53554,74.360214 L 326.24641,255.8425" style="fill:#e1e1e1;fill-opacity:1;fill-rule:evenodd;stroke:#c2c2c2;stroke-width:1.0000006;stroke-linecap:square;stroke-linejoin:miter;stroke-miterlimit:4;stroke-dasharray:none;stroke-opacity:1;display:inline" id="path8793"/>
      <path d="M 264.65485,281.3546 L 307.5534,299.12373 L 307.53864,299.12984 L 83.172563,392.06547 L 264.65485,281.3546" style="fill:#e1e1e1;fill-opacity:1;fill-rule:evenodd;stroke:#c2c2c2;stroke-width:1.0000006;stroke-linecap:square;stroke-linejoin:miter;stroke-miterlimit:4;stroke-dasharray:none;stroke-opacity:1;display:inline" id="path1397"/>
      <path d="M 290.16693,342.94637 L 307.93606,300.04782 L 307.94217,300.06258 L 400.8778,524.42866 L 290.16693,342.94637" style="fill:#e1e1e1;fill-opacity:1;fill-rule:evenodd;stroke:#c2c2c2;stroke-width:1.0000006;stroke-linecap:square;stroke-linejoin:miter;stroke-miterlimit:4;stroke-dasharray:none;stroke-opacity:1;display:inline" id="path1405"/>
      <g id="g2356">
        <path id="path8781" style="fill:#b4b4b4;fill-opacity:1;fill-rule:evenodd;stroke:#b4b4b4;stroke-width:1;stroke-linecap:square;stroke-linejoin:miter;stroke-miterlimit:4;stroke-dasharray:none;stroke-opacity:1;display:inline" d="M 326.2464,255.84271 L 308.47727,298.74126 L 308.49202,298.73515 L 532.8581,205.79952 L 326.2464,255.84271"/>
        <path id="path8795" style="fill:#b4b4b4;fill-opacity:1;fill-rule:evenodd;stroke:#b4b4b4;stroke-width:1;stroke-linecap:square;stroke-linejoin:miter;stroke-miterlimit:4;stroke-dasharray:none;stroke-opacity:1;display:inline" d="M 264.65485,281.35459 L 307.5534,299.12372 L 307.54729,299.10897 L 214.61166,74.742891 L 264.65485,281.35459"/>
        <path id="path1399" style="fill:#b4b4b4;fill-opacity:1;fill-rule:evenodd;stroke:#b4b4b4;stroke-width:1;stroke-linecap:square;stroke-linejoin:miter;stroke-miterlimit:4;stroke-dasharray:none;stroke-opacity:1;display:inline" d="M 290.16694,342.94616 L 307.93607,300.04761 L 307.92132,300.05372 L 83.55524,392.98935 L 290.16694,342.94616"/>
        <path id="path1407" style="fill:#b4b4b4;fill-opacity:1;fill-rule:evenodd;stroke:#b4b4b4;stroke-width:1;stroke-linecap:square;stroke-linejoin:miter;stroke-miterlimit:4;stroke-dasharray:none;stroke-opacity:1;display:inline" d="M 351.75849,317.43428 L 308.85994,299.66515 L 308.86605,299.6799 L 401.80168,524.04598 L 351.75849,317.43428"/>
      </g>
    </g>
    <g style="display:inline" id="g2377" transform="matrix(0.491446,-0.491446,0.483458,0.483458,11.99521,306.1165)">
      <path d="M 264.65488,281.35479 L 307.55343,299.12392 L 307.53867,299.13003 L 83.172594,392.06566 L 264.65488,281.35479" style="fill:#c2c2c2;fill-opacity:1;fill-rule:evenodd;stroke:#c2c2c2;stroke-width:1.0000006;stroke-linecap:square;stroke-linejoin:miter;stroke-miterlimit:4;stroke-dasharray:none;stroke-opacity:1;display:inline" id="path2379"/>
      <path d="M 290.16697,342.94635 L 307.9361,300.0478 L 307.92135,300.05391 L 83.555271,392.98954 L 290.16697,342.94635" style="fill:#999999;fill-opacity:1;fill-rule:evenodd;stroke:#999999;stroke-width:1.0000006;stroke-linecap:square;stroke-linejoin:miter;stroke-miterlimit:4;stroke-dasharray:none;stroke-opacity:1;display:inline" id="path2381"/>
      <path d="M 351.75849,317.43427 L 308.85994,299.66514 L 308.8747,299.65903 L 533.24078,206.7234 L 351.75849,317.43427" style="fill:#e1e1e1;fill-opacity:1;fill-rule:evenodd;stroke:#c2c2c2;stroke-width:1.0000006;stroke-linecap:square;stroke-linejoin:miter;stroke-miterlimit:4;stroke-dasharray:none;stroke-opacity:1;display:inline" id="path2383"/>
      <path d="M 290.16693,342.94611 L 307.93606,300.04756 L 307.94217,300.06232 L 400.8778,524.4284 L 290.16693,342.94611" style="fill:#c2c2c2;fill-opacity:1;fill-rule:evenodd;stroke:#c2c2c2;stroke-width:1.0000006;stroke-linecap:square;stroke-linejoin:miter;stroke-miterlimit:4;stroke-dasharray:none;stroke-opacity:1;display:inline" id="path2385"/>
      <path d="M 351.75849,317.43402 L 308.85994,299.66489 L 308.86605,299.67964 L 401.80168,524.04572 L 351.75849,317.43402" style="fill:#999999;fill-opacity:1;fill-rule:evenodd;stroke:#999999;stroke-width:1.0000006;stroke-linecap:square;stroke-linejoin:miter;stroke-miterlimit:4;stroke-dasharray:none;stroke-opacity:1;display:inline" id="path2387"/>
      <path d="M 326.24641,255.8425 L 308.47728,298.74105 L 308.47117,298.72629 L 215.53554,74.360214 L 326.24641,255.8425" style="fill:#e1e1e1;fill-opacity:1;fill-rule:evenodd;stroke:#c2c2c2;stroke-width:1.0000006;stroke-linecap:square;stroke-linejoin:miter;stroke-miterlimit:4;stroke-dasharray:none;stroke-opacity:1;display:inline" id="path2389"/>
      <path d="M 264.65485,281.3546 L 307.5534,299.12373 L 307.53864,299.12984 L 83.172563,392.06547 L 264.65485,281.3546" style="fill:#e1e1e1;fill-opacity:1;fill-rule:evenodd;stroke:#c2c2c2;stroke-width:1.0000006;stroke-linecap:square;stroke-linejoin:miter;stroke-miterlimit:4;stroke-dasharray:none;stroke-opacity:1;display:inline" id="path2391"/>
      <path d="M 290.16693,342.94637 L 307.93606,300.04782 L 307.94217,300.06258 L 400.8778,524.42866 L 290.16693,342.94637" style="fill:#e1e1e1;fill-opacity:1;fill-rule:evenodd;stroke:#c2c2c2;stroke-width:1.0000006;stroke-linecap:square;stroke-linejoin:miter;stroke-miterlimit:4;stroke-dasharray:none;stroke-opacity:1;display:inline" id="path2393"/>
      <g id="g2395">
        <path id="path2397" style="fill:#b4b4b4;fill-opacity:1;fill-rule:evenodd;stroke:#b4b4b4;stroke-width:1;stroke-linecap:square;stroke-linejoin:miter;stroke-miterlimit:4;stroke-dasharray:none;stroke-opacity:1;display:inline" d="M 326.2464,255.84271 L 308.47727,298.74126 L 308.49202,298.73515 L 532.8581,205.79952 L 326.2464,255.84271"/>
        <path id="path2399" style="fill:#b4b4b4;fill-opacity:1;fill-rule:evenodd;stroke:#b4b4b4;stroke-width:1;stroke-linecap:square;stroke-linejoin:miter;stroke-miterlimit:4;stroke-dasharray:none;stroke-opacity:1;display:inline" d="M 264.65485,281.35459 L 307.5534,299.12372 L 307.54729,299.10897 L 214.61166,74.742891 L 264.65485,281.35459"/>
        <path id="path2401" style="fill:#b4b4b4;fill-opacity:1;fill-rule:evenodd;stroke:#b4b4b4;stroke-width:1;stroke-linecap:square;stroke-linejoin:miter;stroke-miterlimit:4;stroke-dasharray:none;stroke-opacity:1;display:inline" d="M 290.16694,342.94616 L 307.93607,300.04761 L 307.92132,300.05372 L 83.55524,392.98935 L 290.16694,342.94616"/>
        <path id="path2403" style="fill:#b4b4b4;fill-opacity:1;fill-rule:evenodd;stroke:#b4b4b4;stroke-width:1;stroke-linecap:square;stroke-linejoin:miter;stroke-miterlimit:4;stroke-dasharray:none;stroke-opacity:1;display:inline" d="M 351.75849,317.43428 L 308.85994,299.66515 L 308.86605,299.6799 L 401.80168,524.04598 L 351.75849,317.43428"/>
      </g>
    </g>
  </g>
  <g inkscape:groupmode="layer" id="layer6" inkscape:label="p2" style="display:inline">
    <g style="display:inline" id="g1536" transform="translate(-55.8718,-38.60234)">
      <path d="M 316.93813,337.99683 L 363.37116,337.99683 L 363.35986,338.00812 L 191.63751,509.73048 L 316.93813,337.99683" style="fill:#c2c2c2;fill-opacity:1;fill-rule:evenodd;stroke:#c2c2c2;stroke-width:1.00000036;stroke-linecap:square;stroke-linejoin:miter;stroke-miterlimit:4;stroke-dasharray:none;stroke-opacity:1;display:inline" id="path1538"/>
      <path d="M 364.07826,385.13697 L 364.07826,338.70394 L 364.06697,338.71523 L 192.34461,510.43759 L 364.07826,385.13697" style="fill:#999999;fill-opacity:1;fill-rule:evenodd;stroke:#999999;stroke-width:1.00000036;stroke-linecap:square;stroke-linejoin:miter;stroke-miterlimit:4;stroke-dasharray:none;stroke-opacity:1;display:inline" id="path1540"/>
      <path d="M 411.21837,337.99687 L 364.78534,337.99687 L 364.79664,337.98558 L 536.51899,166.26322 L 411.21837,337.99687" style="fill:#c2c2c2;fill-opacity:1;fill-rule:evenodd;stroke:#c2c2c2;stroke-width:1.00000036;stroke-linecap:square;stroke-linejoin:miter;stroke-miterlimit:4;stroke-dasharray:none;stroke-opacity:1;display:inline" id="path1542"/>
      <path d="M 364.07824,290.85673 L 364.07824,337.28976 L 364.08953,337.27847 L 535.81189,165.55611 L 364.07824,290.85673" style="fill:#999999;fill-opacity:1;fill-rule:evenodd;stroke:#999999;stroke-width:1.00000036;stroke-linecap:square;stroke-linejoin:miter;stroke-miterlimit:4;stroke-dasharray:none;stroke-opacity:1;display:inline" id="path1544"/>
      <path d="M 364.07813,385.13677 L 364.07813,338.70374 L 364.08942,338.71504 L 535.81178,510.43739 L 364.07813,385.13677" style="fill:#c2c2c2;fill-opacity:1;fill-rule:evenodd;stroke:#c2c2c2;stroke-width:1.00000036;stroke-linecap:square;stroke-linejoin:miter;stroke-miterlimit:4;stroke-dasharray:none;stroke-opacity:1;display:inline" id="path1546"/>
      <path d="M 411.21827,337.99664 L 364.78524,337.99664 L 364.79653,338.00793 L 536.51889,509.73029 L 411.21827,337.99664" style="fill:#999999;fill-opacity:1;fill-rule:evenodd;stroke:#999999;stroke-width:1.00000036;stroke-linecap:square;stroke-linejoin:miter;stroke-miterlimit:4;stroke-dasharray:none;stroke-opacity:1;display:inline" id="path1548"/>
      <path d="M 364.07817,290.85653 L 364.07817,337.28956 L 364.06688,337.27826 L 192.34452,165.55591 L 364.07817,290.85653" style="fill:#c2c2c2;fill-opacity:1;fill-rule:evenodd;stroke:#c2c2c2;stroke-width:1.00000036;stroke-linecap:square;stroke-linejoin:miter;stroke-miterlimit:4;stroke-dasharray:none;stroke-opacity:1;display:inline" id="path1550"/>
      <path d="M 316.93803,337.99666 L 363.37106,337.99666 L 363.35977,337.98537 L 191.63741,166.26301 L 316.93803,337.99666" style="fill:#999999;fill-opacity:1;fill-rule:evenodd;stroke:#999999;stroke-width:1.00000036;stroke-linecap:square;stroke-linejoin:miter;stroke-miterlimit:4;stroke-dasharray:none;stroke-opacity:1;display:inline" id="path1552"/>
    </g>
  </g>
  <g inkscape:groupmode="layer" id="layer2" inkscape:label="podstawowa" style="display:inline">
    <g transform="translate(-56.88765,-38.38015)" id="g11797">
      <path d="M 330.74501,304.6637 L 363.57811,337.4968 L 363.56214,337.4968 L 120.71013,337.4968 L 330.74501,304.6637" style="fill:#ffffff;fill-opacity:1;fill-rule:evenodd;stroke:#000000;stroke-width:1;stroke-linecap:square;stroke-linejoin:miter;stroke-miterlimit:4;stroke-dasharray:none;stroke-opacity:1;display:inline" id="path2122"/>
      <path d="M 330.74501,371.3299 L 363.57811,338.4968 L 363.56214,338.4968 L 120.71013,338.4968 L 330.74501,371.3299" style="fill:#000000;fill-opacity:1;fill-rule:evenodd;stroke:#000000;stroke-width:1;stroke-linecap:square;stroke-linejoin:miter;stroke-miterlimit:4;stroke-dasharray:none;stroke-opacity:1;display:inline" id="path5805"/>
      <path d="M 397.41118,371.32995 L 364.57808,338.49685 L 364.59405,338.49685 L 607.44606,338.49685 L 397.41118,371.32995" style="fill:#ffffff;fill-opacity:1;fill-rule:evenodd;stroke:#000000;stroke-width:1;stroke-linecap:square;stroke-linejoin:miter;stroke-miterlimit:4;stroke-dasharray:none;stroke-opacity:1;display:inline" id="path8724"/>
      <path d="M 397.41118,304.66375 L 364.57808,337.49685 L 364.59405,337.49685 L 607.44606,337.49685 L 397.41118,304.66375" style="fill:#000000;fill-opacity:1;fill-rule:evenodd;stroke:#000000;stroke-width:1;stroke-linecap:square;stroke-linejoin:miter;stroke-miterlimit:4;stroke-dasharray:none;stroke-opacity:1;display:inline" id="path8726"/>
      <path d="M 330.74499,371.32988 L 363.57809,338.49678 L 363.57809,338.51275 L 363.57809,581.36476 L 330.74499,371.32988" style="fill:#ffffff;fill-opacity:1;fill-rule:evenodd;stroke:#000000;stroke-width:1;stroke-linecap:square;stroke-linejoin:miter;stroke-miterlimit:4;stroke-dasharray:none;stroke-opacity:1;display:inline" id="path8740"/>
      <path d="M 397.41119,371.32988 L 364.57809,338.49678 L 364.57809,338.51275 L 364.57809,581.36476 L 397.41119,371.32988" style="fill:#000000;fill-opacity:1;fill-rule:evenodd;stroke:#000000;stroke-width:1;stroke-linecap:square;stroke-linejoin:miter;stroke-miterlimit:4;stroke-dasharray:none;stroke-opacity:1;display:inline" id="path8742"/>
      <path d="M 397.41115,304.66372 L 364.57805,337.49682 L 364.57805,337.48085 L 364.57805,94.62884 L 397.41115,304.66372" style="fill:#ffffff;fill-opacity:1;fill-rule:evenodd;stroke:#000000;stroke-width:1;stroke-linecap:square;stroke-linejoin:miter;stroke-miterlimit:4;stroke-dasharray:none;stroke-opacity:1;display:inline" id="path8746"/>
      <path d="M 330.74495,304.66372 L 363.57805,337.49682 L 363.57805,337.48085 L 363.57805,94.62884 L 330.74495,304.66372" style="fill:#000000;fill-opacity:1;fill-rule:evenodd;stroke:#000000;stroke-width:1;stroke-linecap:square;stroke-linejoin:miter;stroke-miterlimit:4;stroke-dasharray:none;stroke-opacity:1;display:inline" id="path8748"/>
    </g>
  </g>
  <g inkscape:groupmode="layer" id="layer5" inkscape:label="napisy" style="display:inline">
    <g id="g1461" inkscape:label="p4" style="display:inline" transform="translate(1.182297,-1.05875)"/>
    <g style="display:inline" id="g1463" transform="translate(1.182297,-1.05875)"/>
    <g style="display:inline" id="g1465" transform="translate(1.182297,-1.05875)"/>
    <g id="g1467" inkscape:label="p3" style="display:inline" transform="translate(1.182297,-1.05875)"/>
    <g id="g1469" inkscape:label="p2" style="display:inline" transform="translate(1.182297,-1.05875)"/>
    <g id="g1471" inkscape:label="podstawowa" style="display:inline" transform="translate(1.182297,-1.05875)"/>
    <g id="g1561">
      <g id="g2287">
        <path id="path1476" d="M 294.12404,12.387486 L 302.52247,12.387486 L 313.12794,32.387486 L 313.12794,12.387486 L 320.25685,12.387486 L 320.25685,41.547642 L 311.85841,41.547642 L 301.25294,21.547642 L 301.25294,41.547642 L 294.12404,41.547642 L 294.12404,12.387486" style="font-size:40px;font-style:normal;font-variant:normal;font-weight:bold;font-stretch:normal;text-align:start;line-height:125%;writing-mode:lr-tb;text-anchor:start;fill:#000000;fill-opacity:1;stroke:none;stroke-width:1px;stroke-linecap:butt;stroke-linejoin:miter;stroke-opacity:1;font-family:Bitstream Vera Sans"/>
        <path id="path1480" d="M 9,285.03658 L 16.207031,285.03658 L 21.246094,306.22798 L 26.246094,285.03658 L 33.492187,285.03658 L 38.492187,306.22798 L 43.531253,285.03658 L 50.679687,285.03658 L 43.804683,314.19673 L 35.132812,314.19673 L 29.839844,292.02875 L 24.605469,314.19673 L 15.933594,314.19673 L 9,285.03658" style="font-size:40px;font-style:normal;font-variant:normal;font-weight:bold;font-stretch:normal;text-align:start;line-height:125%;writing-mode:lr-tb;text-anchor:start;fill:#000000;fill-opacity:1;stroke:none;stroke-width:1px;stroke-linecap:butt;stroke-linejoin:miter;stroke-opacity:1;display:inline;font-family:Bitstream Vera Sans"/>
        <path id="path1484" d="M 193.55762,123.87793 L 197.33691,123.87793 L 200.34277,132.96582 L 202.10938,123.87793 L 205.30859,123.87793 L 202.75098,137 L 198.97168,137 L 195.96582,127.91211 L 194.20801,137 L 191,137 L 193.55762,123.87793 M 208.63965,123.87793 L 212.41895,123.87793 L 215.4248,132.96582 L 217.19141,123.87793 L 220.39063,123.87793 L 217.83301,137 L 214.05371,137 L 211.04785,127.91211 L 209.29004,137 L 206.08203,137 L 208.63965,123.87793 M 222.71094,123.87793 L 225.83984,123.87793 L 226.24414,133.41406 L 230.36621,123.87793 L 233.58301,123.87793 L 234.01367,133.41406 L 237.99512,123.87793 L 241.36133,123.87793 L 235.70996,137 L 231.87793,137 L 231.43848,127.02441 L 227.19336,137 L 223.27344,137 L 222.71094,123.87793" style="font-size:18px;font-style:oblique;font-variant:normal;font-weight:bold;font-stretch:normal;text-align:start;line-height:100%;writing-mode:lr-tb;text-anchor:start;fill:#000000;fill-opacity:1;stroke:none;stroke-width:1px;stroke-linecap:butt;stroke-linejoin:miter;stroke-opacity:1;display:inline;font-family:Bitstream Vera Sans"/>
        <path id="path1498" d="M 91.458981,215 L 94.587887,215 L 94.992184,224.53613 L 99.114254,215 L 102.33105,215 L 102.76171,224.53613 L 106.74316,215 L 110.10937,215 L 104.458,228.12207 L 100.62597,228.12207 L 100.18652,218.14648 L 95.941403,228.12207 L 92.021481,228.12207 L 91.458981,215 M 112.333,215 L 116.1123,215 L 119.11816,224.08789 L 120.88476,215 L 124.08398,215 L 121.52636,228.12207 L 117.74707,228.12207 L 114.74121,219.03418 L 112.98339,228.12207 L 109.77539,228.12207 L 112.333,215 M 126.40429,215 L 129.5332,215 L 129.9375,224.53613 L 134.05957,215 L 137.27636,215 L 137.70703,224.53613 L 141.68847,215 L 145.05468,215 L 139.40332,228.12207 L 135.57128,228.12207 L 135.13183,218.14648 L 130.88671,228.12207 L 126.96679,228.12207 L 126.40429,215" style="font-size:18px;font-style:oblique;font-variant:normal;font-weight:bold;font-stretch:normal;text-align:start;line-height:100%;writing-mode:lr-tb;text-anchor:start;fill:#000000;fill-opacity:1;stroke:none;stroke-width:1px;stroke-linecap:butt;stroke-linejoin:miter;stroke-opacity:1;display:inline;font-family:Bitstream Vera Sans"/>
        <path id="text1447" d="M 90.016281,100.44516 L 95.055344,100.44516 L 101.41863,112.44516 L 101.41863,100.44516 L 105.69597,100.44516 L 105.69597,117.94125 L 100.65691,117.94125 L 94.293625,105.94125 L 94.293625,117.94125 L 90.016281,117.94125 L 90.016281,100.44516 M 108.63738,100.44516 L 112.9616,100.44516 L 115.98503,113.16 L 118.98503,100.44516 L 123.33269,100.44516 L 126.33269,113.16 L 129.35613,100.44516 L 133.64519,100.44516 L 129.52019,117.94125 L 124.31707,117.94125 L 121.14128,104.64047 L 118.00066,117.94125 L 112.79753,117.94125 L 108.63738,100.44516" style="font-size:12px;font-style:normal;font-weight:normal;line-height:125%;fill:#000000;fill-opacity:1;stroke:none;stroke-width:1px;stroke-linecap:butt;stroke-linejoin:miter;stroke-opacity:1;display:inline;font-family:Bitstream Vera Sans"/>
        <path id="flowRoot2233" d="M 619.08594,292.32524 C 616.79426,292.32526 615.01691,293.17161 613.75391,294.8643 C 612.49088,296.55703 611.85937,298.93984 611.85938,302.01274 C 611.85937,305.07264 612.49088,307.44894 613.75391,309.14164 C 615.01691,310.83436 616.79426,311.68071 619.08594,311.6807 C 621.39061,311.68071 623.17446,310.83436 624.4375,309.14164 C 625.7005,307.44894 626.33201,305.07264 626.33203,302.01274 C 626.33201,298.93984 625.7005,296.55703 624.4375,294.8643 C 623.17446,293.17161 621.39061,292.32526 619.08594,292.32524 L 619.08594,292.32524 z M 619.08594,286.87602 C 623.77342,286.87605 627.44529,288.21719 630.10156,290.89945 C 632.75778,293.58177 634.08591,297.28619 634.08594,302.01274 C 634.08591,306.72629 632.75778,310.4242 630.10156,313.10649 C 627.44529,315.78878 623.77342,317.12992 619.08594,317.12992 C 614.41145,317.12992 610.74283,315.78878 608.08008,313.10649 C 605.41731,310.4242 604.08594,306.72629 604.08594,302.01274 C 604.08594,297.28619 605.41731,293.58177 608.08008,290.89945 C 610.74283,288.21719 614.41145,286.87605 619.08594,286.87602 L 619.08594,286.87602 z " style="" transform="translate(-34.966809,-3.6428759)"/>
        <path id="flowRoot2245" d="M 328.33984,559.15336 L 352.85156,559.15336 L 352.85156,563.70414 L 337.20703,582.62992 L 353.30078,582.62992 L 353.30078,588.31352 L 327.89063,588.31352 L 327.89063,583.76274 L 343.53516,564.83695 L 328.33984,564.83695 L 328.33984,559.15336 z " style="" transform="translate(-32.285156,-4.2460422)"/>
        <path id="flowRoot2253" d="" style="font-style:italic;font-weight:bold;font-family:Verdana"/>
        <path id="flowRoot2261" d="M 20.612305,404.07839 L 23.741211,404.07839 L 24.145508,413.61452 L 28.267578,404.07839 L 31.484375,404.07839 L 31.915039,413.61452 L 35.896484,404.07839 L 39.262695,404.07839 L 33.611328,417.20046 L 29.779297,417.20046 L 29.339844,407.22487 L 25.094727,417.20046 L 21.174805,417.20046 L 20.612305,404.07839 z M 40.835938,404.07839 L 51.875,404.07839 L 51.453125,406.17018 L 42.945313,414.64284 L 50.020508,414.64284 L 49.510742,417.20046 L 38.084961,417.20046 L 38.480469,415.10866 L 47.014648,406.636 L 40.334961,406.636 L 40.835938,404.07839 z M 53.518555,404.07839 L 56.647461,404.07839 L 57.051758,413.61452 L 61.173828,404.07839 L 64.390625,404.07839 L 64.821289,413.61452 L 68.802734,404.07839 L 72.168945,404.07839 L 66.517578,417.20046 L 62.685547,417.20046 L 62.246094,407.22487 L 58.000977,417.20046 L 54.081055,417.20046 L 53.518555,404.07839 z " style="" transform="translate(71.333509,-34.817546)"/>
        <path id="flowRoot2269" d="M 20.972656,404.07839 L 32.011719,404.07839 L 31.589844,406.17018 L 23.082031,414.64284 L 30.157227,414.64284 L 29.647461,417.20046 L 18.22168,417.20046 L 18.617188,415.10866 L 27.151367,406.636 L 20.47168,406.636 L 20.972656,404.07839 z M 34.015625,404.07839 L 45.054688,404.07839 L 44.632813,406.17018 L 36.125,414.64284 L 43.200195,414.64284 L 42.69043,417.20046 L 31.264648,417.20046 L 31.660156,415.10866 L 40.194336,406.636 L 33.514648,406.636 L 34.015625,404.07839 z M 46.698242,404.07839 L 49.827148,404.07839 L 50.231445,413.61452 L 54.353516,404.07839 L 57.570313,404.07839 L 58.000977,413.61452 L 61.982422,404.07839 L 65.348633,404.07839 L 59.697266,417.20046 L 55.865234,417.20046 L 55.425781,407.22487 L 51.180664,417.20046 L 47.260742,417.20046 L 46.698242,404.07839 z " style="display:inline" transform="translate(173.58951,59.422903)"/>
        <path id="flowRoot2277" d="M 20.972656,404.07839 L 32.011719,404.07839 L 31.589844,406.17018 L 23.082031,414.64284 L 30.157227,414.64284 L 29.647461,417.20046 L 18.22168,417.20046 L 18.617188,415.10866 L 27.151367,406.636 L 20.47168,406.636 L 20.972656,404.07839 z M 34.015625,404.07839 L 45.054688,404.07839 L 44.632813,406.17018 L 36.125,414.64284 L 43.200195,414.64284 L 42.69043,417.20046 L 31.264648,417.20046 L 31.660156,415.10866 L 40.194336,406.636 L 33.514648,406.636 L 34.015625,404.07839 z M 55.847656,409.45729 C 55.847645,408.42605 55.614735,407.6409 55.148926,407.10182 C 54.683096,406.56277 54.007803,406.29324 53.123047,406.29323 C 51.951165,406.29324 50.968256,406.81912 50.174316,407.87087 C 49.380366,408.92263 48.983394,410.23953 48.983398,411.82155 C 48.983394,412.82937 49.214839,413.61159 49.677734,414.16823 C 50.14062,414.72487 50.78515,415.00319 51.611328,415.00319 C 52.285149,415.00319 52.884269,414.8611 53.408691,414.57692 C 53.933096,414.29275 54.379873,413.87234 54.749023,413.31569 C 55.100576,412.78249 55.371571,412.18191 55.562012,411.51393 C 55.75243,410.84597 55.847645,410.16043 55.847656,409.45729 L 55.847656,409.45729 z M 53.615234,403.84108 C 55.361318,403.8411 56.766101,404.32596 57.82959,405.29567 C 58.893052,406.26541 59.42479,407.5325 59.424805,409.09694 C 59.42479,410.16335 59.262193,411.17117 58.937012,412.12038 C 58.611803,413.0696 58.138659,413.92214 57.517578,414.678 C 56.755847,415.60964 55.854969,416.30544 54.814941,416.7654 C 53.774893,417.22536 52.575188,417.45534 51.21582,417.45534 C 49.475581,417.45534 48.075192,416.97194 47.014648,416.00514 C 45.9541,415.03835 45.423827,413.7698 45.423828,412.19948 C 45.423827,411.12722 45.58496,410.11648 45.907227,409.16725 C 46.229491,408.21804 46.7041,407.36258 47.331055,406.60085 C 48.081051,405.67508 48.97607,404.98367 50.016113,404.52663 C 51.056146,404.06961 52.255852,403.8411 53.615234,403.84108 L 53.615234,403.84108 z " style="display:inline" transform="translate(357.86775,59.422897)"/>
        <path id="flowRoot2285" d="M 29.761719,409.45729 C 29.761708,408.42605 29.528798,407.6409 29.062988,407.10182 C 28.597158,406.56277 27.921866,406.29324 27.037109,406.29323 C 25.865227,406.29324 24.882318,406.81912 24.088379,407.87087 C 23.294429,408.92263 22.897457,410.23953 22.897461,411.82155 C 22.897457,412.82937 23.128902,413.61159 23.591797,414.16823 C 24.054682,414.72487 24.699213,415.00319 25.525391,415.00319 C 26.199211,415.00319 26.798332,414.8611 27.322754,414.57692 C 27.847159,414.29275 28.293936,413.87234 28.663086,413.31569 C 29.014638,412.78249 29.285634,412.18191 29.476074,411.51393 C 29.666493,410.84597 29.761708,410.16043 29.761719,409.45729 L 29.761719,409.45729 z M 27.529297,403.84108 C 29.27538,403.8411 30.680164,404.32596 31.743652,405.29567 C 32.807115,406.26541 33.338853,407.5325 33.338867,409.09694 C 33.338853,410.16335 33.176255,411.17117 32.851074,412.12038 C 32.525865,413.0696 32.052721,413.92214 31.431641,414.678 C 30.66991,415.60964 29.769032,416.30544 28.729004,416.7654 C 27.688956,417.22536 26.48925,417.45534 25.129883,417.45534 C 23.389644,417.45534 21.989255,416.97194 20.928711,416.00514 C 19.868163,415.03835 19.33789,413.7698 19.337891,412.19948 C 19.33789,411.12722 19.499023,410.11648 19.821289,409.16725 C 20.143553,408.21804 20.618162,407.36258 21.245117,406.60085 C 21.995114,405.67508 22.890133,404.98367 23.930176,404.52663 C 24.970209,404.06961 26.169914,403.8411 27.529297,403.84108 L 27.529297,403.84108 z M 36.265625,404.07839 L 47.304688,404.07839 L 46.882813,406.17018 L 38.375,414.64284 L 45.450195,414.64284 L 44.94043,417.20046 L 33.514648,417.20046 L 33.910156,415.10866 L 42.444336,406.636 L 35.764648,406.636 L 36.265625,404.07839 z M 58.097656,409.45729 C 58.097645,408.42605 57.864735,407.6409 57.398926,407.10182 C 56.933096,406.56277 56.257803,406.29324 55.373047,406.29323 C 54.201165,406.29324 53.218256,406.81912 52.424316,407.87087 C 51.630366,408.92263 51.233394,410.23953 51.233398,411.82155 C 51.233394,412.82937 51.464839,413.61159 51.927734,414.16823 C 52.39062,414.72487 53.03515,415.00319 53.861328,415.00319 C 54.535149,415.00319 55.134269,414.8611 55.658691,414.57692 C 56.183096,414.29275 56.629873,413.87234 56.999023,413.31569 C 57.350576,412.78249 57.621571,412.18191 57.812012,411.51393 C 58.00243,410.84597 58.097645,410.16043 58.097656,409.45729 L 58.097656,409.45729 z M 55.865234,403.84108 C 57.611318,403.8411 59.016101,404.32596 60.07959,405.29567 C 61.143052,406.26541 61.67479,407.5325 61.674805,409.09694 C 61.67479,410.16335 61.512193,411.17117 61.187012,412.12038 C 60.861803,413.0696 60.388659,413.92214 59.767578,414.678 C 59.005847,415.60964 58.104969,416.30544 57.064941,416.7654 C 56.024893,417.22536 54.825188,417.45534 53.46582,417.45534 C 51.725581,417.45534 50.325192,416.97194 49.264648,416.00514 C 48.2041,415.03835 47.673827,413.7698 47.673828,412.19948 C 47.673827,411.12722 47.83496,410.11648 48.157227,409.16725 C 48.479491,408.21804 48.9541,407.36258 49.581055,406.60085 C 50.331051,405.67508 51.22607,404.98367 52.266113,404.52663 C 53.306146,404.06961 54.505852,403.8411 55.865234,403.84108 L 55.865234,403.84108 z " style="display:inline" transform="translate(454.69504,-34.839238)"/>
        <path id="flowRoot2293" d="M 29.761719,409.45729 C 29.761708,408.42605 29.528798,407.6409 29.062988,407.10182 C 28.597158,406.56277 27.921866,406.29324 27.037109,406.29323 C 25.865227,406.29324 24.882318,406.81912 24.088379,407.87087 C 23.294429,408.92263 22.897457,410.23953 22.897461,411.82155 C 22.897457,412.82937 23.128902,413.61159 23.591797,414.16823 C 24.054682,414.72487 24.699213,415.00319 25.525391,415.00319 C 26.199211,415.00319 26.798332,414.8611 27.322754,414.57692 C 27.847159,414.29275 28.293936,413.87234 28.663086,413.31569 C 29.014638,412.78249 29.285634,412.18191 29.476074,411.51393 C 29.666493,410.84597 29.761708,410.16043 29.761719,409.45729 L 29.761719,409.45729 z M 27.529297,403.84108 C 29.27538,403.8411 30.680164,404.32596 31.743652,405.29567 C 32.807115,406.26541 33.338853,407.5325 33.338867,409.09694 C 33.338853,410.16335 33.176255,411.17117 32.851074,412.12038 C 32.525865,413.0696 32.052721,413.92214 31.431641,414.678 C 30.66991,415.60964 29.769032,416.30544 28.729004,416.7654 C 27.688956,417.22536 26.48925,417.45534 25.129883,417.45534 C 23.389644,417.45534 21.989255,416.97194 20.928711,416.00514 C 19.868163,415.03835 19.33789,413.7698 19.337891,412.19948 C 19.33789,411.12722 19.499023,410.11648 19.821289,409.16725 C 20.143553,408.21804 20.618162,407.36258 21.245117,406.60085 C 21.995114,405.67508 22.890133,404.98367 23.930176,404.52663 C 24.970209,404.06961 26.169914,403.8411 27.529297,403.84108 L 27.529297,403.84108 z M 36.916016,404.07839 L 40.695313,404.07839 L 43.701172,413.16628 L 45.467773,404.07839 L 48.666992,404.07839 L 46.109375,417.20046 L 42.330078,417.20046 L 39.324219,408.11257 L 37.566406,417.20046 L 34.358398,417.20046 L 36.916016,404.07839 z M 60.136719,409.45729 C 60.136708,408.42605 59.903798,407.6409 59.437988,407.10182 C 58.972158,406.56277 58.296866,406.29324 57.412109,406.29323 C 56.240227,406.29324 55.257318,406.81912 54.463379,407.87087 C 53.669429,408.92263 53.272457,410.23953 53.272461,411.82155 C 53.272457,412.82937 53.503902,413.61159 53.966797,414.16823 C 54.429682,414.72487 55.074213,415.00319 55.900391,415.00319 C 56.574211,415.00319 57.173332,414.8611 57.697754,414.57692 C 58.222159,414.29275 58.668936,413.87234 59.038086,413.31569 C 59.389638,412.78249 59.660634,412.18191 59.851074,411.51393 C 60.041493,410.84597 60.136708,410.16043 60.136719,409.45729 L 60.136719,409.45729 z M 57.904297,403.84108 C 59.65038,403.8411 61.055164,404.32596 62.118652,405.29567 C 63.182115,406.26541 63.713853,407.5325 63.713867,409.09694 C 63.713853,410.16335 63.551255,411.17117 63.226074,412.12038 C 62.900865,413.0696 62.427721,413.92214 61.806641,414.678 C 61.04491,415.60964 60.144032,416.30544 59.104004,416.7654 C 58.063956,417.22536 56.86425,417.45534 55.504883,417.45534 C 53.764644,417.45534 52.364255,416.97194 51.303711,416.00514 C 50.243163,415.03835 49.71289,413.7698 49.712891,412.19948 C 49.71289,411.12722 49.874023,410.11648 50.196289,409.16725 C 50.518553,408.21804 50.993162,407.36258 51.620117,406.60085 C 52.370114,405.67508 53.265133,404.98367 54.305176,404.52663 C 55.345209,404.06961 56.544914,403.8411 57.904297,403.84108 L 57.904297,403.84108 z " style="display:inline" transform="translate(452.14741,-189.39517)"/>
        <path id="flowRoot2301" d="M 21.623047,404.07839 L 25.402344,404.07839 L 28.408203,413.16628 L 30.174805,404.07839 L 33.374023,404.07839 L 30.816406,417.20046 L 27.037109,417.20046 L 24.03125,408.11257 L 22.273438,417.20046 L 19.06543,417.20046 L 21.623047,404.07839 z M 36.705078,404.07839 L 40.484375,404.07839 L 43.490234,413.16628 L 45.256836,404.07839 L 48.456055,404.07839 L 45.898438,417.20046 L 42.119141,417.20046 L 39.113281,408.11257 L 37.355469,417.20046 L 34.147461,417.20046 L 36.705078,404.07839 z M 59.925781,409.45729 C 59.92577,408.42605 59.69286,407.6409 59.227051,407.10182 C 58.761221,406.56277 58.085928,406.29324 57.201172,406.29323 C 56.02929,406.29324 55.046381,406.81912 54.252441,407.87087 C 53.458491,408.92263 53.061519,410.23953 53.061523,411.82155 C 53.061519,412.82937 53.292964,413.61159 53.755859,414.16823 C 54.218745,414.72487 54.863275,415.00319 55.689453,415.00319 C 56.363274,415.00319 56.962394,414.8611 57.486816,414.57692 C 58.011221,414.29275 58.457998,413.87234 58.827148,413.31569 C 59.178701,412.78249 59.449696,412.18191 59.640137,411.51393 C 59.830555,410.84597 59.92577,410.16043 59.925781,409.45729 L 59.925781,409.45729 z M 57.693359,403.84108 C 59.439443,403.8411 60.844226,404.32596 61.907715,405.29567 C 62.971177,406.26541 63.502915,407.5325 63.50293,409.09694 C 63.502915,410.16335 63.340318,411.17117 63.015137,412.12038 C 62.689928,413.0696 62.216784,413.92214 61.595703,414.678 C 60.833972,415.60964 59.933094,416.30544 58.893066,416.7654 C 57.853018,417.22536 56.653313,417.45534 55.293945,417.45534 C 53.553706,417.45534 52.153317,416.97194 51.092773,416.00514 C 50.032225,415.03835 49.501952,413.7698 49.501953,412.19948 C 49.501952,411.12722 49.663085,410.11648 49.985352,409.16725 C 50.307616,408.21804 50.782225,407.36258 51.40918,406.60085 C 52.159176,405.67508 53.054195,404.98367 54.094238,404.52663 C 55.134271,404.06961 56.333977,403.8411 57.693359,403.84108 L 57.693359,403.84108 z " style="display:inline" transform="translate(357.53774,-280.61087)"/>
        <path id="flowRoot2309" d="M 63.347656,504.66702 L 78.054688,504.66702 L 78.054688,507.39748 L 68.667969,518.75295 L 78.324219,518.75295 L 78.324219,522.16311 L 63.078125,522.16311 L 63.078125,519.43264 L 72.464844,508.07717 L 63.347656,508.07717 L 63.347656,504.66702 z M 80.105469,504.66702 L 84.429688,504.66702 L 87.453125,517.38186 L 90.453125,504.66702 L 94.800781,504.66702 L 97.800781,517.38186 L 100.82422,504.66702 L 105.11328,504.66702 L 100.98828,522.16311 L 95.785156,522.16311 L 92.609375,508.86233 L 89.46875,522.16311 L 84.265625,522.16311 L 80.105469,504.66702 z " style="" transform="translate(26.277344,-26.325461)"/>
        <path id="flowRoot2317" d="M 63.347656,504.66702 L 78.054688,504.66702 L 78.054688,507.39748 L 68.667969,518.75295 L 78.324219,518.75295 L 78.324219,522.16311 L 63.078125,522.16311 L 63.078125,519.43264 L 72.464844,508.07717 L 63.347656,508.07717 L 63.347656,504.66702 z M 89.585938,507.62014 C 88.210929,507.62016 87.144523,508.12797 86.386719,509.14358 C 85.6289,510.15922 85.249994,511.5889 85.25,513.43264 C 85.249994,515.26859 85.6289,516.69437 86.386719,517.70998 C 87.144523,518.72561 88.210929,519.23343 89.585938,519.23342 C 90.968738,519.23343 92.03905,518.72561 92.796875,517.70998 C 93.554673,516.69437 93.933579,515.26859 93.933594,513.43264 C 93.933579,511.5889 93.554673,510.15922 92.796875,509.14358 C 92.03905,508.12797 90.968738,507.62016 89.585938,507.62014 L 89.585938,507.62014 z M 89.585938,504.35061 C 92.398424,504.35063 94.601547,505.15531 96.195313,506.76467 C 97.789044,508.37406 98.585918,510.59672 98.585938,513.43264 C 98.585918,516.26077 97.789044,518.47952 96.195313,520.08889 C 94.601547,521.69827 92.398424,522.50295 89.585938,522.50295 C 86.781243,522.50295 84.580073,521.69827 82.982422,520.08889 C 81.384764,518.47952 80.585936,516.26077 80.585938,513.43264 C 80.585936,510.59672 81.384764,508.37406 82.982422,506.76467 C 84.580073,505.15531 86.781243,504.35063 89.585938,504.35061 L 89.585938,504.35061 z " style="display:inline" transform="translate(420.33411,-26.359785)"/>
        <path id="flowRoot2325" d="M 64.203125,504.66702 L 69.242188,504.66702 L 75.605469,516.66702 L 75.605469,504.66702 L 79.882813,504.66702 L 79.882813,522.16311 L 74.84375,522.16311 L 68.480469,510.16311 L 68.480469,522.16311 L 64.203125,522.16311 L 64.203125,504.66702 z M 92.304688,507.62014 C 90.929679,507.62016 89.863273,508.12797 89.105469,509.14358 C 88.34765,510.15922 87.968744,511.5889 87.96875,513.43264 C 87.968744,515.26859 88.34765,516.69437 89.105469,517.70998 C 89.863273,518.72561 90.929679,519.23343 92.304688,519.23342 C 93.687488,519.23343 94.7578,518.72561 95.515625,517.70998 C 96.273423,516.69437 96.652329,515.26859 96.652344,513.43264 C 96.652329,511.5889 96.273423,510.15922 95.515625,509.14358 C 94.7578,508.12797 93.687488,507.62016 92.304688,507.62014 L 92.304688,507.62014 z M 92.304688,504.35061 C 95.117174,504.35063 97.320297,505.15531 98.914063,506.76467 C 100.50779,508.37406 101.30467,510.59672 101.30469,513.43264 C 101.30467,516.26077 100.50779,518.47952 98.914063,520.08889 C 97.320297,521.69827 95.117174,522.50295 92.304688,522.50295 C 89.499993,522.50295 87.298823,521.69827 85.701172,520.08889 C 84.103514,518.47952 83.304686,516.26077 83.304688,513.43264 C 83.304686,510.59672 84.103514,508.37406 85.701172,506.76467 C 87.298823,505.15531 89.499993,504.35063 92.304688,504.35061 L 92.304688,504.35061 z " style="display:inline" transform="translate(419.4849,-403.84487)"/>
      </g>
    </g>
  </g>
</svg>