<?xml version="1.0" encoding="UTF-8" standalone="no"?>
<!DOCTYPE svg PUBLIC "-//W3C//DTD SVG 1.1//EN" "http://www.w3.org/Graphics/SVG/1.1/DTD/svg11.dtd">
<svg width="100%" height="100%" viewBox="0 0 17 17" version="1.1" xmlns="http://www.w3.org/2000/svg" xmlns:xlink="http://www.w3.org/1999/xlink" xml:space="preserve" xmlns:serif="http://www.serif.com/" style="fill-rule:evenodd;clip-rule:evenodd;stroke-linejoin:round;stroke-miterlimit:1.41421;">
    <g transform="matrix(1.21429,0,0,1.30769,-2.42857,-3.92308)">
        <path d="M9.09,3.001L9.181,3.002L9.27,3.005L9.36,3.008L9.449,3.013L9.538,3.019L9.627,3.026L9.715,3.034L9.803,3.042L9.891,3.052L9.978,3.063L10.065,3.075L10.152,3.088L10.238,3.102L10.324,3.116L10.41,3.132L10.495,3.149L10.58,3.167L10.664,3.185L10.749,3.205L10.832,3.225L10.915,3.247L10.998,3.269L11.081,3.292L11.163,3.317L11.244,3.342L11.325,3.368L11.406,3.395L11.486,3.422L11.566,3.451L11.645,3.481L11.724,3.511L11.802,3.542L11.88,3.575L11.957,3.608L12.034,3.641L12.11,3.676L12.186,3.712L12.261,3.748L12.335,3.785L12.41,3.823L12.483,3.862L12.556,3.901L12.629,3.942L12.7,3.983L12.772,4.025L12.843,4.067L12.913,4.111L12.982,4.155L13.051,4.2L13.119,4.246L13.187,4.292L13.254,4.339L13.321,4.387L13.386,4.436L13.452,4.485L13.516,4.535L13.58,4.586L13.643,4.637L13.706,4.689L13.767,4.742L13.829,4.796L13.889,4.85L13.949,4.905L14.008,4.96L14.066,5.016L14.124,5.073L14.181,5.131L14.237,5.189L14.292,5.247L14.347,5.306L14.401,5.366L14.454,5.427L14.506,5.488L14.558,5.55L14.609,5.612L14.659,5.675L14.708,5.738L14.756,5.802L14.804,5.867L14.851,5.932L14.897,5.998L14.942,6.064L14.986,6.131L15.029,6.198L15.072,6.266L15.114,6.334L15.155,6.403L15.195,6.472L15.234,6.542L15.272,6.612L15.309,6.683L15.346,6.754L15.381,6.826L15.416,6.898L15.45,6.971L15.482,7.044L15.514,7.118L15.545,7.192L15.575,7.266L15.604,7.341L15.632,7.416L15.659,7.492L15.685,7.568L15.71,7.644L15.734,7.721L15.757,7.799L15.779,7.876L15.801,7.954L15.821,8.033L15.84,8.112L15.858,8.191L15.875,8.27L15.891,8.35L15.905,8.43L15.919,8.511L15.932,8.591L15.944,8.673L15.954,8.754L15.964,8.836L15.972,8.918L15.98,9L15.986,9.083L15.991,9.166L15.995,9.249L15.998,9.332L15.999,9.416L16,9.5L15.999,9.584L15.998,9.668L15.995,9.751L15.991,9.834L15.986,9.917L15.98,10L15.972,10.082L15.964,10.164L15.954,10.246L15.944,10.327L15.932,10.409L15.919,10.489L15.905,10.57L15.891,10.65L15.875,10.73L15.858,10.809L15.84,10.888L15.821,10.967L15.801,11.046L15.779,11.124L15.757,11.201L15.734,11.279L15.71,11.356L15.685,11.432L15.659,11.508L15.632,11.584L15.604,11.659L15.575,11.734L15.545,11.808L15.514,11.882L15.482,11.956L15.45,12.029L15.416,12.102L15.381,12.174L15.346,12.246L15.309,12.317L15.272,12.388L15.234,12.458L15.195,12.528L15.155,12.597L15.114,12.666L15.072,12.734L15.029,12.802L14.986,12.869L14.942,12.936L14.897,13.002L14.851,13.068L14.804,13.133L14.756,13.198L14.708,13.262L14.659,13.325L14.609,13.388L14.558,13.45L14.506,13.512L14.454,13.573L14.401,13.634L14.347,13.694L14.292,13.753L14.237,13.811L14.181,13.869L14.124,13.927L14.066,13.984L14.008,14.04L13.949,14.095L13.889,14.15L13.829,14.204L13.767,14.258L13.706,14.311L13.643,14.363L13.58,14.414L13.516,14.465L13.452,14.515L13.386,14.564L13.321,14.613L13.254,14.661L13.187,14.708L13.119,14.754L13.051,14.8L12.982,14.845L12.913,14.889L12.843,14.933L12.772,14.975L12.7,15.017L12.629,15.058L12.556,15.099L12.483,15.138L12.41,15.177L12.335,15.215L12.261,15.252L12.186,15.288L12.11,15.324L12.034,15.359L11.957,15.392L11.88,15.425L11.802,15.458L11.724,15.489L11.645,15.519L11.566,15.549L11.486,15.578L11.406,15.605L11.325,15.632L11.244,15.658L11.163,15.683L11.081,15.708L10.998,15.731L10.915,15.753L10.832,15.775L10.749,15.795L10.664,15.815L10.58,15.833L10.495,15.851L10.41,15.868L10.324,15.884L10.238,15.898L10.152,15.912L10.065,15.925L9.978,15.937L9.891,15.948L9.803,15.958L9.715,15.966L9.627,15.974L9.538,15.981L9.449,15.987L9.36,15.992L9.27,15.995L9.181,15.998L9.09,15.999L9,16L8.91,15.999L8.819,15.998L8.73,15.995L8.64,15.992L8.551,15.987L8.462,15.981L8.373,15.974L8.285,15.966L8.197,15.958L8.109,15.948L8.022,15.937L7.935,15.925L7.848,15.912L7.762,15.898L7.676,15.884L7.59,15.868L7.505,15.851L7.42,15.833L7.336,15.815L7.251,15.795L7.168,15.775L7.085,15.753L7.002,15.731L6.919,15.708L6.837,15.683L6.756,15.658L6.675,15.632L6.594,15.605L6.514,15.578L6.434,15.549L6.355,15.519L6.276,15.489L6.198,15.458L6.12,15.425L6.043,15.392L5.966,15.359L5.89,15.324L5.814,15.288L5.739,15.252L5.665,15.215L5.59,15.177L5.517,15.138L5.444,15.099L5.371,15.058L5.3,15.017L5.228,14.975L5.157,14.933L5.087,14.889L5.018,14.845L4.949,14.8L4.881,14.754L4.813,14.708L4.746,14.661L4.679,14.613L4.614,14.564L4.548,14.515L4.484,14.465L4.42,14.414L4.357,14.363L4.294,14.311L4.233,14.258L4.171,14.204L4.111,14.15L4.051,14.095L3.992,14.04L3.934,13.984L3.876,13.927L3.819,13.869L3.763,13.811L3.708,13.753L3.653,13.694L3.599,13.634L3.546,13.573L3.494,13.512L3.442,13.45L3.391,13.388L3.341,13.325L3.292,13.262L3.244,13.198L3.196,13.133L3.149,13.068L3.103,13.002L3.058,12.936L3.014,12.869L2.971,12.802L2.928,12.734L2.886,12.666L2.845,12.597L2.805,12.528L2.766,12.458L2.728,12.388L2.691,12.317L2.654,12.246L2.619,12.174L2.584,12.102L2.55,12.029L2.518,11.956L2.486,11.882L2.455,11.808L2.425,11.734L2.396,11.659L2.368,11.584L2.341,11.508L2.315,11.432L2.29,11.356L2.266,11.279L2.243,11.201L2.221,11.124L2.199,11.046L2.179,10.967L2.16,10.888L2.142,10.809L2.125,10.73L2.109,10.65L2.095,10.57L2.081,10.489L2.068,10.409L2.056,10.327L2.046,10.246L2.036,10.164L2.028,10.082L2.02,10L2.014,9.917L2.009,9.834L2.005,9.751L2.002,9.668L2.001,9.584L2,9.5L2.001,9.416L2.002,9.332L2.005,9.249L2.009,9.166L2.014,9.083L2.02,9L2.028,8.918L2.036,8.836L2.046,8.754L2.056,8.673L2.068,8.591L2.081,8.511L2.095,8.43L2.109,8.35L2.125,8.27L2.142,8.191L2.16,8.112L2.179,8.033L2.199,7.954L2.221,7.876L2.243,7.799L2.266,7.721L2.29,7.644L2.315,7.568L2.341,7.492L2.368,7.416L2.396,7.341L2.425,7.266L2.455,7.192L2.486,7.118L2.518,7.044L2.55,6.971L2.584,6.898L2.619,6.826L2.654,6.754L2.691,6.683L2.728,6.612L2.766,6.542L2.805,6.472L2.845,6.403L2.886,6.334L2.928,6.266L2.971,6.198L3.014,6.131L3.058,6.064L3.103,5.998L3.149,5.932L3.196,5.867L3.244,5.802L3.292,5.738L3.341,5.675L3.391,5.612L3.442,5.55L3.494,5.488L3.546,5.427L3.599,5.366L3.653,5.306L3.708,5.247L3.763,5.189L3.819,5.131L3.876,5.073L3.934,5.016L3.992,4.96L4.051,4.905L4.111,4.85L4.171,4.796L4.233,4.742L4.294,4.689L4.357,4.637L4.42,4.586L4.484,4.535L4.548,4.485L4.614,4.436L4.679,4.387L4.746,4.339L4.813,4.292L4.881,4.246L4.949,4.2L5.018,4.155L5.087,4.111L5.157,4.067L5.228,4.025L5.3,3.983L5.371,3.942L5.444,3.901L5.517,3.862L5.59,3.823L5.665,3.785L5.739,3.748L5.814,3.712L5.89,3.676L5.966,3.641L6.043,3.608L6.12,3.575L6.198,3.542L6.276,3.511L6.355,3.481L6.434,3.451L6.514,3.422L6.594,3.395L6.675,3.368L6.756,3.342L6.837,3.317L6.919,3.292L7.002,3.269L7.085,3.247L7.168,3.225L7.251,3.205L7.336,3.185L7.42,3.167L7.505,3.149L7.59,3.132L7.676,3.116L7.762,3.102L7.848,3.088L7.935,3.075L8.022,3.063L8.109,3.052L8.197,3.042L8.285,3.034L8.373,3.026L8.462,3.019L8.551,3.013L8.64,3.008L8.73,3.005L8.819,3.002L8.91,3.001L9,3L9.09,3.001ZM8.925,4.148L8.851,4.149L8.777,4.151L8.703,4.154L8.629,4.158L8.556,4.163L8.482,4.168L8.41,4.175L8.337,4.182L8.265,4.19L8.193,4.199L8.121,4.209L8.05,4.219L7.979,4.231L7.908,4.243L7.838,4.256L7.768,4.27L7.698,4.284L7.629,4.3L7.56,4.316L7.491,4.332L7.422,4.35L7.354,4.369L7.287,4.388L7.219,4.408L7.152,4.428L7.086,4.45L7.019,4.472L6.953,4.495L6.888,4.518L6.823,4.542L6.758,4.567L6.694,4.593L6.63,4.62L6.566,4.647L6.503,4.675L6.44,4.703L6.378,4.732L6.316,4.762L6.254,4.793L6.193,4.824L6.133,4.856L6.073,4.889L6.013,4.922L5.954,4.956L5.895,4.99L5.837,5.025L5.779,5.061L5.722,5.098L5.665,5.135L5.609,5.172L5.553,5.211L5.498,5.249L5.443,5.289L5.389,5.329L5.335,5.37L5.282,5.411L5.229,5.453L5.177,5.495L5.125,5.538L5.074,5.582L5.024,5.626L4.974,5.671L4.925,5.716L4.876,5.762L4.828,5.808L4.78,5.855L4.733,5.902L4.687,5.95L4.642,5.998L4.596,6.047L4.552,6.097L4.508,6.146L4.465,6.197L4.422,6.248L4.381,6.299L4.339,6.351L4.299,6.403L4.259,6.456L4.22,6.509L4.181,6.563L4.143,6.617L4.106,6.671L4.07,6.726L4.034,6.782L3.999,6.838L3.964,6.894L3.931,6.951L3.898,7.008L3.866,7.065L3.834,7.123L3.803,7.181L3.773,7.24L3.744,7.299L3.716,7.358L3.688,7.418L3.661,7.478L3.635,7.539L3.61,7.6L3.585,7.661L3.561,7.722L3.538,7.784L3.516,7.846L3.494,7.909L3.474,7.972L3.454,8.035L3.435,8.099L3.417,8.162L3.399,8.227L3.383,8.291L3.367,8.356L3.353,8.421L3.339,8.486L3.325,8.552L3.313,8.618L3.302,8.684L3.291,8.751L3.282,8.817L3.273,8.885L3.265,8.952L3.258,9.019L3.252,9.087L3.247,9.155L3.243,9.224L3.24,9.293L3.237,9.361L3.236,9.431L3.235,9.5L3.236,9.569L3.237,9.639L3.24,9.707L3.243,9.776L3.247,9.845L3.252,9.913L3.258,9.981L3.265,10.048L3.273,10.115L3.282,10.183L3.291,10.249L3.302,10.316L3.313,10.382L3.325,10.448L3.339,10.514L3.353,10.579L3.367,10.644L3.383,10.709L3.399,10.773L3.417,10.838L3.435,10.901L3.454,10.965L3.474,11.028L3.494,11.091L3.516,11.154L3.538,11.216L3.561,11.278L3.585,11.339L3.61,11.4L3.635,11.461L3.661,11.522L3.688,11.582L3.716,11.642L3.744,11.701L3.773,11.76L3.803,11.819L3.834,11.877L3.866,11.935L3.898,11.992L3.931,12.049L3.964,12.106L3.999,12.162L4.034,12.218L4.07,12.274L4.106,12.329L4.143,12.383L4.181,12.437L4.22,12.491L4.259,12.544L4.299,12.597L4.339,12.649L4.381,12.701L4.422,12.752L4.465,12.803L4.508,12.854L4.552,12.903L4.596,12.953L4.642,13.002L4.687,13.05L4.733,13.098L4.78,13.145L4.828,13.192L4.876,13.238L4.925,13.284L4.974,13.329L5.024,13.374L5.074,13.418L5.125,13.462L5.177,13.505L5.229,13.547L5.282,13.589L5.335,13.63L5.389,13.671L5.443,13.711L5.498,13.751L5.553,13.789L5.609,13.828L5.665,13.865L5.722,13.902L5.779,13.939L5.837,13.975L5.895,14.01L5.954,14.044L6.013,14.078L6.073,14.111L6.133,14.144L6.193,14.176L6.254,14.207L6.316,14.238L6.378,14.268L6.44,14.297L6.503,14.325L6.566,14.353L6.63,14.38L6.694,14.407L6.758,14.433L6.823,14.458L6.888,14.482L6.953,14.505L7.019,14.528L7.086,14.55L7.152,14.572L7.219,14.592L7.287,14.612L7.354,14.631L7.422,14.65L7.491,14.668L7.56,14.684L7.629,14.7L7.698,14.716L7.768,14.73L7.838,14.744L7.908,14.757L7.979,14.769L8.05,14.781L8.121,14.791L8.193,14.801L8.265,14.81L8.337,14.818L8.41,14.825L8.482,14.832L8.556,14.837L8.629,14.842L8.703,14.846L8.777,14.849L8.851,14.851L8.925,14.852L9,14.853L9.075,14.852L9.149,14.851L9.223,14.849L9.297,14.846L9.371,14.842L9.444,14.837L9.518,14.832L9.59,14.825L9.663,14.818L9.735,14.81L9.807,14.801L9.879,14.791L9.95,14.781L10.021,14.769L10.092,14.757L10.162,14.744L10.232,14.73L10.302,14.716L10.371,14.7L10.44,14.684L10.509,14.668L10.578,14.65L10.646,14.631L10.713,14.612L10.781,14.592L10.848,14.572L10.914,14.55L10.981,14.528L11.047,14.505L11.112,14.482L11.177,14.458L11.242,14.433L11.306,14.407L11.37,14.38L11.434,14.353L11.497,14.325L11.56,14.297L11.622,14.268L11.684,14.238L11.746,14.207L11.807,14.176L11.867,14.144L11.927,14.111L11.987,14.078L12.046,14.044L12.105,14.01L12.163,13.975L12.221,13.939L12.278,13.902L12.335,13.865L12.391,13.828L12.447,13.789L12.502,13.751L12.557,13.711L12.611,13.671L12.665,13.63L12.718,13.589L12.771,13.547L12.823,13.505L12.875,13.462L12.926,13.418L12.976,13.374L13.026,13.329L13.075,13.284L13.124,13.238L13.172,13.192L13.22,13.145L13.267,13.098L13.313,13.05L13.358,13.002L13.404,12.953L13.448,12.903L13.492,12.854L13.535,12.803L13.578,12.752L13.619,12.701L13.661,12.649L13.701,12.597L13.741,12.544L13.78,12.491L13.819,12.437L13.857,12.383L13.894,12.329L13.93,12.274L13.966,12.218L14.001,12.162L14.036,12.106L14.069,12.049L14.102,11.992L14.134,11.935L14.166,11.877L14.197,11.819L14.227,11.76L14.256,11.701L14.284,11.642L14.312,11.582L14.339,11.522L14.365,11.461L14.39,11.4L14.415,11.339L14.439,11.278L14.462,11.216L14.484,11.154L14.506,11.091L14.526,11.028L14.546,10.965L14.565,10.901L14.583,10.838L14.601,10.773L14.617,10.709L14.633,10.644L14.647,10.579L14.661,10.514L14.675,10.448L14.687,10.382L14.698,10.316L14.709,10.249L14.718,10.183L14.727,10.115L14.735,10.048L14.742,9.981L14.748,9.913L14.753,9.845L14.757,9.776L14.76,9.707L14.763,9.639L14.764,9.569L14.765,9.5L14.764,9.431L14.763,9.361L14.76,9.293L14.757,9.224L14.753,9.155L14.748,9.087L14.742,9.019L14.735,8.952L14.727,8.885L14.718,8.817L14.709,8.751L14.698,8.684L14.687,8.618L14.675,8.552L14.661,8.486L14.647,8.421L14.633,8.356L14.617,8.291L14.601,8.227L14.583,8.162L14.565,8.099L14.546,8.035L14.526,7.972L14.506,7.909L14.484,7.846L14.462,7.784L14.439,7.722L14.415,7.661L14.39,7.6L14.365,7.539L14.339,7.478L14.312,7.418L14.284,7.358L14.256,7.299L14.227,7.24L14.197,7.181L14.166,7.123L14.134,7.065L14.102,7.008L14.069,6.951L14.036,6.894L14.001,6.838L13.966,6.782L13.93,6.726L13.894,6.671L13.857,6.617L13.819,6.563L13.78,6.509L13.741,6.456L13.701,6.403L13.661,6.351L13.619,6.299L13.578,6.248L13.535,6.197L13.492,6.146L13.448,6.097L13.404,6.047L13.358,5.998L13.313,5.95L13.267,5.902L13.22,5.855L13.172,5.808L13.124,5.762L13.075,5.716L13.026,5.671L12.976,5.626L12.926,5.582L12.875,5.538L12.823,5.495L12.771,5.453L12.718,5.411L12.665,5.37L12.611,5.329L12.557,5.289L12.502,5.249L12.447,5.211L12.391,5.172L12.335,5.135L12.278,5.098L12.221,5.061L12.163,5.025L12.105,4.99L12.046,4.956L11.987,4.922L11.927,4.889L11.867,4.856L11.807,4.824L11.746,4.793L11.684,4.762L11.622,4.732L11.56,4.703L11.497,4.675L11.434,4.647L11.37,4.62L11.306,4.593L11.242,4.567L11.177,4.542L11.112,4.518L11.047,4.495L10.981,4.472L10.914,4.45L10.848,4.428L10.781,4.408L10.713,4.388L10.646,4.369L10.578,4.35L10.509,4.332L10.44,4.316L10.371,4.3L10.302,4.284L10.232,4.27L10.162,4.256L10.092,4.243L10.021,4.231L9.95,4.219L9.879,4.209L9.807,4.199L9.735,4.19L9.663,4.182L9.59,4.175L9.518,4.168L9.444,4.163L9.371,4.158L9.297,4.154L9.223,4.151L9.149,4.149L9.075,4.148L9,4.147L8.925,4.148Z" style="fill:rgb(160,33,33);"/>
    </g>
</svg>
