<svg style="position: absolute; width: 0; height: 0;" width="0" height="0" version="1.1" xmlns="http://www.w3.org/2000/svg" xmlns:xlink="http://www.w3.org/1999/xlink">
<defs>
<symbol id="icon-gps_fixed" viewBox="0 0 1024 1024">
<title>gps_fixed</title>
<path class="path1" d="M512 810q124 0 211-87t87-211-87-211-211-87-211 87-87 211 87 211 211 87zM894 470h88v84h-88q-14 134-110 230t-230 110v88h-84v-88q-134-14-230-110t-110-230h-88v-84h88q14-134 110-230t230-110v-88h84v88q134 14 230 110t110 230zM512 342q70 0 120 50t50 120-50 120-120 50-120-50-50-120 50-120 120-50z"></path>
</symbol>
<symbol id="icon-copy" viewBox="0 0 1024 1024">
<title>copy</title>
<path class="path1" d="M969.143 219.429q22.857 0 38.857 16t16 38.857v694.857q0 22.857-16 38.857t-38.857 16h-548.571q-22.857 0-38.857-16t-16-38.857v-164.571h-310.857q-22.857 0-38.857-16t-16-38.857v-384q0-22.857 11.429-50.286t27.429-43.429l233.143-233.143q16-16 43.429-27.429t50.286-11.429h237.714q22.857 0 38.857 16t16 38.857v187.429q38.857-22.857 73.143-22.857h237.714zM658.286 341.143l-170.857 170.857h170.857v-170.857zM292.571 121.714l-170.857 170.857h170.857v-170.857zM404.571 491.429l180.571-180.571v-237.714h-219.429v237.714q0 22.857-16 38.857t-38.857 16h-237.714v365.714h292.571v-146.286q0-22.857 11.429-50.286t27.429-43.429zM950.857 950.857v-658.286h-219.429v237.714q0 22.857-16 38.857t-38.857 16h-237.714v365.714h512z"></path>
</symbol>
<symbol id="icon-street-view" viewBox="0 0 805 1024">
<title>street-view</title>
<path class="path1" d="M804.571 877.714q0 36-35.143 64.857t-93.714 46.286-128.571 26.286-144.857 8.857-144.857-8.857-128.571-26.286-93.714-46.286-35.143-64.857q0-28 18.857-50.571t52-38 67.429-25.429 74.857-16.857q14.857-2.857 27.429 6t14.857 23.714q2.857 14.857-6 27.429t-23.714 14.857q-33.143 5.714-60.571 13.429t-43.714 14.571-27.714 13.429-15.714 11.143-4.857 6.857q1.714 6.286 15.429 15.143t41.714 18.857 65.143 18.571 91.714 14.286 115.143 5.714 115.143-5.714 91.714-14.286 65.143-18.857 41.714-19.143 15.429-15.714q-0.571-2.286-4.857-6.286t-15.714-10.857-27.714-13.429-43.714-14.286-60.571-13.429q-14.857-2.286-23.714-14.857t-6-27.429q2.286-14.857 14.857-23.714t27.429-6q40.571 6.857 74.857 16.857t67.429 25.429 52 38 18.857 50.571zM585.143 365.714v219.429q0 14.857-10.857 25.714t-25.714 10.857h-36.571v219.429q0 14.857-10.857 25.714t-25.714 10.857h-146.286q-14.857 0-25.714-10.857t-10.857-25.714v-219.429h-36.571q-14.857 0-25.714-10.857t-10.857-25.714v-219.429q0-30.286 21.429-51.714t51.714-21.429h219.429q30.286 0 51.714 21.429t21.429 51.714zM530.286 146.286q0 53.143-37.429 90.571t-90.571 37.429-90.571-37.429-37.429-90.571 37.429-90.571 90.571-37.429 90.571 37.429 37.429 90.571z"></path>
</symbol>
<symbol id="icon-mouse-pointer" viewBox="0 0 662 1024">
<title>mouse-pointer</title>
<path class="path1" d="M647.429 596q17.714 17.143 8 39.429-9.714 22.857-33.714 22.857h-218.286l114.857 272q5.714 14.286 0 28t-19.429 20l-101.143 42.857q-14.286 5.714-28 0t-20-19.429l-109.143-258.286-178.286 178.286q-10.857 10.857-25.714 10.857-6.857 0-13.714-2.857-22.857-9.714-22.857-33.714v-859.429q0-24 22.857-33.714 6.857-2.857 13.714-2.857 15.429 0 25.714 10.857z"></path>
</symbol>
<symbol id="icon-search-minus" viewBox="0 0 951 1024">
<title>search-minus</title>
<path class="path1" d="M585.143 457.143v36.571q0 7.429-5.429 12.857t-12.857 5.429h-329.143q-7.429 0-12.857-5.429t-5.429-12.857v-36.571q0-7.429 5.429-12.857t12.857-5.429h329.143q7.429 0 12.857 5.429t5.429 12.857zM658.286 475.429q0-105.714-75.143-180.857t-180.857-75.143-180.857 75.143-75.143 180.857 75.143 180.857 180.857 75.143 180.857-75.143 75.143-180.857zM950.857 950.857q0 30.286-21.429 51.714t-51.714 21.429q-30.857 0-51.429-21.714l-196-195.429q-102.286 70.857-228 70.857-81.714 0-156.286-31.714t-128.571-85.714-85.714-128.571-31.714-156.286 31.714-156.286 85.714-128.571 128.571-85.714 156.286-31.714 156.286 31.714 128.571 85.714 85.714 128.571 31.714 156.286q0 125.714-70.857 228l196 196q21.143 21.143 21.143 51.429z"></path>
</symbol>
<symbol id="icon-search-plus" viewBox="0 0 951 1024">
<title>search-plus</title>
<path class="path1" d="M585.143 457.143v36.571q0 7.429-5.429 12.857t-12.857 5.429h-128v128q0 7.429-5.429 12.857t-12.857 5.429h-36.571q-7.429 0-12.857-5.429t-5.429-12.857v-128h-128q-7.429 0-12.857-5.429t-5.429-12.857v-36.571q0-7.429 5.429-12.857t12.857-5.429h128v-128q0-7.429 5.429-12.857t12.857-5.429h36.571q7.429 0 12.857 5.429t5.429 12.857v128h128q7.429 0 12.857 5.429t5.429 12.857zM658.286 475.429q0-105.714-75.143-180.857t-180.857-75.143-180.857 75.143-75.143 180.857 75.143 180.857 180.857 75.143 180.857-75.143 75.143-180.857zM950.857 950.857q0 30.286-21.429 51.714t-51.714 21.429q-30.857 0-51.429-21.714l-196-195.429q-102.286 70.857-228 70.857-81.714 0-156.286-31.714t-128.571-85.714-85.714-128.571-31.714-156.286 31.714-156.286 85.714-128.571 128.571-85.714 156.286-31.714 156.286 31.714 128.571 85.714 85.714 128.571 31.714 156.286q0 125.714-70.857 228l196 196q21.143 21.143 21.143 51.429z"></path>
</symbol>
<symbol id="icon-hand-paper-o" viewBox="0 0 933 1024">
<title>hand-paper-o</title>
<path class="path1" d="M502.857 73.143q-26.286 0-45.143 18.857t-18.857 45.143v374.857h-18.286v-301.714q0-26.286-18.857-45.143t-45.143-18.857-45.143 18.857-18.857 45.143v448l-88-117.143q-21.714-29.143-58.286-29.143-30.286 0-51.714 21.429t-21.429 51.714q0 24.571 14.857 44l219.429 292.571q21.714 29.143 58.286 29.143h393.143q19.429 0 34.857-12.571t19.429-32l43.429-231.429q2.857-18.286 2.857-33.714v-284.571q0-26.286-18.857-45.143t-45.143-18.857-45.143 18.857-18.857 45.143v155.429h-18.286v-301.714q0-26.286-18.857-45.143t-45.143-18.857-45.143 18.857-18.857 45.143v301.714h-18.286v-374.857q0-26.286-18.857-45.143t-45.143-18.857zM502.857 0q38.857 0 71.714 20.286t50.571 55.143q10.857-2.286 24-2.286 56.571 0 96.857 40.286t40.286 96.857v9.714q60-3.429 103.143 36.571t43.143 100v284.571q0 22.857-4.571 47.429l-43.429 230.857q-8 45.143-43.714 74.857t-82 29.714h-393.143q-34.286 0-65.429-15.714t-51.714-42.571l-219.429-292.571q-29.143-38.857-29.143-88 0-60.571 42.857-103.429t103.429-42.857q44.571 0 73.143 19.429v-248q0-56.571 40.286-96.857t96.857-40.286q13.143 0 24 2.286 17.714-34.857 50.571-55.143t71.714-20.286z"></path>
</symbol>
<symbol id="icon-arrow-down-left" viewBox="0 0 1024 1024">
<title>arrow-down-left</title>
<path class="path1" d="M736 1024l-256-256 544-544-224-224-544 544-256-255.998v735.998h736z"></path>
</symbol>
<symbol id="icon-arrow-down-right" viewBox="0 0 1024 1024">
<title>arrow-down-right</title>
<path class="path1" d="M1024 288l-256 256-544-544-224 224 544 544-255.998 256h735.998v-736z"></path>
</symbol>
<symbol id="icon-arrow-up-left" viewBox="0 0 1024 1024">
<title>arrow-up-left</title>
<path class="path1" d="M0 736l256-256 544 544 224-224-544-544 255.998-256h-735.998v736z"></path>
</symbol>
<symbol id="icon-arrow-up-right" viewBox="0 0 1024 1024">
<title>arrow-up-right</title>
<path class="path1" d="M288 0l256 256-544 544 224 224 544-544 256 255.998v-735.998h-736z"></path>
</symbol>
<symbol id="icon-arrow-right" viewBox="0 0 1024 1024">
<title>arrow-right</title>
<path class="path1" d="M992 512l-480-480v288h-512v384h512v288z"></path>
</symbol>
<symbol id="icon-arrow-left" viewBox="0 0 1024 1024">
<title>arrow-left</title>
<path class="path1" d="M32 512l480 480v-288h512v-384h-512v-288z"></path>
</symbol>
<symbol id="icon-arrow-down" viewBox="0 0 1024 1024">
<title>arrow-down</title>
<path class="path1" d="M512 992l480-480h-288v-512h-384v512h-288z"></path>
</symbol>
<symbol id="icon-arrow-up" viewBox="0 0 1024 1024">
<title>arrow-up</title>
<path class="path1" d="M512 32l-480 480h288v512h384v-512h288z"></path>
</symbol>
<symbol id="icon-search" viewBox="0 0 950.8563512165565 1024">
<title>search</title>
<path class="path1" d="M658.286 475.429q0-105.714-75.143-180.857t-180.857-75.143-180.857 75.143-75.143 180.857 75.143 180.857 180.857 75.143 180.857-75.143 75.143-180.857zM950.857 950.857q0 29.714-21.714 51.429t-51.429 21.714q-30.857 0-51.429-21.714l-196-195.429q-102.286 70.857-228 70.857-81.714 0-156.286-31.714t-128.571-85.714-85.714-128.571-31.714-156.286 31.714-156.286 85.714-128.571 128.571-85.714 156.286-31.714 156.286 31.714 128.571 85.714 85.714 128.571 31.714 156.286q0 125.714-70.857 228l196 196q21.143 21.143 21.143 51.429z"></path>
</symbol>
<symbol id="icon-download" viewBox="0 0 950.857048034668 1024">
<title>download</title>
<path class="path1" d="M731.429 768q0-14.857-10.857-25.714t-25.714-10.857-25.714 10.857-10.857 25.714 10.857 25.714 25.714 10.857 25.714-10.857 10.857-25.714zM877.714 768q0-14.857-10.857-25.714t-25.714-10.857-25.714 10.857-10.857 25.714 10.857 25.714 25.714 10.857 25.714-10.857 10.857-25.714zM950.857 640v182.857q0 22.857-16 38.857t-38.857 16h-841.143q-22.857 0-38.857-16t-16-38.857v-182.857q0-22.857 16-38.857t38.857-16h265.714l77.143 77.714q33.143 32 77.714 32t77.714-32l77.714-77.714h265.143q22.857 0 38.857 16t16 38.857zM765.143 314.857q9.714 23.429-8 40l-256 256q-10.286 10.857-25.714 10.857t-25.714-10.857l-256-256q-17.714-16.571-8-40 9.714-22.286 33.714-22.286h146.286v-256q0-14.857 10.857-25.714t25.714-10.857h146.286q14.857 0 25.714 10.857t10.857 25.714v256h146.286q24 0 33.714 22.286z"></path>
</symbol>
<symbol id="icon-bookmark" viewBox="0 0 731.4280967712402 1024">
<title>bookmark</title>
<path class="path1" d="M665.143 73.143q13.143 0 25.143 5.143 18.857 7.429 30 23.429t11.143 35.429v736.571q0 19.429-11.143 35.429t-30 23.429q-10.857 4.571-25.143 4.571-27.429 0-47.429-18.286l-252-242.286-252 242.286q-20.571 18.857-47.429 18.857-13.143 0-25.143-5.143-18.857-7.429-30-23.429t-11.143-35.429v-736.571q0-19.429 11.143-35.429t30-23.429q12-5.143 25.143-5.143h598.857z"></path>
</symbol>
<symbol id="icon-print" viewBox="0 0 950.8590908050537 1024">
<title>print</title>
<path class="path1" d="M219.429 877.714h512v-146.286h-512v146.286zM219.429 512h512v-219.429h-91.429q-22.857 0-38.857-16t-16-38.857v-91.429h-365.714v365.714zM877.714 548.571q0-14.857-10.857-25.714t-25.714-10.857-25.714 10.857-10.857 25.714 10.857 25.714 25.714 10.857 25.714-10.857 10.857-25.714zM950.857 548.571v237.714q0 7.429-5.429 12.857t-12.857 5.429h-128v91.429q0 22.857-16 38.857t-38.857 16h-548.571q-22.857 0-38.857-16t-16-38.857v-91.429h-128q-7.429 0-12.857-5.429t-5.429-12.857v-237.714q0-45.143 32.286-77.429t77.429-32.286h36.571v-310.857q0-22.857 16-38.857t38.857-16h384q22.857 0 50.286 11.429t43.429 27.429l86.857 86.857q16 16 27.429 43.429t11.429 50.286v146.286h36.571q45.143 0 77.429 32.286t32.286 77.429z"></path>
</symbol>
<symbol id="icon-list" viewBox="0 0 1023.9999904632568 1024">
<title>list</title>
<path class="path1" d="M146.286 749.714v109.714q0 7.429-5.429 12.857t-12.857 5.429h-109.714q-7.429 0-12.857-5.429t-5.429-12.857v-109.714q0-7.429 5.429-12.857t12.857-5.429h109.714q7.429 0 12.857 5.429t5.429 12.857zM146.286 530.286v109.714q0 7.429-5.429 12.857t-12.857 5.429h-109.714q-7.429 0-12.857-5.429t-5.429-12.857v-109.714q0-7.429 5.429-12.857t12.857-5.429h109.714q7.429 0 12.857 5.429t5.429 12.857zM146.286 310.857v109.714q0 7.429-5.429 12.857t-12.857 5.429h-109.714q-7.429 0-12.857-5.429t-5.429-12.857v-109.714q0-7.429 5.429-12.857t12.857-5.429h109.714q7.429 0 12.857 5.429t5.429 12.857zM1024 749.714v109.714q0 7.429-5.429 12.857t-12.857 5.429h-768q-7.429 0-12.857-5.429t-5.429-12.857v-109.714q0-7.429 5.429-12.857t12.857-5.429h768q7.429 0 12.857 5.429t5.429 12.857zM146.286 91.429v109.714q0 7.429-5.429 12.857t-12.857 5.429h-109.714q-7.429 0-12.857-5.429t-5.429-12.857v-109.714q0-7.429 5.429-12.857t12.857-5.429h109.714q7.429 0 12.857 5.429t5.429 12.857zM1024 530.286v109.714q0 7.429-5.429 12.857t-12.857 5.429h-768q-7.429 0-12.857-5.429t-5.429-12.857v-109.714q0-7.429 5.429-12.857t12.857-5.429h768q7.429 0 12.857 5.429t5.429 12.857zM1024 310.857v109.714q0 7.429-5.429 12.857t-12.857 5.429h-768q-7.429 0-12.857-5.429t-5.429-12.857v-109.714q0-7.429 5.429-12.857t12.857-5.429h768q7.429 0 12.857 5.429t5.429 12.857zM1024 91.429v109.714q0 7.429-5.429 12.857t-12.857 5.429h-768q-7.429 0-12.857-5.429t-5.429-12.857v-109.714q0-7.429 5.429-12.857t12.857-5.429h768q7.429 0 12.857 5.429t5.429 12.857z"></path>
</symbol>
<symbol id="icon-image" viewBox="0 0 1097.1438789367676 1024">
<title>image</title>
<path class="path1" d="M365.714 329.143q0 45.714-32 77.714t-77.714 32-77.714-32-32-77.714 32-77.714 77.714-32 77.714 32 32 77.714zM950.857 548.571v256h-804.571v-109.714l182.857-182.857 91.429 91.429 292.571-292.571zM1005.714 146.286h-914.286q-7.429 0-12.857 5.429t-5.429 12.857v694.857q0 7.429 5.429 12.857t12.857 5.429h914.286q7.429 0 12.857-5.429t5.429-12.857v-694.857q0-7.429-5.429-12.857t-12.857-5.429zM1097.143 164.571v694.857q0 37.714-26.857 64.571t-64.571 26.857h-914.286q-37.714 0-64.571-26.857t-26.857-64.571v-694.857q0-37.714 26.857-64.571t64.571-26.857h914.286q37.714 0 64.571 26.857t26.857 64.571z"></path>
</symbol>
<symbol id="icon-pencil" viewBox="0 0 865.7150573730469 1024">
<title>pencil</title>
<path class="path1" d="M207.429 877.714l52-52-134.286-134.286-52 52v61.143h73.143v73.143h61.143zM506.286 347.429q0-12.571-12.571-12.571-5.714 0-9.714 4l-309.714 309.714q-4 4-4 9.714 0 12.571 12.571 12.571 5.714 0 9.714-4l309.714-309.714q4-4 4-9.714zM475.429 237.714l237.714 237.714-475.429 475.429h-237.714v-237.714zM865.714 292.571q0 30.286-21.143 51.429l-94.857 94.857-237.714-237.714 94.857-94.286q20.571-21.714 51.429-21.714 30.286 0 52 21.714l134.286 133.714q21.143 22.286 21.143 52z"></path>
</symbol>
<symbol id="icon-edit" viewBox="0 0 1019.4270350136794 1024">
<title>edit</title>
<path class="path1" d="M507.429 676.571l66.286-66.286-86.857-86.857-66.286 66.286v32h54.857v54.857h32zM758.857 265.143q-9.143-9.143-18.857 0.571l-200 200q-9.714 9.714-0.571 18.857t18.857-0.571l200-200q9.714-9.714 0.571-18.857zM804.571 604.571v108.571q0 68-48.286 116.286t-116.286 48.286h-475.429q-68 0-116.286-48.286t-48.286-116.286v-475.429q0-68 48.286-116.286t116.286-48.286h475.429q36 0 66.857 14.286 8.571 4 10.286 13.143 1.714 9.714-5.143 16.571l-28 28q-8 8-18.286 4.571-13.143-3.429-25.714-3.429h-475.429q-37.714 0-64.571 26.857t-26.857 64.571v475.429q0 37.714 26.857 64.571t64.571 26.857h475.429q37.714 0 64.571-26.857t26.857-64.571v-72q0-7.429 5.143-12.571l36.571-36.571q8.571-8.571 20-4t11.429 16.571zM749.714 182.857l164.571 164.571-384 384h-164.571v-164.571zM1003.429 258.286l-52.571 52.571-164.571-164.571 52.571-52.571q16-16 38.857-16t38.857 16l86.857 86.857q16 16 16 38.857t-16 38.857z"></path>
</symbol>
<symbol id="icon-expand" viewBox="0 0 877.7160301208496 1024">
<title>expand</title>
<path class="path1" d="M431.429 603.429q0 7.429-5.714 13.143l-189.714 189.714 82.286 82.286q10.857 10.857 10.857 25.714t-10.857 25.714-25.714 10.857h-256q-14.857 0-25.714-10.857t-10.857-25.714v-256q0-14.857 10.857-25.714t25.714-10.857 25.714 10.857l82.286 82.286 189.714-189.714q5.714-5.714 13.143-5.714t13.143 5.714l65.143 65.143q5.714 5.714 5.714 13.143zM877.714 109.714v256q0 14.857-10.857 25.714t-25.714 10.857-25.714-10.857l-82.286-82.286-189.714 189.714q-5.714 5.714-13.143 5.714t-13.143-5.714l-65.143-65.143q-5.714-5.714-5.714-13.143t5.714-13.143l189.714-189.714-82.286-82.286q-10.857-10.857-10.857-25.714t10.857-25.714 25.714-10.857h256q14.857 0 25.714 10.857t10.857 25.714z"></path>
</symbol>
<symbol id="icon-compress" viewBox="0 0 877.7160587310791 1024">
<title>compress</title>
<path class="path1" d="M438.857 548.571v256q0 14.857-10.857 25.714t-25.714 10.857-25.714-10.857l-82.286-82.286-189.714 189.714q-5.714 5.714-13.143 5.714t-13.143-5.714l-65.143-65.143q-5.714-5.714-5.714-13.143t5.714-13.143l189.714-189.714-82.286-82.286q-10.857-10.857-10.857-25.714t10.857-25.714 25.714-10.857h256q14.857 0 25.714 10.857t10.857 25.714zM870.286 164.571q0 7.429-5.714 13.143l-189.714 189.714 82.286 82.286q10.857 10.857 10.857 25.714t-10.857 25.714-25.714 10.857h-256q-14.857 0-25.714-10.857t-10.857-25.714v-256q0-14.857 10.857-25.714t25.714-10.857 25.714 10.857l82.286 82.286 189.714-189.714q5.714-5.714 13.143-5.714t13.143 5.714l65.143 65.143q5.714 5.714 5.714 13.143z"></path>
</symbol>
<symbol id="icon-plus" viewBox="0 0 804.5719833374023 1024">
<title>plus</title>
<path class="path1" d="M804.571 420.571v109.714q0 22.857-16 38.857t-38.857 16h-237.714v237.714q0 22.857-16 38.857t-38.857 16h-109.714q-22.857 0-38.857-16t-16-38.857v-237.714h-237.714q-22.857 0-38.857-16t-16-38.857v-109.714q0-22.857 16-38.857t38.857-16h237.714v-237.714q0-22.857 16-38.857t38.857-16h109.714q22.857 0 38.857 16t16 38.857v237.714h237.714q22.857 0 38.857 16t16 38.857z"></path>
</symbol>
<symbol id="icon-magnet" viewBox="0 0 877.7140070597306 1024">
<title>magnet</title>
<path class="path1" d="M877.714 475.429v73.143q0 114.857-56.286 206.857t-156.571 143.714-226 51.714-226-51.714-156.571-143.714-56.286-206.857v-73.143q0-14.857 10.857-25.714t25.714-10.857h219.429q14.857 0 25.714 10.857t10.857 25.714v73.143q0 29.714 13.429 51.429t30.571 32.571 40.571 17.143 36.571 7.429 25.143 1.143 25.143-1.143 36.571-7.429 40.571-17.143 30.571-32.571 13.429-51.429v-73.143q0-14.857 10.857-25.714t25.714-10.857h219.429q14.857 0 25.714 10.857t10.857 25.714zM292.571 109.714v219.429q0 14.857-10.857 25.714t-25.714 10.857h-219.429q-14.857 0-25.714-10.857t-10.857-25.714v-219.429q0-14.857 10.857-25.714t25.714-10.857h219.429q14.857 0 25.714 10.857t10.857 25.714zM877.714 109.714v219.429q0 14.857-10.857 25.714t-25.714 10.857h-219.429q-14.857 0-25.714-10.857t-10.857-25.714v-219.429q0-14.857 10.857-25.714t25.714-10.857h219.429q14.857 0 25.714 10.857t10.857 25.714z"></path>
</symbol>
<symbol id="icon-bar-chart" viewBox="0 0 1170.2860107421875 1024">
<title>bar-chart</title>
<path class="path1" d="M365.714 512v292.571h-146.286v-292.571h146.286zM585.143 219.429v585.143h-146.286v-585.143h146.286zM1170.286 877.714v73.143h-1170.286v-877.714h73.143v804.571h1097.143zM804.571 365.714v438.857h-146.286v-438.857h146.286zM1024 146.286v658.286h-146.286v-658.286h146.286z"></path>
</symbol>
<symbol id="icon-filter" viewBox="0 0 804.5709481239319 1024">
<title>filter</title>
<path class="path1" d="M801.714 168.571q9.714 23.429-8 40l-281.714 281.714v424q0 24-22.286 33.714-7.429 2.857-14.286 2.857-15.429 0-25.714-10.857l-146.286-146.286q-10.857-10.857-10.857-25.714v-277.714l-281.714-281.714q-17.714-16.571-8-40 9.714-22.286 33.714-22.286h731.429q24 0 33.714 22.286z"></path>
</symbol>
<symbol id="icon-table" viewBox="0 0 950.8580513000488 1024">
<title>table</title>
<path class="path1" d="M292.571 786.286v-109.714q0-8-5.143-13.143t-13.143-5.143h-182.857q-8 0-13.143 5.143t-5.143 13.143v109.714q0 8 5.143 13.143t13.143 5.143h182.857q8 0 13.143-5.143t5.143-13.143zM292.571 566.857v-109.714q0-8-5.143-13.143t-13.143-5.143h-182.857q-8 0-13.143 5.143t-5.143 13.143v109.714q0 8 5.143 13.143t13.143 5.143h182.857q8 0 13.143-5.143t5.143-13.143zM585.143 786.286v-109.714q0-8-5.143-13.143t-13.143-5.143h-182.857q-8 0-13.143 5.143t-5.143 13.143v109.714q0 8 5.143 13.143t13.143 5.143h182.857q8 0 13.143-5.143t5.143-13.143zM292.571 347.429v-109.714q0-8-5.143-13.143t-13.143-5.143h-182.857q-8 0-13.143 5.143t-5.143 13.143v109.714q0 8 5.143 13.143t13.143 5.143h182.857q8 0 13.143-5.143t5.143-13.143zM585.143 566.857v-109.714q0-8-5.143-13.143t-13.143-5.143h-182.857q-8 0-13.143 5.143t-5.143 13.143v109.714q0 8 5.143 13.143t13.143 5.143h182.857q8 0 13.143-5.143t5.143-13.143zM877.714 786.286v-109.714q0-8-5.143-13.143t-13.143-5.143h-182.857q-8 0-13.143 5.143t-5.143 13.143v109.714q0 8 5.143 13.143t13.143 5.143h182.857q8 0 13.143-5.143t5.143-13.143zM585.143 347.429v-109.714q0-8-5.143-13.143t-13.143-5.143h-182.857q-8 0-13.143 5.143t-5.143 13.143v109.714q0 8 5.143 13.143t13.143 5.143h182.857q8 0 13.143-5.143t5.143-13.143zM877.714 566.857v-109.714q0-8-5.143-13.143t-13.143-5.143h-182.857q-8 0-13.143 5.143t-5.143 13.143v109.714q0 8 5.143 13.143t13.143 5.143h182.857q8 0 13.143-5.143t5.143-13.143zM877.714 347.429v-109.714q0-8-5.143-13.143t-13.143-5.143h-182.857q-8 0-13.143 5.143t-5.143 13.143v109.714q0 8 5.143 13.143t13.143 5.143h182.857q8 0 13.143-5.143t5.143-13.143zM950.857 164.571v621.714q0 37.714-26.857 64.571t-64.571 26.857h-768q-37.714 0-64.571-26.857t-26.857-64.571v-621.714q0-37.714 26.857-64.571t64.571-26.857h768q37.714 0 64.571 26.857t26.857 64.571z"></path>
</symbol>
<symbol id="icon-file-text-o" viewBox="0 0 877.7160568237305 1024">
<title>file-text-o</title>
<path class="path1" d="M838.857 217.143q16 16 27.429 43.429t11.429 50.286v658.286q0 22.857-16 38.857t-38.857 16h-768q-22.857 0-38.857-16t-16-38.857v-914.286q0-22.857 16-38.857t38.857-16h512q22.857 0 50.286 11.429t43.429 27.429zM585.143 77.714v214.857h214.857q-5.714-16.571-12.571-23.429l-178.857-178.857q-6.857-6.857-23.429-12.571zM804.571 950.857v-585.143h-237.714q-22.857 0-38.857-16t-16-38.857v-237.714h-438.857v877.714h731.429zM219.429 457.143q0-8 5.143-13.143t13.143-5.143h402.286q8 0 13.143 5.143t5.143 13.143v36.571q0 8-5.143 13.143t-13.143 5.143h-402.286q-8 0-13.143-5.143t-5.143-13.143v-36.571zM640 585.143q8 0 13.143 5.143t5.143 13.143v36.571q0 8-5.143 13.143t-13.143 5.143h-402.286q-8 0-13.143-5.143t-5.143-13.143v-36.571q0-8 5.143-13.143t13.143-5.143h402.286zM640 731.429q8 0 13.143 5.143t5.143 13.143v36.571q0 8-5.143 13.143t-13.143 5.143h-402.286q-8 0-13.143-5.143t-5.143-13.143v-36.571q0-8 5.143-13.143t13.143-5.143h402.286z"></path>
</symbol>
<symbol id="icon-info" viewBox="0 0 365.71499252319336 1024">
<title>info</title>
<path class="path1" d="M365.714 768v73.143q0 14.857-10.857 25.714t-25.714 10.857h-292.571q-14.857 0-25.714-10.857t-10.857-25.714v-73.143q0-14.857 10.857-25.714t25.714-10.857h36.571v-219.429h-36.571q-14.857 0-25.714-10.857t-10.857-25.714v-73.143q0-14.857 10.857-25.714t25.714-10.857h219.429q14.857 0 25.714 10.857t10.857 25.714v329.143h36.571q14.857 0 25.714 10.857t10.857 25.714zM292.571 109.714v109.714q0 14.857-10.857 25.714t-25.714 10.857h-146.286q-14.857 0-25.714-10.857t-10.857-25.714v-109.714q0-14.857 10.857-25.714t25.714-10.857h146.286q14.857 0 25.714 10.857t10.857 25.714z"></path>
</symbol>
<symbol id="icon-circle-thin" viewBox="0 0 877.7140070597306 1024">
<title>circle-thin</title>
<path class="path1" d="M438.857 146.286q-74.286 0-142 29.143t-116.571 78-78 116.571-29.143 142 29.143 142 78 116.571 116.571 78 142 29.143 142-29.143 116.571-78 78-116.571 29.143-142-29.143-142-78-116.571-116.571-78-142-29.143zM877.714 512q0 119.429-58.857 220.286t-159.714 159.714-220.286 58.857-220.286-58.857-159.714-159.714-58.857-220.286 58.857-220.286 159.714-159.714 220.286-58.857 220.286 58.857 159.714 159.714 58.857 220.286z"></path>
</symbol>
<symbol id="icon-sliders" viewBox="0 0 877.7139892578125 1024">
<title>sliders</title>
<path class="path1" d="M201.143 804.571v73.143h-201.143v-73.143h201.143zM402.286 731.429q14.857 0 25.714 10.857t10.857 25.714v146.286q0 14.857-10.857 25.714t-25.714 10.857h-146.286q-14.857 0-25.714-10.857t-10.857-25.714v-146.286q0-14.857 10.857-25.714t25.714-10.857h146.286zM493.714 512v73.143h-493.714v-73.143h493.714zM128 219.429v73.143h-128v-73.143h128zM877.714 804.571v73.143h-420.571v-73.143h420.571zM329.143 146.286q14.857 0 25.714 10.857t10.857 25.714v146.286q0 14.857-10.857 25.714t-25.714 10.857h-146.286q-14.857 0-25.714-10.857t-10.857-25.714v-146.286q0-14.857 10.857-25.714t25.714-10.857h146.286zM694.857 438.857q14.857 0 25.714 10.857t10.857 25.714v146.286q0 14.857-10.857 25.714t-25.714 10.857h-146.286q-14.857 0-25.714-10.857t-10.857-25.714v-146.286q0-14.857 10.857-25.714t25.714-10.857h146.286zM877.714 512v73.143h-128v-73.143h128zM877.714 219.429v73.143h-493.714v-73.143h493.714z"></path>
</symbol>
</defs>
</svg>
