<?xml version="1.0" encoding="UTF-8" standalone="no"?>
<!DOCTYPE svg PUBLIC "-//W3C//DTD SVG 1.1//EN" "http://www.w3.org/Graphics/SVG/1.1/DTD/svg11.dtd">
<svg width="100%" height="100%" viewBox="0 0 32 32" version="1.1" xmlns="http://www.w3.org/2000/svg" xmlns:xlink="http://www.w3.org/1999/xlink" xml:space="preserve" style="fill-rule:evenodd;clip-rule:evenodd;stroke-linejoin:round;stroke-miterlimit:1.41421;">
    <path d="M11,24.5l0,-3c0,-0.146 -0.047,-0.266 -0.141,-0.359c-0.094,-0.093 -0.214,-0.14 -0.359,-0.141l-5,0c-0.146,0 -0.266,0.047 -0.359,0.141c-0.093,0.094 -0.14,0.214 -0.141,0.359l0,3c0,0.146 0.047,0.266 0.141,0.359c0.094,0.093 0.214,0.14 0.359,0.141l5,0c0.146,0 0.266,-0.047 0.359,-0.141c0.093,-0.094 0.14,-0.214 0.141,-0.359ZM11,18.5l0,-3c0,-0.146 -0.047,-0.266 -0.141,-0.359c-0.094,-0.093 -0.214,-0.14 -0.359,-0.141l-5,0c-0.146,0 -0.266,0.047 -0.359,0.141c-0.093,0.094 -0.14,0.214 -0.141,0.359l0,3c0,0.146 0.047,0.266 0.141,0.359c0.094,0.093 0.214,0.14 0.359,0.141l5,0c0.146,0 0.266,-0.047 0.359,-0.141c0.093,-0.094 0.14,-0.214 0.141,-0.359ZM19,24.5l0,-3c0,-0.146 -0.047,-0.266 -0.141,-0.359c-0.094,-0.093 -0.214,-0.14 -0.359,-0.141l-5,0c-0.146,0 -0.266,0.047 -0.359,0.141c-0.093,0.094 -0.14,0.214 -0.141,0.359l0,3c0,0.146 0.047,0.266 0.141,0.359c0.094,0.093 0.214,0.14 0.359,0.141l5,0c0.146,0 0.266,-0.047 0.359,-0.141c0.093,-0.094 0.14,-0.214 0.141,-0.359ZM11,12.5l0,-3c0,-0.146 -0.047,-0.266 -0.141,-0.359c-0.094,-0.093 -0.214,-0.14 -0.359,-0.141l-5,0c-0.146,0 -0.266,0.047 -0.359,0.141c-0.093,0.094 -0.14,0.214 -0.141,0.359l0,3c0,0.146 0.047,0.266 0.141,0.359c0.094,0.093 0.214,0.14 0.359,0.141l5,0c0.146,0 0.266,-0.047 0.359,-0.141c0.093,-0.094 0.14,-0.214 0.141,-0.359ZM19,18.5l0,-3c0,-0.146 -0.047,-0.266 -0.141,-0.359c-0.094,-0.093 -0.214,-0.14 -0.359,-0.141l-5,0c-0.146,0 -0.266,0.047 -0.359,0.141c-0.093,0.094 -0.14,0.214 -0.141,0.359l0,3c0,0.146 0.047,0.266 0.141,0.359c0.094,0.093 0.214,0.14 0.359,0.141l5,0c0.146,0 0.266,-0.047 0.359,-0.141c0.093,-0.094 0.14,-0.214 0.141,-0.359ZM27,24.5l0,-3c0,-0.146 -0.047,-0.266 -0.141,-0.359c-0.094,-0.093 -0.214,-0.14 -0.359,-0.141l-5,0c-0.146,0 -0.266,0.047 -0.359,0.141c-0.093,0.094 -0.14,0.214 -0.141,0.359l0,3c0,0.146 0.047,0.266 0.141,0.359c0.094,0.093 0.214,0.14 0.359,0.141l5,0c0.146,0 0.266,-0.047 0.359,-0.141c0.093,-0.094 0.14,-0.214 0.141,-0.359ZM19,12.5l0,-3c0,-0.146 -0.047,-0.266 -0.141,-0.359c-0.094,-0.093 -0.214,-0.14 -0.359,-0.141l-5,0c-0.146,0 -0.266,0.047 -0.359,0.141c-0.093,0.094 -0.14,0.214 -0.141,0.359l0,3c0,0.146 0.047,0.266 0.141,0.359c0.094,0.093 0.214,0.14 0.359,0.141l5,0c0.146,0 0.266,-0.047 0.359,-0.141c0.093,-0.094 0.14,-0.214 0.141,-0.359ZM27,18.5l0,-3c0,-0.146 -0.047,-0.266 -0.141,-0.359c-0.094,-0.093 -0.214,-0.14 -0.359,-0.141l-5,0c-0.146,0 -0.266,0.047 -0.359,0.141c-0.093,0.094 -0.14,0.214 -0.141,0.359l0,3c0,0.146 0.047,0.266 0.141,0.359c0.094,0.093 0.214,0.14 0.359,0.141l5,0c0.146,0 0.266,-0.047 0.359,-0.141c0.093,-0.094 0.14,-0.214 0.141,-0.359ZM27,12.5l0,-3c0,-0.146 -0.047,-0.266 -0.141,-0.359c-0.094,-0.093 -0.214,-0.14 -0.359,-0.141l-5,0c-0.146,0 -0.266,0.047 -0.359,0.141c-0.093,0.094 -0.14,0.214 -0.141,0.359l0,3c0,0.146 0.047,0.266 0.141,0.359c0.094,0.093 0.214,0.14 0.359,0.141l5,0c0.146,0 0.266,-0.047 0.359,-0.141c0.093,-0.094 0.14,-0.214 0.141,-0.359ZM29,7.5l0,17c0,0.687 -0.245,1.276 -0.734,1.766c-0.489,0.49 -1.078,0.735 -1.766,0.734l-21,0c-0.687,0 -1.276,-0.245 -1.766,-0.734c-0.49,-0.489 -0.735,-1.078 -0.734,-1.766l0,-17c0,-0.687 0.245,-1.276 0.734,-1.766c0.489,-0.49 1.078,-0.735 1.766,-0.734l21,0c0.687,0 1.276,0.245 1.766,0.734c0.49,0.489 0.735,1.078 0.734,1.766Z" style="fill-rule:nonzero;stroke-opacity:0"/>
</svg>
