<?xml version="1.0" encoding="UTF-8" standalone="no"?>
<!DOCTYPE svg PUBLIC "-//W3C//DTD SVG 1.1//EN" "http://www.w3.org/Graphics/SVG/1.1/DTD/svg11.dtd">
<svg width="100%" height="100%" viewBox="0 0 32 32" version="1.1" xmlns="http://www.w3.org/2000/svg" xmlns:xlink="http://www.w3.org/1999/xlink" xml:space="preserve" style="fill-rule:evenodd;clip-rule:evenodd;stroke-linejoin:round;stroke-miterlimit:1.41421;">
    <path d="M25.941,22.118c0,-0.425 -0.149,-0.786 -0.446,-1.083l-3.314,-3.314c-0.297,-0.297 -0.658,-0.446 -1.083,-0.446c-0.446,0 -0.828,0.17 -1.147,0.509c0.032,0.032 0.133,0.131 0.302,0.295c0.17,0.164 0.284,0.278 0.343,0.342c0.059,0.065 0.139,0.165 0.239,0.303c0.101,0.137 0.17,0.273 0.207,0.406c0.037,0.133 0.056,0.279 0.056,0.438c0,0.425 -0.148,0.786 -0.446,1.083c-0.297,0.297 -0.658,0.446 -1.083,0.446c-0.159,0 -0.305,-0.019 -0.438,-0.056c-0.133,-0.038 -0.268,-0.107 -0.406,-0.207c-0.138,-0.101 -0.239,-0.18 -0.302,-0.239c-0.064,-0.059 -0.178,-0.173 -0.343,-0.343c-0.165,-0.169 -0.263,-0.27 -0.294,-0.302c-0.351,0.329 -0.526,0.717 -0.526,1.163c0,0.425 0.149,0.786 0.446,1.083l3.282,3.298c0.287,0.286 0.648,0.43 1.084,0.43c0.424,0 0.785,-0.138 1.083,-0.414l2.342,-2.326c0.297,-0.298 0.446,-0.653 0.446,-1.067l-0.002,0.001ZM14.741,10.886c0,-0.425 -0.149,-0.786 -0.446,-1.083l-3.283,-3.298c-0.297,-0.297 -0.658,-0.446 -1.083,-0.446c-0.414,0 -0.775,0.144 -1.083,0.43l-2.342,2.326c-0.297,0.298 -0.446,0.653 -0.446,1.067c0,0.425 0.149,0.786 0.446,1.083l3.314,3.314c0.287,0.287 0.648,0.43 1.083,0.43c0.446,0 0.828,-0.165 1.147,-0.494c-0.032,-0.032 -0.133,-0.131 -0.302,-0.295c-0.17,-0.164 -0.284,-0.278 -0.343,-0.342c-0.059,-0.065 -0.138,-0.165 -0.239,-0.303c-0.1,-0.137 -0.169,-0.272 -0.207,-0.406c-0.037,-0.133 -0.056,-0.279 -0.056,-0.438c0,-0.424 0.149,-0.785 0.446,-1.083c0.297,-0.297 0.658,-0.446 1.083,-0.446c0.159,0 0.305,0.019 0.438,0.056c0.133,0.038 0.268,0.107 0.406,0.207c0.138,0.101 0.239,0.18 0.302,0.239c0.064,0.059 0.178,0.173 0.343,0.343c0.165,0.169 0.263,0.27 0.294,0.302c0.351,-0.329 0.526,-0.717 0.526,-1.163l0.002,0ZM29,22.118c0,1.274 -0.451,2.352 -1.354,3.234l-2.342,2.326c-0.882,0.881 -1.96,1.322 -3.234,1.322c-1.286,0 -2.369,-0.451 -3.25,-1.354l-3.283,-3.298c-0.881,-0.881 -1.322,-1.959 -1.322,-3.234c0,-1.306 0.467,-2.416 1.402,-3.33l-1.402,-1.401c-0.913,0.934 -2.018,1.401 -3.313,1.401c-1.275,0 -2.358,-0.446 -3.25,-1.338l-3.314,-3.313c-0.892,-0.893 -1.338,-1.976 -1.338,-3.251c0,-1.274 0.451,-2.352 1.354,-3.234l2.342,-2.326c0.882,-0.881 1.96,-1.322 3.234,-1.322c1.286,0 2.369,0.451 3.25,1.354l3.283,3.298c0.881,0.881 1.322,1.959 1.322,3.234c0,1.306 -0.467,2.416 -1.402,3.33l1.402,1.401c0.913,-0.934 2.018,-1.401 3.313,-1.401c1.275,0 2.358,0.446 3.25,1.338l3.314,3.313c0.892,0.893 1.338,1.976 1.338,3.251l0,0Z" style="fill-rule:nonzero;stroke-opacity:0"/>
</svg>
