<?xml version="1.0" encoding="UTF-8" standalone="no"?>
<!DOCTYPE svg PUBLIC "-//W3C//DTD SVG 1.1//EN" "http://www.w3.org/Graphics/SVG/1.1/DTD/svg11.dtd">
<svg width="100%" height="100%" viewBox="0 0 32 32" version="1.1" xmlns="http://www.w3.org/2000/svg" xmlns:xlink="http://www.w3.org/1999/xlink" xml:space="preserve" style="fill-rule:evenodd;clip-rule:evenodd;stroke-linejoin:round;stroke-miterlimit:1.41421;">
    <path d="M16,24.242c2.287,0 4.232,-0.802 5.836,-2.406c1.605,-1.605 2.407,-3.55 2.407,-5.836c0,-2.287 -0.802,-4.232 -2.407,-5.836c-1.604,-1.605 -3.549,-2.407 -5.836,-2.407c-2.286,0 -4.231,0.802 -5.836,2.407c-1.604,1.604 -2.406,3.549 -2.406,5.836c0,2.286 0.802,4.231 2.406,5.836c1.605,1.604 3.55,2.406 5.836,2.406ZM26.566,14.838l2.434,0l0,2.324l-2.434,0c-0.258,2.471 -1.273,4.591 -3.043,6.361c-1.77,1.77 -3.89,2.785 -6.361,3.043l0,2.434l-2.324,0l0,-2.434c-2.471,-0.258 -4.591,-1.273 -6.361,-3.043c-1.77,-1.77 -2.785,-3.89 -3.043,-6.361l-2.434,0l0,-2.324l2.434,0c0.258,-2.471 1.273,-4.591 3.043,-6.361c1.77,-1.77 3.89,-2.785 6.361,-3.043l0,-2.434l2.324,0l0,2.434c2.471,0.258 4.591,1.273 6.361,3.043c1.77,1.77 2.785,3.89 3.043,6.361l0,0ZM16,11.298c1.291,0 2.398,0.461 3.319,1.384c0.922,0.922 1.383,2.028 1.384,3.318c0,1.291 -0.461,2.397 -1.384,3.319c-0.922,0.923 -2.029,1.384 -3.319,1.384c-1.289,0 -2.396,-0.461 -3.318,-1.384c-0.923,-0.922 -1.384,-2.028 -1.384,-3.319c0.001,-1.29 0.462,-2.396 1.384,-3.318c0.921,-0.923 2.027,-1.384 3.318,-1.384Z" style="fill-rule:nonzero;stroke-opacity:0"/>
</svg>
