<?xml version="1.0" encoding="UTF-8" standalone="no"?>
<!DOCTYPE svg PUBLIC "-//W3C//DTD SVG 1.1//EN" "http://www.w3.org/Graphics/SVG/1.1/DTD/svg11.dtd">
<svg width="100%" height="100%" viewBox="0 0 32 32" version="1.1" xmlns="http://www.w3.org/2000/svg" xmlns:xlink="http://www.w3.org/1999/xlink" xml:space="preserve" style="fill-rule:evenodd;clip-rule:evenodd;stroke-linejoin:round;stroke-miterlimit:1.41421;">
    <path d="M26.922,6.609c0.177,0.427 0.104,0.792 -0.219,1.094l-7.703,7.703l0,11.594c0,0.437 -0.203,0.745 -0.609,0.922c-0.135,0.052 -0.266,0.078 -0.391,0.078c-0.281,0 -0.516,-0.099 -0.703,-0.297l-4,-4c-0.198,-0.198 -0.297,-0.432 -0.297,-0.703l0,-7.594l-7.703,-7.703c-0.323,-0.302 -0.396,-0.667 -0.219,-1.094c0.177,-0.406 0.485,-0.609 0.922,-0.609l20,0c0.437,0 0.745,0.203 0.922,0.609l0,0Z" style="fill-rule:nonzero;stroke-opacity:0"/>
</svg>
