<?xml version="1.0" encoding="UTF-8" standalone="no"?>
<!DOCTYPE svg PUBLIC "-//W3C//DTD SVG 1.1//EN" "http://www.w3.org/Graphics/SVG/1.1/DTD/svg11.dtd">
<svg width="100%" height="100%" viewBox="0 0 32 32" version="1.1" xmlns="http://www.w3.org/2000/svg" xmlns:xlink="http://www.w3.org/1999/xlink" xml:space="preserve" style="fill-rule:evenodd;clip-rule:evenodd;stroke-linejoin:round;stroke-miterlimit:1.41421;">
    <path d="M23,25c0,-0.271 -0.099,-0.505 -0.297,-0.703c-0.198,-0.198 -0.432,-0.297 -0.703,-0.297c-0.271,0 -0.505,0.099 -0.703,0.297c-0.198,0.198 -0.297,0.432 -0.297,0.703c0,0.271 0.099,0.505 0.297,0.703c0.198,0.198 0.432,0.297 0.703,0.297c0.271,0 0.505,-0.099 0.703,-0.297c0.198,-0.198 0.297,-0.432 0.297,-0.703ZM27,25c0,-0.271 -0.099,-0.505 -0.297,-0.703c-0.198,-0.198 -0.432,-0.297 -0.703,-0.297c-0.271,0 -0.505,0.099 -0.703,0.297c-0.198,0.198 -0.297,0.432 -0.297,0.703c0,0.271 0.099,0.505 0.297,0.703c0.198,0.198 0.432,0.297 0.703,0.297c0.271,0 0.505,-0.099 0.703,-0.297c0.198,-0.198 0.297,-0.432 0.297,-0.703ZM29,21.5l0,5c0,0.417 -0.146,0.771 -0.438,1.062c-0.292,0.291 -0.646,0.437 -1.062,0.438l-23,0c-0.417,0 -0.771,-0.146 -1.062,-0.438c-0.291,-0.292 -0.437,-0.646 -0.438,-1.062l0,-5c0,-0.417 0.146,-0.771 0.438,-1.062c0.292,-0.291 0.646,-0.437 1.062,-0.438l7.266,0l2.109,2.125c0.604,0.583 1.312,0.875 2.125,0.875c0.813,0 1.521,-0.292 2.125,-0.875l2.125,-2.125l7.25,0c0.417,0 0.771,0.146 1.062,0.438c0.291,0.292 0.437,0.646 0.438,1.062ZM23.922,12.609c0.177,0.427 0.104,0.792 -0.219,1.094l-7,7c-0.187,0.198 -0.422,0.297 -0.703,0.297c-0.281,0 -0.516,-0.099 -0.703,-0.297l-7,-7c-0.323,-0.302 -0.396,-0.667 -0.219,-1.094c0.177,-0.406 0.485,-0.609 0.922,-0.609l4,0l0,-7c0,-0.271 0.099,-0.505 0.297,-0.703c0.198,-0.198 0.432,-0.297 0.703,-0.297l4,0c0.271,0 0.505,0.099 0.703,0.297c0.198,0.198 0.297,0.432 0.297,0.703l0,7l4,0c0.437,0 0.745,0.203 0.922,0.609Z" style="fill-rule:nonzero;stroke-opacity:0"/>
</svg>
