<?xml version="1.0" encoding="UTF-8" standalone="no"?>
<!DOCTYPE svg PUBLIC "-//W3C//DTD SVG 1.1//EN" "http://www.w3.org/Graphics/SVG/1.1/DTD/svg11.dtd">
<svg width="100%" height="100%" viewBox="0 0 32 32" version="1.1" xmlns="http://www.w3.org/2000/svg" xmlns:xlink="http://www.w3.org/1999/xlink" xml:space="preserve" style="fill-rule:evenodd;clip-rule:evenodd;stroke-linejoin:round;stroke-miterlimit:1.41421;">
    <path d="M9.229,26.803l1.562,-1.561l-4.032,-4.033l-1.562,1.562l0,1.836l2.197,0l0,2.197l1.836,0l-0.001,-0.001ZM18.205,10.877c0,-0.251 -0.126,-0.377 -0.378,-0.377c-0.115,0 -0.212,0.04 -0.292,0.12l-9.302,9.301c-0.08,0.08 -0.12,0.178 -0.12,0.293c0,0.251 0.126,0.377 0.377,0.377c0.115,0 0.212,-0.04 0.293,-0.12l9.301,-9.301c0.081,-0.081 0.121,-0.178 0.121,-0.293ZM17.278,7.583l7.14,7.139l-14.278,14.278l-7.14,0l0,-7.139l14.278,-14.278l0,0ZM29,9.23c0,0.606 -0.212,1.121 -0.635,1.545l-2.849,2.848l-7.139,-7.139l2.848,-2.831c0.412,-0.435 0.927,-0.653 1.545,-0.653c0.606,0 1.126,0.218 1.561,0.653l4.033,4.016c0.423,0.445 0.635,0.966 0.635,1.561l0.001,0Z" style="fill-rule:nonzero;stroke-opacity: 0;"/>
</svg>
