<?xml version="1.0" encoding="UTF-8" standalone="no"?>
<!DOCTYPE svg PUBLIC "-//W3C//DTD SVG 1.1//EN" "http://www.w3.org/Graphics/SVG/1.1/DTD/svg11.dtd">
<svg width="100%" height="100%" viewBox="0 0 32 32" version="1.1" xmlns="http://www.w3.org/2000/svg" xmlns:xlink="http://www.w3.org/1999/xlink" xml:space="preserve" style="fill-rule:evenodd;clip-rule:evenodd;stroke-miterlimit:1.41421;">
    <path d="M9.23,26.804l1.562,-1.562l-4.033,-4.033l-1.562,1.562l0,1.836l2.196,0l0,2.198l1.838,0l-0.001,-0.001l0,0ZM18.205,10.878c0,-0.253 -0.126,-0.378 -0.378,-0.378c-0.114,0 -0.212,0.039 -0.292,0.12l-9.302,9.301c-0.08,0.08 -0.12,0.178 -0.12,0.293c0,0.251 0.126,0.378 0.377,0.378c0.116,0 0.213,-0.041 0.293,-0.121l9.302,-9.301c0.08,-0.081 0.12,-0.178 0.12,-0.292l0,0ZM17.278,7.583l7.14,7.139l-14.278,14.278l-7.14,0l0,-7.139l14.278,-14.278l0,0ZM29,9.23c0,0.606 -0.211,1.121 -0.634,1.544l-2.849,2.849l-7.14,-7.139l2.849,-2.832c0.411,-0.434 0.926,-0.652 1.544,-0.652c0.606,0 1.127,0.218 1.562,0.652l4.033,4.017c0.423,0.445 0.634,0.966 0.634,1.561l0.001,0Z" style="fill-rule:nonzero;stroke-opacity:0"/>
    <path d="M17,22.305l3.305,0l0,-3.305l3.39,0l0,3.305l3.305,0l0,3.39l-3.305,0l0,3.305l-3.39,0l0,-3.305l-3.305,0l0,-3.39Z" style="fill:currentColor;fill-rule:nonzero;stroke-width:1px;"/>
</svg>
