<?xml version="1.0" encoding="utf-8"?>
<!-- Generated by IcoMoon.io -->
<!DOCTYPE svg PUBLIC "-//W3C//DTD SVG 1.1//EN" "http://www.w3.org/Graphics/SVG/1.1/DTD/svg11.dtd">
<svg version="1.1" xmlns="http://www.w3.org/2000/svg" xmlns:xlink="http://www.w3.org/1999/xlink" width="28" height="28" viewBox="0 0 28 28">
<path fill="#444444" d="M13.875 18.5l1.813-1.813-2.375-2.375-1.813 1.813v0.875h1.5v1.5h0.875zM20.75 7.25q-0.25-0.25-0.516 0.016l-5.469 5.469q-0.266 0.266-0.016 0.516t0.516-0.016l5.469-5.469q0.266-0.266 0.016-0.516zM22 16.531v2.969q0 1.859-1.32 3.18t-3.18 1.32h-13q-1.859 0-3.18-1.32t-1.32-3.18v-13q0-1.859 1.32-3.18t3.18-1.32h13q0.984 0 1.828 0.391 0.234 0.109 0.281 0.359 0.047 0.266-0.141 0.453l-0.766 0.766q-0.219 0.219-0.5 0.125-0.359-0.094-0.703-0.094h-13q-1.031 0-1.766 0.734t-0.734 1.766v13q0 1.031 0.734 1.766t1.766 0.734h13q1.031 0 1.766-0.734t0.734-1.766v-1.969q0-0.203 0.141-0.344l1-1q0.234-0.234 0.547-0.109t0.313 0.453zM20.5 5l4.5 4.5-10.5 10.5h-4.5v-4.5zM27.438 7.063l-1.437 1.437-4.5-4.5 1.437-1.437q0.438-0.438 1.062-0.438t1.062 0.438l2.375 2.375q0.438 0.438 0.438 1.062t-0.438 1.062z"></path>
</svg>
