<?xml version="1.0" encoding="UTF-8" standalone="no"?>
<!DOCTYPE svg PUBLIC "-//W3C//DTD SVG 1.1//EN" "http://www.w3.org/Graphics/SVG/1.1/DTD/svg11.dtd">
<svg width="100%" height="100%" viewBox="0 0 32 32" version="1.1" xmlns="http://www.w3.org/2000/svg" xmlns:xlink="http://www.w3.org/1999/xlink" xml:space="preserve" style="fill-rule:evenodd;clip-rule:evenodd;stroke-linejoin:round;stroke-miterlimit:1.41421;">
    <g>
        <ellipse cx="16" cy="25.303" rx="13" ry="3.687" style="fill:none;stroke-width:1px;stroke-dasharray:1,1;"/>
        <path d="M19.005,10.857c0,-0.947 -0.293,-1.755 -0.881,-2.424c-0.587,-0.669 -1.295,-1.004 -2.125,-1.004c-0.83,0 -1.539,0.335 -2.126,1.004c-0.587,0.669 -0.881,1.477 -0.881,2.424c0,0.946 0.294,1.754 0.881,2.424c0.587,0.669 1.296,1.004 2.126,1.004c0.83,0 1.538,-0.335 2.125,-1.004c0.588,-0.67 0.881,-1.478 0.881,-2.424ZM22.012,10.857c0,0.973 -0.129,1.772 -0.387,2.397l-4.275,10.365c-0.126,0.294 -0.312,0.527 -0.558,0.697c-0.247,0.17 -0.511,0.254 -0.793,0.254c-0.282,-0.001 -0.546,-0.085 -0.792,-0.254c-0.247,-0.169 -0.429,-0.402 -0.546,-0.697l-4.287,-10.365c-0.258,-0.625 -0.388,-1.424 -0.388,-2.397c0,-1.893 0.588,-3.509 1.762,-4.848c1.175,-1.339 2.592,-2.008 4.252,-2.009c1.66,0 3.077,0.669 4.252,2.009c1.174,1.34 1.762,2.956 1.762,4.848l-0.002,0l0,0Z" style="fill-rule:nonzero;stroke-opacity:0"/>
    </g>
</svg>
