<?xml version="1.0" encoding="utf-8"?>
<!-- Generated by IcoMoon.io -->
<!DOCTYPE svg PUBLIC "-//W3C//DTD SVG 1.1//EN" "http://www.w3.org/Graphics/SVG/1.1/DTD/svg11.dtd">
<svg version="1.1" xmlns="http://www.w3.org/2000/svg" xmlns:xlink="http://www.w3.org/1999/xlink" width="30" height="28" viewBox="0 0 30 28">
<path fill="#444444" d="M10 9q0 1.25-0.875 2.125t-2.125 0.875-2.125-0.875-0.875-2.125 0.875-2.125 2.125-0.875 2.125 0.875 0.875 2.125zM26 15v7h-22v-3l5-5 2.5 2.5 8-8zM27.5 4h-25q-0.203 0-0.352 0.148t-0.148 0.352v19q0 0.203 0.148 0.352t0.352 0.148h25q0.203 0 0.352-0.148t0.148-0.352v-19q0-0.203-0.148-0.352t-0.352-0.148zM30 4.5v19q0 1.031-0.734 1.766t-1.766 0.734h-25q-1.031 0-1.766-0.734t-0.734-1.766v-19q0-1.031 0.734-1.766t1.766-0.734h25q1.031 0 1.766 0.734t0.734 1.766z"></path>
</svg>
