<?xml version="1.0" encoding="UTF-8" standalone="no"?>
<!DOCTYPE svg PUBLIC "-//W3C//DTD SVG 1.1//EN" "http://www.w3.org/Graphics/SVG/1.1/DTD/svg11.dtd">
<svg width="100%" height="100%" viewBox="0 0 32 32" version="1.1" xmlns="http://www.w3.org/2000/svg" xmlns:xlink="http://www.w3.org/1999/xlink" xml:space="preserve" style="fill-rule:evenodd;clip-rule:evenodd;stroke-linejoin:round;stroke-miterlimit:1.41421;">
    <path d="M21,24l0,2c0,0.271 -0.099,0.505 -0.297,0.703c-0.198,0.198 -0.432,0.297 -0.703,0.297l-8,0c-0.271,0 -0.505,-0.099 -0.703,-0.297c-0.198,-0.198 -0.297,-0.432 -0.297,-0.703l0,-2c0,-0.271 0.099,-0.505 0.297,-0.703c0.198,-0.198 0.432,-0.297 0.703,-0.297l1,0l0,-6l-1,0c-0.271,0 -0.505,-0.099 -0.703,-0.297c-0.198,-0.198 -0.297,-0.432 -0.297,-0.703l0,-2c0,-0.271 0.099,-0.505 0.297,-0.703c0.198,-0.198 0.432,-0.297 0.703,-0.297l6,0c0.271,0 0.505,0.099 0.703,0.297c0.198,0.198 0.297,0.432 0.297,0.703l0,9l1,0c0.271,0 0.505,0.099 0.703,0.297c0.198,0.198 0.297,0.432 0.297,0.703ZM19,6l0,3c0,0.271 -0.099,0.505 -0.297,0.703c-0.198,0.198 -0.432,0.297 -0.703,0.297l-4,0c-0.271,0 -0.505,-0.099 -0.703,-0.297c-0.198,-0.198 -0.297,-0.432 -0.297,-0.703l0,-3c0,-0.271 0.099,-0.505 0.297,-0.703c0.198,-0.198 0.432,-0.297 0.703,-0.297l4,0c0.271,0 0.505,0.099 0.703,0.297c0.198,0.198 0.297,0.432 0.297,0.703Z" style="fill-rule:nonzero;stroke-opacity:0"/>
</svg>
