<?xml version="1.0" encoding="UTF-8" standalone="no"?>
<!DOCTYPE svg PUBLIC "-//W3C//DTD SVG 1.1//EN" "http://www.w3.org/Graphics/SVG/1.1/DTD/svg11.dtd">
<svg width="100%" height="100%" viewBox="0 0 32 32" version="1.1" xmlns="http://www.w3.org/2000/svg" xmlns:xlink="http://www.w3.org/1999/xlink" xml:space="preserve" style="fill-rule:evenodd;clip-rule:evenodd;stroke-linejoin:round;stroke-miterlimit:1.41421;">
    <path d="M3,20.999l0,-9.999l1.231,0l0,4.601l1.22,0l0,-4.601l1.283,0l0,1.533l1.206,0l0,-1.533l1.245,0l0,3.066l1.232,0l0,-3.066l1.257,0l0,1.501l1.207,0l0,-1.501l1.283,0l0,3.066l1.206,0l0,-3.066l1.258,0l0,4.601l1.18,0l0,-4.601l1.296,0l0,1.501l1.22,0l0,-1.501l1.271,0l0,3.066l1.167,0l0,-3.066l1.297,0l0,1.501l1.193,0l0,-1.501l1.271,0l0,3.066l1.219,0l0,-3.066l1.258,0l0,10l-26,0l0,-0.001Z" style="fill-rule:nonzero;stroke-opacity:0"/>
</svg>
