<?xml version="1.0" encoding="utf-8"?>
<!-- Generated by IcoMoon.io -->
<!DOCTYPE svg PUBLIC "-//W3C//DTD SVG 1.1//EN" "http://www.w3.org/Graphics/SVG/1.1/DTD/svg11.dtd">
<svg version="1.1" xmlns="http://www.w3.org/2000/svg" xmlns:xlink="http://www.w3.org/1999/xlink" width="29" height="32" viewBox="0 0 29 32">
<path fill="#6c6c6c" d="M15.714 2.286q-0.821 0-1.411 0.589t-0.589 1.411v11.714h-0.571v-9.429q0-0.821-0.589-1.411t-1.411-0.589-1.411 0.589-0.589 1.411v14l-2.75-3.661q-0.679-0.911-1.821-0.911-0.946 0-1.616 0.67t-0.67 1.616q0 0.768 0.464 1.375l6.857 9.143q0.679 0.911 1.821 0.911h12.286q0.607 0 1.089-0.393t0.607-1l1.357-7.232q0.089-0.571 0.089-1.054v-8.893q0-0.821-0.589-1.411t-1.411-0.589-1.411 0.589-0.589 1.411v4.857h-0.571v-9.429q0-0.821-0.589-1.411t-1.411-0.589-1.411 0.589-0.589 1.411v9.429h-0.571v-11.714q0-0.821-0.589-1.411t-1.411-0.589zM15.714 0q1.214 0 2.241 0.634t1.58 1.723q0.339-0.071 0.75-0.071 1.768 0 3.027 1.259t1.259 3.027v0.304q1.875-0.107 3.223 1.143t1.348 3.125v8.893q0 0.714-0.143 1.482l-1.357 7.214q-0.25 1.411-1.366 2.339t-2.563 0.929h-12.286q-1.071 0-2.045-0.491t-1.616-1.33l-6.857-9.143q-0.911-1.214-0.911-2.75 0-1.893 1.339-3.232t3.232-1.339q1.393 0 2.286 0.607v-7.75q0-1.768 1.259-3.027t3.027-1.259q0.411 0 0.75 0.071 0.554-1.089 1.58-1.723t2.241-0.634z"></path>
</svg>
