<?xml version="1.0" encoding="UTF-8" standalone="no"?>
<!DOCTYPE svg PUBLIC "-//W3C//DTD SVG 1.1//EN" "http://www.w3.org/Graphics/SVG/1.1/DTD/svg11.dtd">
<svg width="100%" height="100%" viewBox="0 0 32 32" version="1.1" xmlns="http://www.w3.org/2000/svg" xmlns:xlink="http://www.w3.org/1999/xlink" xml:space="preserve" style="fill-rule:evenodd;clip-rule:evenodd;stroke-linejoin:round;stroke-miterlimit:1.41421;">
    <path d="M19,13.501l0,1c0,0.136 -0.049,0.253 -0.149,0.352c-0.099,0.099 -0.216,0.149 -0.351,0.149l-9,0c-0.135,0 -0.253,-0.05 -0.352,-0.149c-0.099,-0.099 -0.148,-0.216 -0.148,-0.352l0,-1c0,-0.135 0.049,-0.252 0.148,-0.352c0.099,-0.099 0.217,-0.148 0.352,-0.148l9,0c0.135,0 0.252,0.049 0.351,0.148c0.1,0.1 0.149,0.217 0.149,0.352l0,0ZM20.999,14.001c0,-1.927 -0.684,-3.576 -2.054,-4.945c-1.37,-1.37 -3.018,-2.055 -4.945,-2.055c-1.927,0 -3.576,0.685 -4.945,2.055c-1.37,1.369 -2.055,3.018 -2.055,4.945c0,1.927 0.685,3.575 2.055,4.945c1.369,1.37 3.018,2.054 4.945,2.054c1.927,0 3.575,-0.684 4.945,-2.054c1.37,-1.37 2.054,-3.018 2.054,-4.945ZM28.999,27c0,0.552 -0.195,1.023 -0.586,1.414c-0.391,0.391 -0.862,0.586 -1.414,0.586c-0.562,0 -1.031,-0.198 -1.406,-0.594l-5.359,-5.343c-1.864,1.291 -3.942,1.937 -6.234,1.937c-1.49,0 -2.914,-0.289 -4.273,-0.867c-1.359,-0.578 -2.531,-1.36 -3.516,-2.344c-0.985,-0.985 -1.766,-2.157 -2.344,-3.516c-0.578,-1.359 -0.867,-2.783 -0.867,-4.273c0,-1.49 0.289,-2.914 0.867,-4.273c0.578,-1.359 1.359,-2.531 2.344,-3.516c0.985,-0.985 2.157,-1.766 3.516,-2.344c1.359,-0.578 2.783,-0.867 4.273,-0.867c1.49,0 2.914,0.289 4.273,0.867c1.359,0.578 2.531,1.359 3.516,2.344c0.984,0.985 1.766,2.157 2.344,3.516c0.578,1.359 0.867,2.783 0.867,4.273c0,2.292 -0.646,4.37 -1.937,6.234l5.359,5.359c0.385,0.386 0.578,0.854 0.578,1.406l-0.001,0.001Z" style="fill-rule:nonzero;stroke-opacity:0"/>
</svg>
