<?xml version="1.0" encoding="UTF-8" standalone="no"?>
<!DOCTYPE svg PUBLIC "-//W3C//DTD SVG 1.1//EN" "http://www.w3.org/Graphics/SVG/1.1/DTD/svg11.dtd">
<svg width="100%" height="100%" viewBox="0 0 32 32" version="1.1" xmlns="http://www.w3.org/2000/svg" xmlns:xlink="http://www.w3.org/1999/xlink" xml:space="preserve" style="fill-rule:evenodd;clip-rule:evenodd;stroke-linejoin:round;stroke-miterlimit:1.41421;">
    <path d="M24.687,18.133c0.323,0.291 0.396,0.624 0.219,1.001c-0.177,0.387 -0.484,0.58 -0.922,0.58l-5.962,0l3.137,6.907c0.104,0.241 0.104,0.478 0,0.711c-0.104,0.232 -0.281,0.401 -0.531,0.507l-2.763,1.088c-0.26,0.097 -0.515,0.097 -0.765,0c-0.25,-0.097 -0.432,-0.261 -0.546,-0.493l-2.982,-6.557l-4.87,4.526c-0.198,0.184 -0.432,0.275 -0.703,0.275c-0.125,0 -0.25,-0.024 -0.375,-0.072c-0.416,-0.165 -0.624,-0.45 -0.624,-0.856l0,-21.821c0,-0.407 0.208,-0.692 0.624,-0.857c0.125,-0.048 0.25,-0.072 0.375,-0.072c0.281,0 0.515,0.092 0.703,0.275l15.985,14.858Z" style="fill-rule:nonzero;stroke-opacity:0"/>
</svg>
