<?xml version="1.0" encoding="UTF-8" standalone="no"?>
<!DOCTYPE svg PUBLIC "-//W3C//DTD SVG 1.1//EN" "http://www.w3.org/Graphics/SVG/1.1/DTD/svg11.dtd">
<svg width="100%" height="100%" viewBox="0 0 32 32" version="1.1" xmlns="http://www.w3.org/2000/svg" xmlns:xlink="http://www.w3.org/1999/xlink" xml:space="preserve" style="fill-rule:evenodd;clip-rule:evenodd;stroke-linejoin:round;stroke-miterlimit:1.41421;">
    <path d="M29,16c0,0.251 -0.092,0.469 -0.275,0.653l-3.715,3.714c-0.183,0.184 -0.401,0.276 -0.653,0.276c-0.252,0 -0.47,-0.092 -0.653,-0.276c-0.184,-0.183 -0.276,-0.401 -0.276,-0.653l0,-1.857l-5.571,0l0,5.571l1.857,0c0.252,0 0.469,0.092 0.653,0.276c0.185,0.183 0.276,0.401 0.276,0.653c-0.001,0.252 -0.092,0.47 -0.276,0.653l-3.714,3.715c-0.183,0.183 -0.401,0.275 -0.653,0.275c-0.252,0 -0.47,-0.092 -0.653,-0.275l-3.714,-3.715c-0.184,-0.183 -0.276,-0.401 -0.276,-0.653c0,-0.252 0.092,-0.47 0.276,-0.653c0.183,-0.184 0.401,-0.276 0.653,-0.276l1.857,0l0,-5.571l-5.571,0l0,1.857c0,0.252 -0.092,0.469 -0.276,0.653c-0.183,0.185 -0.401,0.276 -0.653,0.276c-0.252,-0.001 -0.47,-0.092 -0.653,-0.276l-3.715,-3.714c-0.183,-0.183 -0.275,-0.401 -0.275,-0.653c0,-0.252 0.092,-0.47 0.275,-0.653l3.715,-3.714c0.183,-0.184 0.401,-0.276 0.653,-0.276c0.252,0 0.47,0.092 0.653,0.276c0.184,0.183 0.276,0.401 0.276,0.653l0,1.857l5.571,0l0,-5.571l-1.857,0c-0.252,0 -0.469,-0.092 -0.653,-0.276c-0.185,-0.183 -0.276,-0.401 -0.276,-0.653c0.001,-0.252 0.092,-0.47 0.276,-0.653l3.714,-3.715c0.183,-0.183 0.401,-0.275 0.653,-0.275c0.252,0 0.47,0.092 0.653,0.275l3.714,3.715c0.184,0.183 0.276,0.401 0.276,0.653c0,0.252 -0.092,0.47 -0.276,0.653c-0.183,0.184 -0.401,0.276 -0.653,0.276l-1.857,0l0,5.571l5.571,0l0,-1.857c0,-0.252 0.092,-0.469 0.276,-0.653c0.183,-0.185 0.401,-0.276 0.653,-0.276c0.252,0.001 0.47,0.092 0.653,0.276l3.715,3.714c0.183,0.183 0.275,0.401 0.275,0.653l0,0Z" style="fill-rule:nonzero;stroke-opacity:0"/>
</svg>
