<?xml version="1.0" encoding="UTF-8" standalone="no"?>
<!DOCTYPE svg PUBLIC "-//W3C//DTD SVG 1.1//EN" "http://www.w3.org/Graphics/SVG/1.1/DTD/svg11.dtd">
<svg width="100%" height="100%" viewBox="0 0 32 32" version="1.1" xmlns="http://www.w3.org/2000/svg" xmlns:xlink="http://www.w3.org/1999/xlink" xml:space="preserve" style="fill-rule:evenodd;clip-rule:evenodd;stroke-linejoin:round;stroke-miterlimit:1.41421;">
    <path d="M23.218,27.995l0,-1.947l-0.972,0l0,1.947l-0.973,0l0,-1.947l-0.975,0l0,1.947l-0.912,0l0,-2.92l-0.973,0l0,2.92l-0.973,0l0,-1.947l-0.973,0l0,1.947l-0.913,0l0,-1.947l-0.973,0l0,1.947l-0.974,0l0,-2.92l-0.973,0l0,2.92l-0.973,0l0,-1.947l-0.91,0l0,1.947l-0.973,0l0,-1.947l-0.974,0l0,1.947l-0.972,0l0,-2.92l-0.913,0l0,2.92l-2.919,0l0,-24l24,24l-4.782,0ZM7.832,13.196l0,10.906l10.904,0l-10.904,-10.906l0,0Z" style="fill-rule:nonzero;stroke-opacity:0"/>
</svg>
