<?xml version="1.0" encoding="UTF-8" standalone="no"?>
<!DOCTYPE svg PUBLIC "-//W3C//DTD SVG 1.1//EN" "http://www.w3.org/Graphics/SVG/1.1/DTD/svg11.dtd">
<svg width="100%" height="100%" viewBox="0 0 32 32" version="1.1" xmlns="http://www.w3.org/2000/svg" xmlns:xlink="http://www.w3.org/1999/xlink" xml:space="preserve" style="fill-rule:evenodd;clip-rule:evenodd;stroke-linejoin:round;stroke-miterlimit:1.41421;">
    <path d="M14.375,10.719c0,-0.671 0.548,-1.219 1.219,-1.219l0.812,0c0.671,0 1.219,0.548 1.219,1.219l0,0.812c0,0.671 -0.548,1.219 -1.219,1.219l-0.812,0c-0.671,0 -1.219,-0.548 -1.219,-1.219l0,-0.812Z" style="fill-rule:nonzero;stroke-opacity:0"/>
    <path d="M19.25,22.5l-6.5,0l0,-1.625l1.625,0l0,-4.875l-1.625,0l0,-1.625l4.875,0l0,6.5l1.625,0l0,1.625Z" style="fill-rule:nonzero;stroke-opacity:0"/>
    <path d="M16,3c-7.18,0 -13,5.82 -13,13c0,7.18 5.82,13 13,13c7.18,0 13,-5.82 13,-13c0,-7.18 -5.82,-13 -13,-13ZM16,26.563c-5.834,0 -10.563,-4.729 -10.563,-10.563c0.001,-5.834 4.729,-10.562 10.563,-10.562c5.834,0 10.563,4.728 10.563,10.562c-0.001,5.834 -4.729,10.563 -10.563,10.563Z" style="fill-rule:nonzero;stroke-opacity:0"/>
</svg>
