<?xml version="1.0" encoding="UTF-8" standalone="no"?>
<!DOCTYPE svg PUBLIC "-//W3C//DTD SVG 1.1//EN" "http://www.w3.org/Graphics/SVG/1.1/DTD/svg11.dtd">
<svg width="100%" height="100%" viewBox="0 0 32 32" version="1.1" xmlns="http://www.w3.org/2000/svg" xmlns:xlink="http://www.w3.org/1999/xlink" xml:space="preserve" style="fill-rule:evenodd;clip-rule:evenodd;stroke-linejoin:round;stroke-miterlimit:1.41421;">
    <path d="M9.001,26l13.999,0l0,-4l-13.999,0l0,4ZM9.001,16l13.999,0l0,-6l-2.5,0c-0.416,0 -0.77,-0.146 -1.062,-0.438c-0.291,-0.291 -0.437,-0.645 -0.437,-1.062l0,-2.5l-10,0l0,10l0,0ZM27.001,17c0,-0.271 -0.099,-0.505 -0.297,-0.704c-0.198,-0.198 -0.432,-0.297 -0.703,-0.296c-0.272,0 -0.506,0.099 -0.704,0.296c-0.198,0.197 -0.297,0.432 -0.297,0.704c0,0.272 0.099,0.506 0.297,0.703c0.198,0.197 0.432,0.296 0.704,0.297c0.271,0 0.505,-0.099 0.703,-0.297c0.198,-0.198 0.297,-0.433 0.297,-0.703ZM29,17l0,6.5c0,0.135 -0.05,0.253 -0.149,0.352c-0.099,0.099 -0.216,0.148 -0.351,0.148l-3.5,0l0,2.5c0,0.417 -0.146,0.771 -0.438,1.063c-0.292,0.291 -0.646,0.437 -1.062,0.437l-15,0c-0.416,0 -0.77,-0.146 -1.062,-0.437c-0.292,-0.292 -0.438,-0.646 -0.438,-1.063l0,-2.5l-3.5,0c-0.135,0 -0.252,-0.049 -0.351,-0.148c-0.099,-0.099 -0.149,-0.217 -0.149,-0.352l0,-6.5c0,-0.823 0.294,-1.529 0.883,-2.118c0.588,-0.588 1.294,-0.883 2.117,-0.883l1,0l0,-8.499c0,-0.417 0.146,-0.771 0.438,-1.063c0.292,-0.291 0.646,-0.437 1.062,-0.437l10.5,0c0.416,0 0.875,0.104 1.374,0.312c0.5,0.209 0.896,0.459 1.188,0.75l2.374,2.375c0.292,0.292 0.542,0.687 0.75,1.187c0.209,0.5 0.313,0.958 0.313,1.375l0,3.999l1,0c0.823,0 1.529,0.295 2.117,0.883c0.589,0.589 0.883,1.295 0.883,2.118l0.001,0.001Z" style="fill-rule:nonzero;stroke-opacity:0"/>
</svg>
