<?xml version="1.0" encoding="UTF-8" standalone="no"?>
<!DOCTYPE svg PUBLIC "-//W3C//DTD SVG 1.1//EN" "http://www.w3.org/Graphics/SVG/1.1/DTD/svg11.dtd">
<svg width="100%" height="100%" viewBox="0 0 32 32" version="1.1" xmlns="http://www.w3.org/2000/svg" xmlns:xlink="http://www.w3.org/1999/xlink" xml:space="preserve" style="fill-rule:evenodd;clip-rule:evenodd;stroke-linejoin:round;stroke-miterlimit:1.41421;">
    <path d="M27.607,8.571c0.387,0 0.716,0.136 0.987,0.407c0.271,0.271 0.406,0.599 0.406,0.986l0,17.643c0,0.387 -0.135,0.716 -0.406,0.987c-0.271,0.271 -0.6,0.406 -0.987,0.406l-13.929,0c-0.387,0 -0.715,-0.135 -0.986,-0.406c-0.271,-0.271 -0.406,-0.6 -0.406,-0.987l0,-4.178l-7.893,0c-0.387,0 -0.716,-0.136 -0.987,-0.407c-0.271,-0.271 -0.406,-0.599 -0.406,-0.986l0,-9.75c0,-0.387 0.097,-0.813 0.29,-1.277c0.193,-0.464 0.426,-0.832 0.696,-1.103l5.92,-5.92c0.271,-0.27 0.639,-0.503 1.103,-0.696c0.464,-0.193 0.89,-0.29 1.277,-0.29l6.036,0c0.387,0 0.715,0.135 0.986,0.406c0.271,0.271 0.406,0.6 0.406,0.987l0,4.759c0.658,-0.387 1.277,-0.581 1.858,-0.581l6.036,0l-0.001,0ZM19.714,11.662l-4.338,4.338l4.338,0l0,-4.338ZM10.428,6.091l-4.338,4.338l4.338,0l0,-4.338l0,0ZM13.272,15.478l4.585,-4.585l0,-6.036l-5.571,0l0,6.036c0,0.387 -0.136,0.715 -0.407,0.986c-0.271,0.271 -0.599,0.407 -0.986,0.407l-6.036,0l0,9.286l7.429,0l0,-3.714c0,-0.387 0.096,-0.812 0.29,-1.277c0.193,-0.464 0.425,-0.831 0.696,-1.102l0,-0.001ZM27.143,27.143l0,-16.714l-5.572,0l0,6.036c0,0.387 -0.135,0.716 -0.406,0.987c-0.271,0.27 -0.6,0.406 -0.987,0.406l-6.036,0l0,9.286l13.001,0l0,-0.001Z" style="fill-rule:nonzero;stroke-opacity:0"/>
</svg>
