<?xml version="1.0" encoding="UTF-8" standalone="no"?>
<!DOCTYPE svg PUBLIC "-//W3C//DTD SVG 1.1//EN" "http://www.w3.org/Graphics/SVG/1.1/DTD/svg11.dtd">
<svg width="100%" height="100%" viewBox="0 0 32 32" version="1.1" xmlns="http://www.w3.org/2000/svg" xmlns:xlink="http://www.w3.org/1999/xlink" xml:space="preserve" style="fill-rule:evenodd;clip-rule:evenodd;stroke-linejoin:round;stroke-miterlimit:1.41421;">
    <path d="M21,14c0,-1.927 -0.685,-3.576 -2.055,-4.945c-1.37,-1.369 -3.018,-2.054 -4.945,-2.055c-1.927,-0.001 -3.575,0.684 -4.945,2.055c-1.37,1.371 -2.055,3.019 -2.055,4.945c0,1.926 0.685,3.574 2.055,4.945c1.37,1.371 3.018,2.056 4.945,2.055c1.927,-0.001 3.575,-0.686 4.945,-2.055c1.37,-1.369 2.055,-3.018 2.055,-4.945ZM29,27c0,0.541 -0.198,1.01 -0.594,1.406c-0.396,0.396 -0.865,0.594 -1.406,0.594c-0.563,0 -1.031,-0.198 -1.406,-0.594l-5.359,-5.344c-1.865,1.291 -3.943,1.937 -6.234,1.937c-1.489,0 -2.914,-0.289 -4.273,-0.867c-1.359,-0.578 -2.531,-1.359 -3.516,-2.344c-0.985,-0.985 -1.766,-2.157 -2.344,-3.516c-0.578,-1.359 -0.867,-2.784 -0.867,-4.273c0,-1.489 0.289,-2.914 0.867,-4.273c0.578,-1.359 1.359,-2.531 2.344,-3.516c0.985,-0.985 2.157,-1.766 3.516,-2.344c1.359,-0.578 2.784,-0.867 4.273,-0.867c1.489,0 2.914,0.289 4.273,0.867c1.359,0.578 2.531,1.359 3.516,2.344c0.985,0.985 1.766,2.157 2.344,3.516c0.578,1.359 0.867,2.784 0.867,4.273c0,2.291 -0.646,4.369 -1.937,6.234l5.359,5.359c0.385,0.385 0.578,0.854 0.578,1.406l-0.001,0.002l0,0Z" style="fill-rule:nonzero;stroke-opacity:0"/>
</svg>
