<?xml version="1.0" encoding="utf-8"?>
<!-- Generated by IcoMoon.io -->
<!DOCTYPE svg PUBLIC "-//W3C//DTD SVG 1.1//EN" "http://www.w3.org/Graphics/SVG/1.1/DTD/svg11.dtd">
<svg version="1.1" xmlns="http://www.w3.org/2000/svg" xmlns:xlink="http://www.w3.org/1999/xlink" width="22" height="28" viewBox="0 0 22 28">
<path fill="#444444" d="M22 11.5v3q0 0.625-0.438 1.062t-1.062 0.438h-6.5v6.5q0 0.625-0.438 1.062t-1.062 0.438h-3q-0.625 0-1.062-0.438t-0.438-1.062v-6.5h-6.5q-0.625 0-1.062-0.438t-0.438-1.062v-3q0-0.625 0.438-1.062t1.062-0.438h6.5v-6.5q0-0.625 0.438-1.062t1.062-0.438h3q0.625 0 1.062 0.438t0.438 1.062v6.5h6.5q0.625 0 1.062 0.438t0.438 1.062z"></path>
</svg>
