<?xml version="1.0" encoding="UTF-8" standalone="no"?>
<!DOCTYPE svg PUBLIC "-//W3C//DTD SVG 1.1//EN" "http://www.w3.org/Graphics/SVG/1.1/DTD/svg11.dtd">
<svg width="100%" height="100%" viewBox="0 0 32 32" version="1.1" xmlns="http://www.w3.org/2000/svg" xmlns:xlink="http://www.w3.org/1999/xlink" xml:space="preserve" style="fill-rule:evenodd;clip-rule:evenodd;stroke-linejoin:round;stroke-miterlimit:1.41421;">
    <path d="M27,15.083l0,1.834c0,1.919 -0.47,3.647 -1.411,5.184c-0.94,1.537 -2.248,2.738 -3.924,3.603c-1.676,0.865 -3.564,1.297 -5.665,1.296c-2.101,-0.001 -3.989,-0.433 -5.665,-1.296c-1.676,-0.864 -2.984,-2.065 -3.924,-3.603c-0.941,-1.538 -1.411,-3.266 -1.411,-5.184l0,-1.834c0,-0.248 0.091,-0.463 0.272,-0.644c0.182,-0.182 0.397,-0.272 0.645,-0.272l5.5,0c0.248,0 0.463,0.09 0.644,0.272c0.182,0.181 0.272,0.396 0.272,0.644l0,1.834c0,0.496 0.112,0.925 0.337,1.288c0.224,0.363 0.479,0.636 0.766,0.817c0.287,0.182 0.626,0.325 1.017,0.43c0.391,0.105 0.696,0.167 0.916,0.186c0.22,0.019 0.431,0.029 0.631,0.029c0.2,0 0.411,-0.01 0.631,-0.029c0.22,-0.019 0.525,-0.081 0.916,-0.186c0.391,-0.105 0.73,-0.248 1.017,-0.43c0.287,-0.181 0.542,-0.454 0.766,-0.817c0.225,-0.363 0.337,-0.792 0.337,-1.288l0,-1.834c0,-0.248 0.09,-0.463 0.272,-0.644c0.181,-0.182 0.396,-0.272 0.644,-0.272l5.5,0c0.248,0 0.463,0.09 0.645,0.272c0.181,0.181 0.272,0.396 0.272,0.644l0,0ZM12.333,5.917l0,5.5c0,0.248 -0.09,0.463 -0.272,0.644c-0.181,0.182 -0.396,0.272 -0.644,0.272l-5.5,0c-0.248,0 -0.463,-0.09 -0.645,-0.272c-0.181,-0.181 -0.272,-0.396 -0.272,-0.644l0,-5.5c0,-0.248 0.091,-0.463 0.272,-0.645c0.182,-0.181 0.397,-0.272 0.645,-0.272l5.5,0c0.248,0 0.463,0.091 0.644,0.272c0.182,0.182 0.272,0.397 0.272,0.645ZM27,5.917l0,5.5c0,0.248 -0.091,0.463 -0.272,0.644c-0.182,0.182 -0.397,0.272 -0.645,0.272l-5.5,0c-0.248,0 -0.463,-0.09 -0.644,-0.272c-0.182,-0.181 -0.272,-0.396 -0.272,-0.644l0,-5.5c0,-0.248 0.09,-0.463 0.272,-0.645c0.181,-0.181 0.396,-0.272 0.644,-0.272l5.5,0c0.248,0 0.463,0.091 0.645,0.272c0.181,0.182 0.272,0.397 0.272,0.645Z" style="fill-rule:nonzero;stroke-opacity:0"/>
</svg>
