<?xml version="1.0" encoding="UTF-8" standalone="no"?>
<!DOCTYPE svg PUBLIC "-//W3C//DTD SVG 1.1//EN" "http://www.w3.org/Graphics/SVG/1.1/DTD/svg11.dtd">
<svg width="100%" height="100%" viewBox="0 0 32 32" version="1.1" xmlns="http://www.w3.org/2000/svg" xmlns:xlink="http://www.w3.org/1999/xlink" xml:space="preserve" style="fill-rule:evenodd;clip-rule:evenodd;stroke-linejoin:round;stroke-miterlimit:1.41421;">
    <path d="M14.796,17.112c-0.83,0.227 -1.715,0.35 -2.634,0.35c-4.72,0 -8.552,-3.24 -8.552,-7.231c0,-3.991 3.832,-7.231 8.552,-7.231c3.903,0 7.198,2.214 8.223,5.237c0.495,-0.135 1.009,-0.207 1.536,-0.207c3.934,0 7.127,3.968 7.127,8.856c0,4.887 -3.193,8.855 -7.127,8.855c-3.873,0 -7.028,-3.846 -7.125,-8.629Z" style="fill:currentColor;stroke-width:1px;stroke-dasharray:1,1;"/>
    <path d="M16.88,25.672c0.084,-1.894 -0.996,-3.476 -2.412,-3.534c-0.122,-0.004 -0.243,0.002 -0.362,0.02l0.101,-2.259l5.06,-1.999c0.452,-0.216 0.829,-0.582 1.039,-1.063c0.201,-0.46 0.216,-0.949 0.079,-1.392l-0.089,-0.206l-5.986,2.355l0.275,-6.182l-0.233,-0.01c-0.482,0.028 -0.958,0.209 -1.342,0.546c-0.402,0.353 -0.633,0.816 -0.691,1.296l-0.242,5.228l-2.187,0.86c-0.024,-0.112 -0.058,-0.223 -0.105,-0.331c-0.538,-1.253 -2.463,-1.684 -4.297,-0.963c-1.835,0.721 -2.886,2.321 -2.347,3.573c0.539,1.253 2.463,1.684 4.298,0.963l4.531,-1.791l-0.217,4.682c-0.084,1.894 0.996,3.476 2.412,3.533c1.416,0.058 2.631,-1.432 2.715,-3.326l0,0ZM6.854,21.213c-0.826,0.325 -1.542,0.272 -1.937,0.115l0,0c-0.128,-0.051 -0.294,-0.141 -0.352,-0.276c-0.064,-0.15 -0.003,-0.391 0.163,-0.644c0.27,-0.412 0.761,-0.779 1.345,-1.009c0.826,-0.325 1.542,-0.272 1.936,-0.115c0.129,0.051 0.295,0.141 0.353,0.276c0.064,0.15 0.003,0.391 -0.164,0.645c-0.27,0.411 -0.76,0.779 -1.344,1.008l0,0ZM12.727,19.751c-0.232,-0.156 -0.288,-0.462 -0.125,-0.684c0.163,-0.221 0.483,-0.275 0.715,-0.12c0.232,0.156 0.288,0.462 0.125,0.684c-0.162,0.221 -0.483,0.275 -0.715,0.12ZM14.808,27.162c-0.193,0.236 -0.409,0.373 -0.578,0.366c-0.153,-0.006 -0.297,-0.124 -0.392,-0.222l0,0c-0.289,-0.301 -0.585,-0.926 -0.547,-1.779c0.027,-0.603 0.221,-1.169 0.534,-1.552c0.193,-0.236 0.409,-0.373 0.578,-0.367c0.153,0.007 0.297,0.125 0.392,0.223c0.289,0.301 0.585,0.926 0.547,1.779c-0.027,0.603 -0.221,1.169 -0.534,1.552l0,0Z" style="fill-rule:nonzero;stroke-opacity:0"/>
    <path d="M15.013,16.414l5.483,-8.151" style="fill:none;stroke-width:1px;stroke-dasharray:1,1;"/>
</svg>
