<?xml version="1.0" encoding="utf-8"?>
<!-- Generated by IcoMoon.io -->
<!DOCTYPE svg PUBLIC "-//W3C//DTD SVG 1.1//EN" "http://www.w3.org/Graphics/SVG/1.1/DTD/svg11.dtd">
<svg version="1.1" xmlns="http://www.w3.org/2000/svg" xmlns:xlink="http://www.w3.org/1999/xlink" width="25" height="32" viewBox="0 0 25 32">
<path fill="#6c6c6c" d="M25.143 27.429q0 1.125-1.098 2.027t-2.929 1.446-4.018 0.821-4.527 0.277-4.527-0.277-4.018-0.821-2.929-1.446-1.098-2.027q0-0.875 0.589-1.58t1.625-1.188 2.107-0.795 2.339-0.527q0.464-0.089 0.857 0.188t0.464 0.741q0.089 0.464-0.188 0.857t-0.741 0.464q-1.036 0.179-1.893 0.42t-1.366 0.455-0.866 0.42-0.491 0.348-0.152 0.214q0.054 0.196 0.482 0.473t1.304 0.589 2.036 0.58 2.866 0.446 3.598 0.179 3.598-0.179 2.866-0.446 2.036-0.589 1.304-0.598 0.482-0.491q-0.018-0.071-0.152-0.196t-0.491-0.339-0.866-0.42-1.366-0.446-1.893-0.42q-0.464-0.071-0.741-0.464t-0.188-0.857q0.071-0.464 0.464-0.741t0.857-0.188q1.268 0.214 2.339 0.527t2.107 0.795 1.625 1.188 0.589 1.58zM18.286 11.429v6.857q0 0.464-0.339 0.804t-0.804 0.339h-1.143v6.857q0 0.464-0.339 0.804t-0.804 0.339h-4.571q-0.464 0-0.804-0.339t-0.339-0.804v-6.857h-1.143q-0.464 0-0.804-0.339t-0.339-0.804v-6.857q0-0.946 0.67-1.616t1.616-0.67h6.857q0.946 0 1.616 0.67t0.67 1.616zM16.571 4.571q0 1.661-1.17 2.83t-2.83 1.17-2.83-1.17-1.17-2.83 1.17-2.83 2.83-1.17 2.83 1.17 1.17 2.83z"></path>
</svg>
