<?xml version="1.0" encoding="UTF-8" standalone="no"?>
<!DOCTYPE svg PUBLIC "-//W3C//DTD SVG 1.1//EN" "http://www.w3.org/Graphics/SVG/1.1/DTD/svg11.dtd">
<svg width="100%" height="100%" viewBox="0 0 32 32" version="1.1" xmlns="http://www.w3.org/2000/svg" xmlns:xlink="http://www.w3.org/1999/xlink" xml:space="preserve" style="fill-rule:evenodd;clip-rule:evenodd;stroke-linejoin:round;stroke-miterlimit:1.41421;">
    <path d="M27,25.219c0,0.62 -0.32,1.179 -0.961,1.676c-0.64,0.498 -1.494,0.897 -2.562,1.197c-1.068,0.3 -2.24,0.526 -3.516,0.679c-1.276,0.153 -2.596,0.229 -3.961,0.229c-1.365,0 -2.685,-0.076 -3.961,-0.229c-1.276,-0.153 -2.448,-0.379 -3.516,-0.679c-1.068,-0.3 -1.922,-0.699 -2.562,-1.197c-0.641,-0.497 -0.961,-1.056 -0.961,-1.676c0,-0.483 0.172,-0.919 0.515,-1.307c0.344,-0.389 0.818,-0.717 1.422,-0.983c0.604,-0.267 1.219,-0.486 1.844,-0.658c0.624,-0.172 1.307,-0.317 2.046,-0.436c0.271,-0.049 0.521,0.003 0.75,0.156c0.229,0.152 0.365,0.357 0.406,0.613c0.052,0.256 -0.003,0.492 -0.164,0.709c-0.162,0.216 -0.378,0.344 -0.649,0.383c-0.604,0.099 -1.156,0.215 -1.656,0.348c-0.5,0.133 -0.898,0.258 -1.195,0.376c-0.297,0.118 -0.55,0.234 -0.758,0.348c-0.208,0.113 -0.351,0.209 -0.43,0.288c-0.078,0.078 -0.122,0.137 -0.133,0.177c0.032,0.108 0.172,0.238 0.422,0.391c0.25,0.153 0.63,0.315 1.141,0.487c0.511,0.172 1.105,0.332 1.782,0.48c0.676,0.148 1.512,0.271 2.507,0.369c0.995,0.098 2.045,0.148 3.148,0.148c1.104,0.001 2.153,-0.049 3.148,-0.148c0.995,-0.099 1.831,-0.222 2.508,-0.369c0.677,-0.147 1.27,-0.309 1.781,-0.487c0.511,-0.178 0.892,-0.343 1.141,-0.495c0.25,-0.152 0.391,-0.287 0.422,-0.406c-0.01,-0.039 -0.055,-0.093 -0.133,-0.162c-0.078,-0.069 -0.221,-0.163 -0.43,-0.281c-0.208,-0.118 -0.46,-0.234 -0.757,-0.347c-0.297,-0.114 -0.696,-0.237 -1.195,-0.369c-0.5,-0.132 -1.052,-0.248 -1.657,-0.348c-0.27,-0.039 -0.486,-0.167 -0.648,-0.383c-0.162,-0.217 -0.216,-0.453 -0.165,-0.709c0.042,-0.256 0.177,-0.461 0.406,-0.613c0.23,-0.153 0.48,-0.205 0.75,-0.156c0.74,0.118 1.422,0.263 2.047,0.436c0.625,0.173 1.239,0.392 1.843,0.658c0.605,0.266 1.079,0.593 1.422,0.983c0.344,0.389 0.516,0.825 0.516,1.307l0.003,0ZM21,11.982l0,5.673c0,0.256 -0.098,0.478 -0.296,0.665c-0.198,0.188 -0.432,0.281 -0.704,0.28l-1,0l0,5.673c0,0.256 -0.099,0.478 -0.296,0.665c-0.198,0.188 -0.433,0.281 -0.704,0.281l-3.999,0c-0.271,0 -0.505,-0.094 -0.704,-0.281c-0.198,-0.187 -0.297,-0.409 -0.296,-0.665l0,-5.673l-1,0c-0.271,0 -0.506,-0.093 -0.704,-0.28c-0.198,-0.187 -0.297,-0.409 -0.297,-0.665l0,-5.673c0,-0.521 0.196,-0.967 0.587,-1.336c0.391,-0.37 0.862,-0.555 1.414,-0.555l5.999,0c0.552,0 1.023,0.185 1.414,0.555c0.391,0.369 0.586,0.815 0.586,1.336l0,0ZM19.5,6.309c0,0.916 -0.341,1.696 -1.024,2.341c-0.682,0.645 -1.508,0.968 -2.476,0.968c-0.968,0.001 -1.794,-0.322 -2.476,-0.968c-0.683,-0.646 -1.024,-1.426 -1.024,-2.341c0,-0.915 0.341,-1.695 1.024,-2.341c0.682,-0.646 1.508,-0.969 2.476,-0.968c0.968,0.001 1.794,0.323 2.476,0.968c0.683,0.645 1.024,1.425 1.024,2.341Z" style="fill-rule:nonzero;stroke-opacity:0"/>
</svg>
