<?xml version="1.0" encoding="UTF-8" standalone="no"?>
<!DOCTYPE svg PUBLIC "-//W3C//DTD SVG 1.1//EN" "http://www.w3.org/Graphics/SVG/1.1/DTD/svg11.dtd">
<svg width="100%" height="100%" viewBox="0 0 32 32" version="1.1" xmlns="http://www.w3.org/2000/svg" xmlns:xlink="http://www.w3.org/1999/xlink" xml:space="preserve" style="fill-rule:evenodd;clip-rule:evenodd;stroke-linejoin:round;stroke-miterlimit:1.41421;">
    <path d="M6.714,23.5l0,3c0,0.135 -0.046,0.253 -0.137,0.352c-0.092,0.099 -0.201,0.149 -0.327,0.148l-2.786,0c-0.125,0 -0.234,-0.049 -0.327,-0.148c-0.092,-0.099 -0.138,-0.216 -0.137,-0.352l0,-3c0,-0.135 0.046,-0.253 0.137,-0.352c0.092,-0.099 0.201,-0.149 0.327,-0.148l2.786,0c0.126,0 0.235,0.049 0.327,0.148c0.092,0.099 0.138,0.216 0.137,0.352ZM6.714,17.5l0,3c0,0.135 -0.046,0.253 -0.137,0.352c-0.092,0.099 -0.201,0.149 -0.327,0.148l-2.786,0c-0.125,0 -0.234,-0.049 -0.327,-0.148c-0.092,-0.099 -0.138,-0.216 -0.137,-0.352l0,-3c0,-0.135 0.046,-0.253 0.137,-0.352c0.092,-0.099 0.201,-0.149 0.327,-0.148l2.786,0c0.126,0 0.235,0.049 0.327,0.148c0.092,0.099 0.138,0.216 0.137,0.352ZM6.714,11.5l0,3c0,0.135 -0.046,0.253 -0.137,0.352c-0.092,0.099 -0.201,0.149 -0.327,0.148l-2.786,0c-0.125,0 -0.234,-0.049 -0.327,-0.148c-0.092,-0.099 -0.138,-0.216 -0.137,-0.352l0,-3c0,-0.135 0.046,-0.253 0.137,-0.352c0.092,-0.099 0.201,-0.149 0.327,-0.148l2.786,0c0.126,0 0.235,0.049 0.327,0.148c0.092,0.099 0.138,0.216 0.137,0.352ZM29,23.5l0,3c0,0.135 -0.046,0.253 -0.137,0.352c-0.092,0.099 -0.201,0.149 -0.327,0.148l-19.5,0c-0.126,0 -0.235,-0.049 -0.327,-0.148c-0.092,-0.099 -0.138,-0.216 -0.138,-0.352l0,-3c0,-0.135 0.046,-0.253 0.138,-0.352c0.091,-0.099 0.2,-0.149 0.327,-0.148l19.5,0c0.125,0 0.234,0.049 0.327,0.148c0.092,0.099 0.138,0.216 0.137,0.352ZM6.714,5.5l0,3c0,0.135 -0.046,0.253 -0.137,0.352c-0.092,0.099 -0.201,0.149 -0.327,0.148l-2.786,0c-0.125,0 -0.234,-0.049 -0.327,-0.148c-0.092,-0.099 -0.138,-0.216 -0.137,-0.352l0,-3c0,-0.135 0.046,-0.253 0.137,-0.352c0.092,-0.099 0.201,-0.149 0.327,-0.148l2.786,0c0.126,0 0.235,0.049 0.327,0.148c0.092,0.099 0.138,0.216 0.137,0.352ZM29,17.5l0,3c0,0.135 -0.046,0.253 -0.137,0.352c-0.092,0.099 -0.201,0.149 -0.327,0.148l-19.5,0c-0.126,0 -0.235,-0.049 -0.327,-0.148c-0.092,-0.099 -0.138,-0.216 -0.138,-0.352l0,-3c0,-0.135 0.046,-0.253 0.138,-0.352c0.091,-0.099 0.2,-0.149 0.327,-0.148l19.5,0c0.125,0 0.234,0.049 0.327,0.148c0.092,0.099 0.138,0.216 0.137,0.352ZM29,11.5l0,3c0,0.135 -0.046,0.253 -0.137,0.352c-0.092,0.099 -0.201,0.149 -0.327,0.148l-19.5,0c-0.126,0 -0.235,-0.049 -0.327,-0.148c-0.092,-0.099 -0.138,-0.216 -0.138,-0.352l0,-3c0,-0.135 0.046,-0.253 0.138,-0.352c0.091,-0.099 0.2,-0.149 0.327,-0.148l19.5,0c0.125,0 0.234,0.049 0.327,0.148c0.092,0.099 0.138,0.216 0.137,0.352ZM29,5.5l0,3c0,0.135 -0.046,0.253 -0.137,0.352c-0.092,0.099 -0.201,0.149 -0.327,0.148l-19.5,0c-0.126,0 -0.235,-0.049 -0.327,-0.148c-0.092,-0.099 -0.138,-0.216 -0.138,-0.352l0,-3c0,-0.135 0.046,-0.253 0.138,-0.352c0.091,-0.099 0.2,-0.149 0.327,-0.148l19.5,0c0.125,0 0.234,0.049 0.327,0.148c0.092,0.099 0.138,0.216 0.137,0.352Z" style="fill-rule:nonzero;stroke-opacity:0"/>
</svg>
