<?xml version="1.0" encoding="utf-8"?>
<!-- Generated by IcoMoon.io -->
<!DOCTYPE svg PUBLIC "-//W3C//DTD SVG 1.1//EN" "http://www.w3.org/Graphics/SVG/1.1/DTD/svg11.dtd">
<svg version="1.1" xmlns="http://www.w3.org/2000/svg" xmlns:xlink="http://www.w3.org/1999/xlink" width="28" height="28" viewBox="0 0 28 28">
<path fill="#444444" d="M4 20.5v3q0 0.203-0.148 0.352t-0.352 0.148h-3q-0.203 0-0.352-0.148t-0.148-0.352v-3q0-0.203 0.148-0.352t0.352-0.148h3q0.203 0 0.352 0.148t0.148 0.352zM4 14.5v3q0 0.203-0.148 0.352t-0.352 0.148h-3q-0.203 0-0.352-0.148t-0.148-0.352v-3q0-0.203 0.148-0.352t0.352-0.148h3q0.203 0 0.352 0.148t0.148 0.352zM4 8.5v3q0 0.203-0.148 0.352t-0.352 0.148h-3q-0.203 0-0.352-0.148t-0.148-0.352v-3q0-0.203 0.148-0.352t0.352-0.148h3q0.203 0 0.352 0.148t0.148 0.352zM28 20.5v3q0 0.203-0.148 0.352t-0.352 0.148h-21q-0.203 0-0.352-0.148t-0.148-0.352v-3q0-0.203 0.148-0.352t0.352-0.148h21q0.203 0 0.352 0.148t0.148 0.352zM4 2.5v3q0 0.203-0.148 0.352t-0.352 0.148h-3q-0.203 0-0.352-0.148t-0.148-0.352v-3q0-0.203 0.148-0.352t0.352-0.148h3q0.203 0 0.352 0.148t0.148 0.352zM28 14.5v3q0 0.203-0.148 0.352t-0.352 0.148h-21q-0.203 0-0.352-0.148t-0.148-0.352v-3q0-0.203 0.148-0.352t0.352-0.148h21q0.203 0 0.352 0.148t0.148 0.352zM28 8.5v3q0 0.203-0.148 0.352t-0.352 0.148h-21q-0.203 0-0.352-0.148t-0.148-0.352v-3q0-0.203 0.148-0.352t0.352-0.148h21q0.203 0 0.352 0.148t0.148 0.352zM28 2.5v3q0 0.203-0.148 0.352t-0.352 0.148h-21q-0.203 0-0.352-0.148t-0.148-0.352v-3q0-0.203 0.148-0.352t0.352-0.148h21q0.203 0 0.352 0.148t0.148 0.352z"></path>
</svg>
