<?xml version="1.0" encoding="utf-8"?>
<!-- Generated by IcoMoon.io -->
<!DOCTYPE svg PUBLIC "-//W3C//DTD SVG 1.1//EN" "http://www.w3.org/Graphics/SVG/1.1/DTD/svg11.dtd">
<svg version="1.1" xmlns="http://www.w3.org/2000/svg" xmlns:xlink="http://www.w3.org/1999/xlink" width="26" height="28" viewBox="0 0 26 28">
<path fill="#444444" d="M20 21q0-0.406-0.297-0.703t-0.703-0.297-0.703 0.297-0.297 0.703 0.297 0.703 0.703 0.297 0.703-0.297 0.297-0.703zM24 21q0-0.406-0.297-0.703t-0.703-0.297-0.703 0.297-0.297 0.703 0.297 0.703 0.703 0.297 0.703-0.297 0.297-0.703zM26 17.5v5q0 0.625-0.438 1.062t-1.062 0.438h-23q-0.625 0-1.062-0.438t-0.438-1.062v-5q0-0.625 0.438-1.062t1.062-0.438h7.266l2.109 2.125q0.906 0.875 2.125 0.875t2.125-0.875l2.125-2.125h7.25q0.625 0 1.062 0.438t0.438 1.062zM20.922 8.609q0.266 0.641-0.219 1.094l-7 7q-0.281 0.297-0.703 0.297t-0.703-0.297l-7-7q-0.484-0.453-0.219-1.094 0.266-0.609 0.922-0.609h4v-7q0-0.406 0.297-0.703t0.703-0.297h4q0.406 0 0.703 0.297t0.297 0.703v7h4q0.656 0 0.922 0.609z"></path>
</svg>
