<?xml version="1.0" encoding="utf-8"?>
<!-- Generated by IcoMoon.io -->
<!DOCTYPE svg PUBLIC "-//W3C//DTD SVG 1.1//EN" "http://www.w3.org/Graphics/SVG/1.1/DTD/svg11.dtd">
<svg version="1.1" xmlns="http://www.w3.org/2000/svg" xmlns:xlink="http://www.w3.org/1999/xlink" width="24" height="28" viewBox="0 0 24 28">
<path fill="#444444" d="M5.5 22v2h-5.5v-2h5.5zM11 20q0.406 0 0.703 0.297t0.297 0.703v4q0 0.406-0.297 0.703t-0.703 0.297h-4q-0.406 0-0.703-0.297t-0.297-0.703v-4q0-0.406 0.297-0.703t0.703-0.297h4zM13.5 14v2h-13.5v-2h13.5zM3.5 6v2h-3.5v-2h3.5zM24 22v2h-11.5v-2h11.5zM9 4q0.406 0 0.703 0.297t0.297 0.703v4q0 0.406-0.297 0.703t-0.703 0.297h-4q-0.406 0-0.703-0.297t-0.297-0.703v-4q0-0.406 0.297-0.703t0.703-0.297h4zM19 12q0.406 0 0.703 0.297t0.297 0.703v4q0 0.406-0.297 0.703t-0.703 0.297h-4q-0.406 0-0.703-0.297t-0.297-0.703v-4q0-0.406 0.297-0.703t0.703-0.297h4zM24 14v2h-3.5v-2h3.5zM24 6v2h-13.5v-2h13.5z"></path>
</svg>
