<?xml version="1.0" encoding="UTF-8" standalone="no"?>
<!DOCTYPE svg PUBLIC "-//W3C//DTD SVG 1.1//EN" "http://www.w3.org/Graphics/SVG/1.1/DTD/svg11.dtd">
<svg width="100%" height="100%" viewBox="0 0 32 32" version="1.1" xmlns="http://www.w3.org/2000/svg" xmlns:xlink="http://www.w3.org/1999/xlink" xml:space="preserve" style="fill-rule:evenodd;clip-rule:evenodd;stroke-linejoin:round;stroke-miterlimit:1.41421;">
    <path d="M9.5,23l0,2l-5.5,0l0,-2l5.5,0ZM15,21c0.271,0 0.505,0.099 0.703,0.297c0.198,0.198 0.297,0.432 0.297,0.703l0,4c0,0.271 -0.099,0.505 -0.297,0.703c-0.198,0.198 -0.432,0.297 -0.703,0.297l-4,0c-0.271,0 -0.505,-0.099 -0.703,-0.297c-0.198,-0.198 -0.297,-0.432 -0.297,-0.703l0,-4c0,-0.271 0.099,-0.505 0.297,-0.703c0.198,-0.198 0.432,-0.297 0.703,-0.297l4,0ZM17.5,15l0,2l-13.5,0l0,-2l13.5,0ZM7.5,7l0,2l-3.5,0l0,-2l3.5,0ZM28,23l0,2l-11.5,0l0,-2l11.5,0ZM13,5c0.271,0 0.505,0.099 0.703,0.297c0.198,0.198 0.297,0.432 0.297,0.703l0,4c0,0.271 -0.099,0.505 -0.297,0.703c-0.198,0.198 -0.432,0.297 -0.703,0.297l-4,0c-0.271,0 -0.505,-0.099 -0.703,-0.297c-0.198,-0.198 -0.297,-0.432 -0.297,-0.703l0,-4c0,-0.271 0.099,-0.505 0.297,-0.703c0.198,-0.198 0.432,-0.297 0.703,-0.297l4,0ZM23,13c0.271,0 0.505,0.099 0.703,0.297c0.198,0.198 0.297,0.432 0.297,0.703l0,4c0,0.271 -0.099,0.505 -0.297,0.703c-0.198,0.198 -0.432,0.297 -0.703,0.297l-4,0c-0.271,0 -0.505,-0.099 -0.703,-0.297c-0.198,-0.198 -0.297,-0.432 -0.297,-0.703l0,-4c0,-0.271 0.099,-0.505 0.297,-0.703c0.198,-0.198 0.432,-0.297 0.703,-0.297l4,0ZM28,15l0,2l-3.5,0l0,-2l3.5,0ZM28,7l0,2l-13.5,0l0,-2l13.5,0Z" style="fill-rule:nonzero;stroke-opacity:0"/>
</svg>
