<svg viewBox="0 0 100 100" xmlns="http://www.w3.org/2000/svg"><symbol viewBox="0 0 32 32" id="icon-attributelist"> <path d="M11,24.5l0,-3c0,-0.146 -0.047,-0.266 -0.141,-0.359c-0.094,-0.093 -0.214,-0.14 -0.359,-0.141l-5,0c-0.146,0 -0.266,0.047 -0.359,0.141c-0.093,0.094 -0.14,0.214 -0.141,0.359l0,3c0,0.146 0.047,0.266 0.141,0.359c0.094,0.093 0.214,0.14 0.359,0.141l5,0c0.146,0 0.266,-0.047 0.359,-0.141c0.093,-0.094 0.14,-0.214 0.141,-0.359ZM11,18.5l0,-3c0,-0.146 -0.047,-0.266 -0.141,-0.359c-0.094,-0.093 -0.214,-0.14 -0.359,-0.141l-5,0c-0.146,0 -0.266,0.047 -0.359,0.141c-0.093,0.094 -0.14,0.214 -0.141,0.359l0,3c0,0.146 0.047,0.266 0.141,0.359c0.094,0.093 0.214,0.14 0.359,0.141l5,0c0.146,0 0.266,-0.047 0.359,-0.141c0.093,-0.094 0.14,-0.214 0.141,-0.359ZM19,24.5l0,-3c0,-0.146 -0.047,-0.266 -0.141,-0.359c-0.094,-0.093 -0.214,-0.14 -0.359,-0.141l-5,0c-0.146,0 -0.266,0.047 -0.359,0.141c-0.093,0.094 -0.14,0.214 -0.141,0.359l0,3c0,0.146 0.047,0.266 0.141,0.359c0.094,0.093 0.214,0.14 0.359,0.141l5,0c0.146,0 0.266,-0.047 0.359,-0.141c0.093,-0.094 0.14,-0.214 0.141,-0.359ZM11,12.5l0,-3c0,-0.146 -0.047,-0.266 -0.141,-0.359c-0.094,-0.093 -0.214,-0.14 -0.359,-0.141l-5,0c-0.146,0 -0.266,0.047 -0.359,0.141c-0.093,0.094 -0.14,0.214 -0.141,0.359l0,3c0,0.146 0.047,0.266 0.141,0.359c0.094,0.093 0.214,0.14 0.359,0.141l5,0c0.146,0 0.266,-0.047 0.359,-0.141c0.093,-0.094 0.14,-0.214 0.141,-0.359ZM19,18.5l0,-3c0,-0.146 -0.047,-0.266 -0.141,-0.359c-0.094,-0.093 -0.214,-0.14 -0.359,-0.141l-5,0c-0.146,0 -0.266,0.047 -0.359,0.141c-0.093,0.094 -0.14,0.214 -0.141,0.359l0,3c0,0.146 0.047,0.266 0.141,0.359c0.094,0.093 0.214,0.14 0.359,0.141l5,0c0.146,0 0.266,-0.047 0.359,-0.141c0.093,-0.094 0.14,-0.214 0.141,-0.359ZM27,24.5l0,-3c0,-0.146 -0.047,-0.266 -0.141,-0.359c-0.094,-0.093 -0.214,-0.14 -0.359,-0.141l-5,0c-0.146,0 -0.266,0.047 -0.359,0.141c-0.093,0.094 -0.14,0.214 -0.141,0.359l0,3c0,0.146 0.047,0.266 0.141,0.359c0.094,0.093 0.214,0.14 0.359,0.141l5,0c0.146,0 0.266,-0.047 0.359,-0.141c0.093,-0.094 0.14,-0.214 0.141,-0.359ZM19,12.5l0,-3c0,-0.146 -0.047,-0.266 -0.141,-0.359c-0.094,-0.093 -0.214,-0.14 -0.359,-0.141l-5,0c-0.146,0 -0.266,0.047 -0.359,0.141c-0.093,0.094 -0.14,0.214 -0.141,0.359l0,3c0,0.146 0.047,0.266 0.141,0.359c0.094,0.093 0.214,0.14 0.359,0.141l5,0c0.146,0 0.266,-0.047 0.359,-0.141c0.093,-0.094 0.14,-0.214 0.141,-0.359ZM27,18.5l0,-3c0,-0.146 -0.047,-0.266 -0.141,-0.359c-0.094,-0.093 -0.214,-0.14 -0.359,-0.141l-5,0c-0.146,0 -0.266,0.047 -0.359,0.141c-0.093,0.094 -0.14,0.214 -0.141,0.359l0,3c0,0.146 0.047,0.266 0.141,0.359c0.094,0.093 0.214,0.14 0.359,0.141l5,0c0.146,0 0.266,-0.047 0.359,-0.141c0.093,-0.094 0.14,-0.214 0.141,-0.359ZM27,12.5l0,-3c0,-0.146 -0.047,-0.266 -0.141,-0.359c-0.094,-0.093 -0.214,-0.14 -0.359,-0.141l-5,0c-0.146,0 -0.266,0.047 -0.359,0.141c-0.093,0.094 -0.14,0.214 -0.141,0.359l0,3c0,0.146 0.047,0.266 0.141,0.359c0.094,0.093 0.214,0.14 0.359,0.141l5,0c0.146,0 0.266,-0.047 0.359,-0.141c0.093,-0.094 0.14,-0.214 0.141,-0.359ZM29,7.5l0,17c0,0.687 -0.245,1.276 -0.734,1.766c-0.489,0.49 -1.078,0.735 -1.766,0.734l-21,0c-0.687,0 -1.276,-0.245 -1.766,-0.734c-0.49,-0.489 -0.735,-1.078 -0.734,-1.766l0,-17c0,-0.687 0.245,-1.276 0.734,-1.766c0.489,-0.49 1.078,-0.735 1.766,-0.734l21,0c0.687,0 1.276,0.245 1.766,0.734c0.49,0.489 0.735,1.078 0.734,1.766Z" style="fill-rule:nonzero;stroke-opacity:0"/> </symbol><symbol viewBox="0 0 32 32" id="icon-bookmark"> <path d="M25.941,22.118c0,-0.425 -0.149,-0.786 -0.446,-1.083l-3.314,-3.314c-0.297,-0.297 -0.658,-0.446 -1.083,-0.446c-0.446,0 -0.828,0.17 -1.147,0.509c0.032,0.032 0.133,0.131 0.302,0.295c0.17,0.164 0.284,0.278 0.343,0.342c0.059,0.065 0.139,0.165 0.239,0.303c0.101,0.137 0.17,0.273 0.207,0.406c0.037,0.133 0.056,0.279 0.056,0.438c0,0.425 -0.148,0.786 -0.446,1.083c-0.297,0.297 -0.658,0.446 -1.083,0.446c-0.159,0 -0.305,-0.019 -0.438,-0.056c-0.133,-0.038 -0.268,-0.107 -0.406,-0.207c-0.138,-0.101 -0.239,-0.18 -0.302,-0.239c-0.064,-0.059 -0.178,-0.173 -0.343,-0.343c-0.165,-0.169 -0.263,-0.27 -0.294,-0.302c-0.351,0.329 -0.526,0.717 -0.526,1.163c0,0.425 0.149,0.786 0.446,1.083l3.282,3.298c0.287,0.286 0.648,0.43 1.084,0.43c0.424,0 0.785,-0.138 1.083,-0.414l2.342,-2.326c0.297,-0.298 0.446,-0.653 0.446,-1.067l-0.002,0.001ZM14.741,10.886c0,-0.425 -0.149,-0.786 -0.446,-1.083l-3.283,-3.298c-0.297,-0.297 -0.658,-0.446 -1.083,-0.446c-0.414,0 -0.775,0.144 -1.083,0.43l-2.342,2.326c-0.297,0.298 -0.446,0.653 -0.446,1.067c0,0.425 0.149,0.786 0.446,1.083l3.314,3.314c0.287,0.287 0.648,0.43 1.083,0.43c0.446,0 0.828,-0.165 1.147,-0.494c-0.032,-0.032 -0.133,-0.131 -0.302,-0.295c-0.17,-0.164 -0.284,-0.278 -0.343,-0.342c-0.059,-0.065 -0.138,-0.165 -0.239,-0.303c-0.1,-0.137 -0.169,-0.272 -0.207,-0.406c-0.037,-0.133 -0.056,-0.279 -0.056,-0.438c0,-0.424 0.149,-0.785 0.446,-1.083c0.297,-0.297 0.658,-0.446 1.083,-0.446c0.159,0 0.305,0.019 0.438,0.056c0.133,0.038 0.268,0.107 0.406,0.207c0.138,0.101 0.239,0.18 0.302,0.239c0.064,0.059 0.178,0.173 0.343,0.343c0.165,0.169 0.263,0.27 0.294,0.302c0.351,-0.329 0.526,-0.717 0.526,-1.163l0.002,0ZM29,22.118c0,1.274 -0.451,2.352 -1.354,3.234l-2.342,2.326c-0.882,0.881 -1.96,1.322 -3.234,1.322c-1.286,0 -2.369,-0.451 -3.25,-1.354l-3.283,-3.298c-0.881,-0.881 -1.322,-1.959 -1.322,-3.234c0,-1.306 0.467,-2.416 1.402,-3.33l-1.402,-1.401c-0.913,0.934 -2.018,1.401 -3.313,1.401c-1.275,0 -2.358,-0.446 -3.25,-1.338l-3.314,-3.313c-0.892,-0.893 -1.338,-1.976 -1.338,-3.251c0,-1.274 0.451,-2.352 1.354,-3.234l2.342,-2.326c0.882,-0.881 1.96,-1.322 3.234,-1.322c1.286,0 2.369,0.451 3.25,1.354l3.283,3.298c0.881,0.881 1.322,1.959 1.322,3.234c0,1.306 -0.467,2.416 -1.402,3.33l1.402,1.401c0.913,-0.934 2.018,-1.401 3.313,-1.401c1.275,0 2.358,0.446 3.25,1.338l3.314,3.313c0.892,0.893 1.338,1.976 1.338,3.251l0,0Z" style="fill-rule:nonzero;stroke-opacity:0"/> </symbol><symbol viewBox="0 0 32 32" id="icon-buffer"> <g> <path d="M12.567,16.957c-0.832,0.41 -1.766,0.641 -2.752,0.641c-3.485,0 -6.315,-2.878 -6.315,-6.424c0,-3.546 2.83,-6.424 6.315,-6.424c2.626,0 4.88,1.634 5.832,3.956c1.342,-1.576 3.324,-2.573 5.533,-2.573c4.04,0 7.32,3.336 7.32,7.446c0,3.127 -1.899,5.806 -4.587,6.909c0.006,0.112 0.009,0.225 0.009,0.338c0,3.546 -2.83,6.424 -6.315,6.424c-3.485,0 -6.315,-2.878 -6.315,-6.424c0,-1.452 0.475,-2.793 1.275,-3.869Z" style="fill:currentColor;stroke-width:1px;stroke-dasharray:2.38,2.38"/> <ellipse cx="9.815" cy="11.174" rx="1.794" ry="1.825"/> <ellipse cx="21.18" cy="13.579" rx="2.727" ry="2.774"/> <ellipse cx="17.607" cy="20.826" rx="1.866" ry="1.898"/> </g> </symbol><symbol viewBox="0 0 32 32" id="icon-currentlocation"> <path d="M16,24.242c2.287,0 4.232,-0.802 5.836,-2.406c1.605,-1.605 2.407,-3.55 2.407,-5.836c0,-2.287 -0.802,-4.232 -2.407,-5.836c-1.604,-1.605 -3.549,-2.407 -5.836,-2.407c-2.286,0 -4.231,0.802 -5.836,2.407c-1.604,1.604 -2.406,3.549 -2.406,5.836c0,2.286 0.802,4.231 2.406,5.836c1.605,1.604 3.55,2.406 5.836,2.406ZM26.566,14.838l2.434,0l0,2.324l-2.434,0c-0.258,2.471 -1.273,4.591 -3.043,6.361c-1.77,1.77 -3.89,2.785 -6.361,3.043l0,2.434l-2.324,0l0,-2.434c-2.471,-0.258 -4.591,-1.273 -6.361,-3.043c-1.77,-1.77 -2.785,-3.89 -3.043,-6.361l-2.434,0l0,-2.324l2.434,0c0.258,-2.471 1.273,-4.591 3.043,-6.361c1.77,-1.77 3.89,-2.785 6.361,-3.043l0,-2.434l2.324,0l0,2.434c2.471,0.258 4.591,1.273 6.361,3.043c1.77,1.77 2.785,3.89 3.043,6.361l0,0ZM16,11.298c1.291,0 2.398,0.461 3.319,1.384c0.922,0.922 1.383,2.028 1.384,3.318c0,1.291 -0.461,2.397 -1.384,3.319c-0.922,0.923 -2.029,1.384 -3.319,1.384c-1.289,0 -2.396,-0.461 -3.318,-1.384c-0.923,-0.922 -1.384,-2.028 -1.384,-3.319c0.001,-1.29 0.462,-2.396 1.384,-3.318c0.921,-0.923 2.027,-1.384 3.318,-1.384Z" style="fill-rule:nonzero;stroke-opacity:0"/> </symbol><symbol viewBox="0 0 32 32" id="icon-dataselection"> <path d="M26.922,6.609c0.177,0.427 0.104,0.792 -0.219,1.094l-7.703,7.703l0,11.594c0,0.437 -0.203,0.745 -0.609,0.922c-0.135,0.052 -0.266,0.078 -0.391,0.078c-0.281,0 -0.516,-0.099 -0.703,-0.297l-4,-4c-0.198,-0.198 -0.297,-0.432 -0.297,-0.703l0,-7.594l-7.703,-7.703c-0.323,-0.302 -0.396,-0.667 -0.219,-1.094c0.177,-0.406 0.485,-0.609 0.922,-0.609l20,0c0.437,0 0.745,0.203 0.922,0.609l0,0Z" style="fill-rule:nonzero;stroke-opacity:0"/> </symbol><symbol viewBox="0 0 32 32" id="icon-drawing"> <path d="M9.229,26.803l1.562,-1.561l-4.032,-4.033l-1.562,1.562l0,1.836l2.197,0l0,2.197l1.836,0l-0.001,-0.001ZM18.205,10.877c0,-0.251 -0.126,-0.377 -0.378,-0.377c-0.115,0 -0.212,0.04 -0.292,0.12l-9.302,9.301c-0.08,0.08 -0.12,0.178 -0.12,0.293c0,0.251 0.126,0.377 0.377,0.377c0.115,0 0.212,-0.04 0.293,-0.12l9.301,-9.301c0.081,-0.081 0.121,-0.178 0.121,-0.293ZM17.278,7.583l7.14,7.139l-14.278,14.278l-7.14,0l0,-7.139l14.278,-14.278l0,0ZM29,9.23c0,0.606 -0.212,1.121 -0.635,1.545l-2.849,2.848l-7.139,-7.139l2.848,-2.831c0.412,-0.435 0.927,-0.653 1.545,-0.653c0.606,0 1.126,0.218 1.561,0.653l4.033,4.016c0.423,0.445 0.635,0.966 0.635,1.561l0.001,0Z" style="fill-rule:nonzero;stroke-opacity: 0;"/> </symbol><symbol viewBox="0 0 32 32" id="icon-edit"> <path d="M9.23,26.804l1.562,-1.562l-4.033,-4.033l-1.562,1.562l0,1.836l2.196,0l0,2.198l1.838,0l-0.001,-0.001l0,0ZM18.205,10.878c0,-0.253 -0.126,-0.378 -0.378,-0.378c-0.114,0 -0.212,0.039 -0.292,0.12l-9.302,9.301c-0.08,0.08 -0.12,0.178 -0.12,0.293c0,0.251 0.126,0.378 0.377,0.378c0.116,0 0.213,-0.041 0.293,-0.121l9.302,-9.301c0.08,-0.081 0.12,-0.178 0.12,-0.292l0,0ZM17.278,7.583l7.14,7.139l-14.278,14.278l-7.14,0l0,-7.139l14.278,-14.278l0,0ZM29,9.23c0,0.606 -0.211,1.121 -0.634,1.544l-2.849,2.849l-7.14,-7.139l2.849,-2.832c0.411,-0.434 0.926,-0.652 1.544,-0.652c0.606,0 1.127,0.218 1.562,0.652l4.033,4.017c0.423,0.445 0.634,0.966 0.634,1.561l0.001,0Z" style="fill-rule:nonzero;stroke-opacity:0"/> <path d="M17,22.305l3.305,0l0,-3.305l3.39,0l0,3.305l3.305,0l0,3.39l-3.305,0l0,3.305l-3.39,0l0,-3.305l-3.305,0l0,-3.39Z" style="fill:currentColor;fill-rule:nonzero;stroke-width:1px;"/> </symbol><symbol viewBox="0 0 32 28" id="icon-graph"> <path d="M11.125,14l0,6.667l-3.25,0l0,-6.667l3.25,0ZM16,7.333l0,13.334l-3.25,0l0,-13.334l3.25,0ZM29,22.333l0,1.667l-26,0l0,-20l1.625,0l0,18.333l24.375,0ZM20.875,10.667l0,10l-3.25,0l0,-10l3.25,0ZM25.75,5.667l0,15l-3.25,0l0,-15l3.25,0Z" style="fill-rule:nonzero;stroke-opacity:0"/> </symbol><symbol viewBox="0 0 32 32" id="icon-influenceimage"> <g> <ellipse cx="16" cy="25.303" rx="13" ry="3.687" style="fill:none;stroke-width:1px;stroke-dasharray:1,1;"/> <path d="M19.005,10.857c0,-0.947 -0.293,-1.755 -0.881,-2.424c-0.587,-0.669 -1.295,-1.004 -2.125,-1.004c-0.83,0 -1.539,0.335 -2.126,1.004c-0.587,0.669 -0.881,1.477 -0.881,2.424c0,0.946 0.294,1.754 0.881,2.424c0.587,0.669 1.296,1.004 2.126,1.004c0.83,0 1.538,-0.335 2.125,-1.004c0.588,-0.67 0.881,-1.478 0.881,-2.424ZM22.012,10.857c0,0.973 -0.129,1.772 -0.387,2.397l-4.275,10.365c-0.126,0.294 -0.312,0.527 -0.558,0.697c-0.247,0.17 -0.511,0.254 -0.793,0.254c-0.282,-0.001 -0.546,-0.085 -0.792,-0.254c-0.247,-0.169 -0.429,-0.402 -0.546,-0.697l-4.287,-10.365c-0.258,-0.625 -0.388,-1.424 -0.388,-2.397c0,-1.893 0.588,-3.509 1.762,-4.848c1.175,-1.339 2.592,-2.008 4.252,-2.009c1.66,0 3.077,0.669 4.252,2.009c1.174,1.34 1.762,2.956 1.762,4.848l-0.002,0l0,0Z" style="fill-rule:nonzero;stroke-opacity:0"/> </g> </symbol><symbol viewBox="0 0 32 32" id="icon-legend"> <path d="M21,24l0,2c0,0.271 -0.099,0.505 -0.297,0.703c-0.198,0.198 -0.432,0.297 -0.703,0.297l-8,0c-0.271,0 -0.505,-0.099 -0.703,-0.297c-0.198,-0.198 -0.297,-0.432 -0.297,-0.703l0,-2c0,-0.271 0.099,-0.505 0.297,-0.703c0.198,-0.198 0.432,-0.297 0.703,-0.297l1,0l0,-6l-1,0c-0.271,0 -0.505,-0.099 -0.703,-0.297c-0.198,-0.198 -0.297,-0.432 -0.297,-0.703l0,-2c0,-0.271 0.099,-0.505 0.297,-0.703c0.198,-0.198 0.432,-0.297 0.703,-0.297l6,0c0.271,0 0.505,0.099 0.703,0.297c0.198,0.198 0.297,0.432 0.297,0.703l0,9l1,0c0.271,0 0.505,0.099 0.703,0.297c0.198,0.198 0.297,0.432 0.297,0.703ZM19,6l0,3c0,0.271 -0.099,0.505 -0.297,0.703c-0.198,0.198 -0.432,0.297 -0.703,0.297l-4,0c-0.271,0 -0.505,-0.099 -0.703,-0.297c-0.198,-0.198 -0.297,-0.432 -0.297,-0.703l0,-3c0,-0.271 0.099,-0.505 0.297,-0.703c0.198,-0.198 0.432,-0.297 0.703,-0.297l4,0c0.271,0 0.505,0.099 0.703,0.297c0.198,0.198 0.297,0.432 0.297,0.703Z" style="fill-rule:nonzero;stroke-opacity:0"/> </symbol><symbol viewBox="0 0 32 32" id="icon-merge"> <ellipse cx="10.28" cy="9.34" rx="7.28" ry="6.34" style="fill:currentColor;stroke-width:1px;"/> <ellipse cx="22.933" cy="21.235" rx="6.067" ry="7.765" style="fill:currentColor;stroke-width:1px;"/> <path d="M14.205,11.267c0,0 3.097,0.873 4.329,1.934c1.038,0.895 2.48,3.932 2.48,3.932" style="fill:none;stroke-width:1px;"/> <path d="M15.907,9.591c0,0 3.098,0.873 4.329,1.934c1.039,0.895 2.481,3.932 2.481,3.932" style="fill:none;stroke-width:1px;"/> <path d="M12.502,12.943c0,0 3.098,0.873 4.33,1.934c1.038,0.895 2.48,3.932 2.48,3.932" style="fill:none;stroke-width:1px;"/> </symbol><symbol viewBox="0 0 32 32" id="icon-olcontroldefault"> <path d="M24.687,18.133c0.323,0.291 0.396,0.624 0.219,1.001c-0.177,0.387 -0.484,0.58 -0.922,0.58l-5.962,0l3.137,6.907c0.104,0.241 0.104,0.478 0,0.711c-0.104,0.232 -0.281,0.401 -0.531,0.507l-2.763,1.088c-0.26,0.097 -0.515,0.097 -0.765,0c-0.25,-0.097 -0.432,-0.261 -0.546,-0.493l-2.982,-6.557l-4.87,4.526c-0.198,0.184 -0.432,0.275 -0.703,0.275c-0.125,0 -0.25,-0.024 -0.375,-0.072c-0.416,-0.165 -0.624,-0.45 -0.624,-0.856l0,-21.821c0,-0.407 0.208,-0.692 0.624,-0.857c0.125,-0.048 0.25,-0.072 0.375,-0.072c0.281,0 0.515,0.092 0.703,0.275l15.985,14.858Z" style="fill-rule:nonzero;stroke-opacity:0"/> </symbol><symbol viewBox="0 0 32 32" id="icon-olcontroldragpan"> <path d="M16.942,4.857c-0.451,0 -0.838,0.16 -1.162,0.479c-0.324,0.319 -0.485,0.701 -0.485,1.146l0,9.518l-0.47,0l0,-7.661c0,-0.445 -0.162,-0.827 -0.485,-1.147c-0.324,-0.319 -0.711,-0.479 -1.162,-0.478c-0.451,0 -0.839,0.16 -1.162,0.478c-0.323,0.319 -0.485,0.701 -0.485,1.147l0,11.374l-2.265,-2.974c-0.373,-0.493 -0.872,-0.74 -1.499,-0.74c-0.52,0 -0.963,0.181 -1.331,0.544c-0.368,0.363 -0.552,0.801 -0.552,1.313c0,0.416 0.128,0.788 0.382,1.117l5.647,7.429c0.373,0.493 0.873,0.74 1.5,0.74l10.117,0c0.333,0 0.632,-0.107 0.897,-0.319c0.264,-0.213 0.431,-0.484 0.5,-0.813l1.117,-5.876c0.049,-0.309 0.073,-0.594 0.073,-0.856l0,-7.225c0,-0.445 -0.161,-0.827 -0.485,-1.147c-0.323,-0.319 -0.71,-0.479 -1.162,-0.478c-0.451,0 -0.838,0.16 -1.161,0.478c-0.324,0.319 -0.486,0.701 -0.486,1.147l0,3.946l-0.47,0l0,-7.661c0,-0.445 -0.161,-0.827 -0.485,-1.146c-0.323,-0.32 -0.71,-0.48 -1.162,-0.479c-0.451,0.001 -0.838,0.16 -1.162,0.479c-0.323,0.318 -0.485,0.7 -0.485,1.146l0,7.661l-0.47,0l0,-9.518c0,-0.444 -0.162,-0.826 -0.485,-1.146c-0.323,-0.32 -0.711,-0.479 -1.162,-0.478l0,0ZM16.942,3c0.667,0 1.282,0.172 1.846,0.515c0.563,0.344 0.997,0.81 1.301,1.4c0.186,-0.038 0.392,-0.058 0.617,-0.058c0.971,0 1.802,0.341 2.493,1.023c0.691,0.682 1.037,1.502 1.037,2.46l0,0.247c1.029,-0.058 1.914,0.251 2.654,0.928c0.74,0.677 1.11,1.524 1.11,2.539l0,7.226c0,0.386 -0.039,0.788 -0.118,1.204l-1.117,5.861c-0.137,0.764 -0.512,1.398 -1.125,1.9c-0.613,0.503 -1.316,0.754 -2.111,0.755l-10.117,0c-0.588,0 -1.15,-0.133 -1.684,-0.399c-0.535,-0.266 -0.979,-0.626 -1.331,-1.081l-5.647,-7.428c-0.5,-0.658 -0.75,-1.402 -0.75,-2.234c0,-1.026 0.368,-1.901 1.103,-2.626c0.735,-0.725 1.622,-1.088 2.661,-1.088c0.765,0 1.392,0.164 1.883,0.493l0,-6.297c0,-0.957 0.345,-1.777 1.037,-2.459c0.691,-0.682 1.522,-1.023 2.492,-1.023c0.226,0 0.432,0.019 0.618,0.058c0.304,-0.59 0.738,-1.057 1.301,-1.4c0.563,-0.343 1.178,-0.515 1.845,-0.515l0.002,-0.001Z" style="fill-rule:nonzero;stroke-opacity:0"/> </symbol><symbol viewBox="0 0 32 32" id="icon-olcontrolidentify"> <path d="M14.375,10.719c0,-0.671 0.548,-1.219 1.219,-1.219l0.812,0c0.671,0 1.219,0.548 1.219,1.219l0,0.812c0,0.671 -0.548,1.219 -1.219,1.219l-0.812,0c-0.671,0 -1.219,-0.548 -1.219,-1.219l0,-0.812Z" style="fill-rule:nonzero;stroke-opacity:0"/> <path d="M19.25,22.5l-6.5,0l0,-1.625l1.625,0l0,-4.875l-1.625,0l0,-1.625l4.875,0l0,6.5l1.625,0l0,1.625Z" style="fill-rule:nonzero;stroke-opacity:0"/> <path d="M16,3c-7.18,0 -13,5.82 -13,13c0,7.18 5.82,13 13,13c7.18,0 13,-5.82 13,-13c0,-7.18 -5.82,-13 -13,-13ZM16,26.563c-5.834,0 -10.563,-4.729 -10.563,-10.563c0.001,-5.834 4.729,-10.562 10.563,-10.562c5.834,0 10.563,4.728 10.563,10.562c-0.001,5.834 -4.729,10.563 -10.563,10.563Z" style="fill-rule:nonzero;stroke-opacity:0"/> </symbol><symbol viewBox="0 0 32 32" id="icon-olcontrolmeasure"> <path d="M3,20.999l0,-9.999l1.231,0l0,4.601l1.22,0l0,-4.601l1.283,0l0,1.533l1.206,0l0,-1.533l1.245,0l0,3.066l1.232,0l0,-3.066l1.257,0l0,1.501l1.207,0l0,-1.501l1.283,0l0,3.066l1.206,0l0,-3.066l1.258,0l0,4.601l1.18,0l0,-4.601l1.296,0l0,1.501l1.22,0l0,-1.501l1.271,0l0,3.066l1.167,0l0,-3.066l1.297,0l0,1.501l1.193,0l0,-1.501l1.271,0l0,3.066l1.219,0l0,-3.066l1.258,0l0,10l-26,0l0,-0.001Z" style="fill-rule:nonzero;stroke-opacity:0"/> </symbol><symbol viewBox="0 0 32 32" id="icon-olcontrolmeasurearea"> <path d="M23.218,27.995l0,-1.947l-0.972,0l0,1.947l-0.973,0l0,-1.947l-0.975,0l0,1.947l-0.912,0l0,-2.92l-0.973,0l0,2.92l-0.973,0l0,-1.947l-0.973,0l0,1.947l-0.913,0l0,-1.947l-0.973,0l0,1.947l-0.974,0l0,-2.92l-0.973,0l0,2.92l-0.973,0l0,-1.947l-0.91,0l0,1.947l-0.973,0l0,-1.947l-0.974,0l0,1.947l-0.972,0l0,-2.92l-0.913,0l0,2.92l-2.919,0l0,-24l24,24l-4.782,0ZM7.832,13.196l0,10.906l10.904,0l-10.904,-10.906l0,0Z" style="fill-rule:nonzero;stroke-opacity:0"/> </symbol><symbol viewBox="0 0 32 32" id="icon-olcontrolnavigationhistorynext"> <path d="M29,16l-12.581,-13l0,7.8l-13.419,0l0,10.4l13.419,0l0,7.8l12.581,-13Z" style="fill-rule:nonzero;stroke-opacity:0"/> </symbol><symbol viewBox="0 0 32 32" id="icon-olcontrolnavigationhistoryprevious"> <path d="M3,16l12.581,13l0,-7.8l13.419,0l0,-10.4l-13.419,0l0,-7.8l-12.581,13Z" style="fill-rule:nonzero;stroke-opacity:0"/> </symbol><symbol viewBox="0 0 32 32" id="icon-olcontrolpaneast"> <path d="M32,16l-16,16l0,-32l16,16Z" style=""/> </symbol><symbol viewBox="0 0 32 32" id="icon-olcontrolpannorth"> <path d="M15.991,0l15.992,15.991l-31.983,0l15.991,-15.991Z" style=""/> </symbol><symbol viewBox="0 0 32 32" id="icon-olcontrolpansouth"> <path d="M16.018,32l-16,-16l32,0l-16,16Z" style=""/> </symbol><symbol viewBox="0 0 32 32" id="icon-olcontrolpanwest"> <path d="M0,16l16,-16l0,32l-16,-16Z" style=""/> </symbol><symbol viewBox="0 0 32 32" id="icon-olcontrolzoombox"> <path d="M19,13.501l0,1c0,0.136 -0.049,0.253 -0.149,0.352c-0.099,0.099 -0.216,0.149 -0.351,0.149l-3.5,0l0,3.499c0,0.136 -0.05,0.253 -0.149,0.352c-0.099,0.099 -0.216,0.149 -0.352,0.149l-1,0c-0.135,0 -0.252,-0.05 -0.351,-0.149c-0.099,-0.099 -0.149,-0.216 -0.149,-0.352l0,-3.499l-3.5,0c-0.135,0 -0.252,-0.05 -0.352,-0.149c-0.099,-0.099 -0.148,-0.216 -0.148,-0.352l0,-1c0,-0.135 0.049,-0.252 0.148,-0.352c0.1,-0.099 0.217,-0.148 0.352,-0.148l3.5,0l0,-3.5c0,-0.135 0.05,-0.253 0.149,-0.352c0.099,-0.099 0.216,-0.149 0.351,-0.149l1,0c0.136,0 0.253,0.05 0.352,0.149c0.099,0.099 0.149,0.217 0.149,0.352l0,3.5l3.5,0c0.135,0 0.252,0.049 0.351,0.148c0.1,0.1 0.149,0.217 0.149,0.352l0,0ZM20.999,14.001c0,-1.927 -0.684,-3.576 -2.054,-4.945c-1.37,-1.37 -3.018,-2.055 -4.945,-2.055c-1.927,0 -3.576,0.685 -4.945,2.055c-1.37,1.369 -2.055,3.018 -2.055,4.945c0,1.927 0.685,3.575 2.055,4.945c1.369,1.37 3.018,2.054 4.945,2.054c1.927,0 3.575,-0.684 4.945,-2.054c1.37,-1.37 2.054,-3.018 2.054,-4.945ZM28.999,27c0,0.552 -0.195,1.023 -0.586,1.414c-0.391,0.391 -0.862,0.586 -1.414,0.586c-0.562,0 -1.031,-0.198 -1.406,-0.594l-5.359,-5.343c-1.864,1.291 -3.942,1.937 -6.234,1.937c-1.49,0 -2.914,-0.289 -4.273,-0.867c-1.359,-0.578 -2.531,-1.36 -3.516,-2.344c-0.985,-0.985 -1.766,-2.157 -2.344,-3.516c-0.578,-1.359 -0.867,-2.783 -0.867,-4.273c0,-1.49 0.289,-2.914 0.867,-4.273c0.578,-1.359 1.359,-2.531 2.344,-3.516c0.985,-0.985 2.157,-1.766 3.516,-2.344c1.359,-0.578 2.783,-0.867 4.273,-0.867c1.49,0 2.914,0.289 4.273,0.867c1.359,0.578 2.531,1.359 3.516,2.344c0.984,0.985 1.766,2.157 2.344,3.516c0.578,1.359 0.867,2.783 0.867,4.273c0,2.292 -0.646,4.37 -1.937,6.234l5.359,5.359c0.385,0.386 0.578,0.854 0.578,1.406l-0.001,0.001Z" style="fill-rule:nonzero;stroke-opacity:0"/> </symbol><symbol viewBox="0 0 32 32" id="icon-olcontrolzoomout"> <path d="M19,13.501l0,1c0,0.136 -0.049,0.253 -0.149,0.352c-0.099,0.099 -0.216,0.149 -0.351,0.149l-9,0c-0.135,0 -0.253,-0.05 -0.352,-0.149c-0.099,-0.099 -0.148,-0.216 -0.148,-0.352l0,-1c0,-0.135 0.049,-0.252 0.148,-0.352c0.099,-0.099 0.217,-0.148 0.352,-0.148l9,0c0.135,0 0.252,0.049 0.351,0.148c0.1,0.1 0.149,0.217 0.149,0.352l0,0ZM20.999,14.001c0,-1.927 -0.684,-3.576 -2.054,-4.945c-1.37,-1.37 -3.018,-2.055 -4.945,-2.055c-1.927,0 -3.576,0.685 -4.945,2.055c-1.37,1.369 -2.055,3.018 -2.055,4.945c0,1.927 0.685,3.575 2.055,4.945c1.369,1.37 3.018,2.054 4.945,2.054c1.927,0 3.575,-0.684 4.945,-2.054c1.37,-1.37 2.054,-3.018 2.054,-4.945ZM28.999,27c0,0.552 -0.195,1.023 -0.586,1.414c-0.391,0.391 -0.862,0.586 -1.414,0.586c-0.562,0 -1.031,-0.198 -1.406,-0.594l-5.359,-5.343c-1.864,1.291 -3.942,1.937 -6.234,1.937c-1.49,0 -2.914,-0.289 -4.273,-0.867c-1.359,-0.578 -2.531,-1.36 -3.516,-2.344c-0.985,-0.985 -1.766,-2.157 -2.344,-3.516c-0.578,-1.359 -0.867,-2.783 -0.867,-4.273c0,-1.49 0.289,-2.914 0.867,-4.273c0.578,-1.359 1.359,-2.531 2.344,-3.516c0.985,-0.985 2.157,-1.766 3.516,-2.344c1.359,-0.578 2.783,-0.867 4.273,-0.867c1.49,0 2.914,0.289 4.273,0.867c1.359,0.578 2.531,1.359 3.516,2.344c0.984,0.985 1.766,2.157 2.344,3.516c0.578,1.359 0.867,2.783 0.867,4.273c0,2.292 -0.646,4.37 -1.937,6.234l5.359,5.359c0.385,0.386 0.578,0.854 0.578,1.406l-0.001,0.001Z" style="fill-rule:nonzero;stroke-opacity:0"/> </symbol><symbol viewBox="0 0 32 32" id="icon-olcontrolzoomtomaxextent"> <path d="M29,16c0,0.251 -0.092,0.469 -0.275,0.653l-3.715,3.714c-0.183,0.184 -0.401,0.276 -0.653,0.276c-0.252,0 -0.47,-0.092 -0.653,-0.276c-0.184,-0.183 -0.276,-0.401 -0.276,-0.653l0,-1.857l-5.571,0l0,5.571l1.857,0c0.252,0 0.469,0.092 0.653,0.276c0.185,0.183 0.276,0.401 0.276,0.653c-0.001,0.252 -0.092,0.47 -0.276,0.653l-3.714,3.715c-0.183,0.183 -0.401,0.275 -0.653,0.275c-0.252,0 -0.47,-0.092 -0.653,-0.275l-3.714,-3.715c-0.184,-0.183 -0.276,-0.401 -0.276,-0.653c0,-0.252 0.092,-0.47 0.276,-0.653c0.183,-0.184 0.401,-0.276 0.653,-0.276l1.857,0l0,-5.571l-5.571,0l0,1.857c0,0.252 -0.092,0.469 -0.276,0.653c-0.183,0.185 -0.401,0.276 -0.653,0.276c-0.252,-0.001 -0.47,-0.092 -0.653,-0.276l-3.715,-3.714c-0.183,-0.183 -0.275,-0.401 -0.275,-0.653c0,-0.252 0.092,-0.47 0.275,-0.653l3.715,-3.714c0.183,-0.184 0.401,-0.276 0.653,-0.276c0.252,0 0.47,0.092 0.653,0.276c0.184,0.183 0.276,0.401 0.276,0.653l0,1.857l5.571,0l0,-5.571l-1.857,0c-0.252,0 -0.469,-0.092 -0.653,-0.276c-0.185,-0.183 -0.276,-0.401 -0.276,-0.653c0.001,-0.252 0.092,-0.47 0.276,-0.653l3.714,-3.715c0.183,-0.183 0.401,-0.275 0.653,-0.275c0.252,0 0.47,0.092 0.653,0.275l3.714,3.715c0.184,0.183 0.276,0.401 0.276,0.653c0,0.252 -0.092,0.47 -0.276,0.653c-0.183,0.184 -0.401,0.276 -0.653,0.276l-1.857,0l0,5.571l5.571,0l0,-1.857c0,-0.252 0.092,-0.469 0.276,-0.653c0.183,-0.185 0.401,-0.276 0.653,-0.276c0.252,0.001 0.47,0.092 0.653,0.276l3.715,3.714c0.183,0.183 0.275,0.401 0.275,0.653l0,0Z" style="fill-rule:nonzero;stroke-opacity:0"/> </symbol><symbol viewBox="0 0 32 32" id="icon-print"> <path d="M9.001,26l13.999,0l0,-4l-13.999,0l0,4ZM9.001,16l13.999,0l0,-6l-2.5,0c-0.416,0 -0.77,-0.146 -1.062,-0.438c-0.291,-0.291 -0.437,-0.645 -0.437,-1.062l0,-2.5l-10,0l0,10l0,0ZM27.001,17c0,-0.271 -0.099,-0.505 -0.297,-0.704c-0.198,-0.198 -0.432,-0.297 -0.703,-0.296c-0.272,0 -0.506,0.099 -0.704,0.296c-0.198,0.197 -0.297,0.432 -0.297,0.704c0,0.272 0.099,0.506 0.297,0.703c0.198,0.197 0.432,0.296 0.704,0.297c0.271,0 0.505,-0.099 0.703,-0.297c0.198,-0.198 0.297,-0.433 0.297,-0.703ZM29,17l0,6.5c0,0.135 -0.05,0.253 -0.149,0.352c-0.099,0.099 -0.216,0.148 -0.351,0.148l-3.5,0l0,2.5c0,0.417 -0.146,0.771 -0.438,1.063c-0.292,0.291 -0.646,0.437 -1.062,0.437l-15,0c-0.416,0 -0.77,-0.146 -1.062,-0.437c-0.292,-0.292 -0.438,-0.646 -0.438,-1.063l0,-2.5l-3.5,0c-0.135,0 -0.252,-0.049 -0.351,-0.148c-0.099,-0.099 -0.149,-0.217 -0.149,-0.352l0,-6.5c0,-0.823 0.294,-1.529 0.883,-2.118c0.588,-0.588 1.294,-0.883 2.117,-0.883l1,0l0,-8.499c0,-0.417 0.146,-0.771 0.438,-1.063c0.292,-0.291 0.646,-0.437 1.062,-0.437l10.5,0c0.416,0 0.875,0.104 1.374,0.312c0.5,0.209 0.896,0.459 1.188,0.75l2.374,2.375c0.292,0.292 0.542,0.687 0.75,1.187c0.209,0.5 0.313,0.958 0.313,1.375l0,3.999l1,0c0.823,0 1.529,0.295 2.117,0.883c0.589,0.589 0.883,1.295 0.883,2.118l0.001,0.001Z" style="fill-rule:nonzero;stroke-opacity:0"/> </symbol><symbol viewBox="0 0 32 32" id="icon-relateddocuments"> <path d="M27.607,8.571c0.387,0 0.716,0.136 0.987,0.407c0.271,0.271 0.406,0.599 0.406,0.986l0,17.643c0,0.387 -0.135,0.716 -0.406,0.987c-0.271,0.271 -0.6,0.406 -0.987,0.406l-13.929,0c-0.387,0 -0.715,-0.135 -0.986,-0.406c-0.271,-0.271 -0.406,-0.6 -0.406,-0.987l0,-4.178l-7.893,0c-0.387,0 -0.716,-0.136 -0.987,-0.407c-0.271,-0.271 -0.406,-0.599 -0.406,-0.986l0,-9.75c0,-0.387 0.097,-0.813 0.29,-1.277c0.193,-0.464 0.426,-0.832 0.696,-1.103l5.92,-5.92c0.271,-0.27 0.639,-0.503 1.103,-0.696c0.464,-0.193 0.89,-0.29 1.277,-0.29l6.036,0c0.387,0 0.715,0.135 0.986,0.406c0.271,0.271 0.406,0.6 0.406,0.987l0,4.759c0.658,-0.387 1.277,-0.581 1.858,-0.581l6.036,0l-0.001,0ZM19.714,11.662l-4.338,4.338l4.338,0l0,-4.338ZM10.428,6.091l-4.338,4.338l4.338,0l0,-4.338l0,0ZM13.272,15.478l4.585,-4.585l0,-6.036l-5.571,0l0,6.036c0,0.387 -0.136,0.715 -0.407,0.986c-0.271,0.271 -0.599,0.407 -0.986,0.407l-6.036,0l0,9.286l7.429,0l0,-3.714c0,-0.387 0.096,-0.812 0.29,-1.277c0.193,-0.464 0.425,-0.831 0.696,-1.102l0,-0.001ZM27.143,27.143l0,-16.714l-5.572,0l0,6.036c0,0.387 -0.135,0.716 -0.406,0.987c-0.271,0.27 -0.6,0.406 -0.987,0.406l-6.036,0l0,9.286l13.001,0l0,-0.001Z" style="fill-rule:nonzero;stroke-opacity:0"/> </symbol><symbol viewBox="0 0 32 32" id="icon-search"> <path d="M21,14c0,-1.927 -0.685,-3.576 -2.055,-4.945c-1.37,-1.369 -3.018,-2.054 -4.945,-2.055c-1.927,-0.001 -3.575,0.684 -4.945,2.055c-1.37,1.371 -2.055,3.019 -2.055,4.945c0,1.926 0.685,3.574 2.055,4.945c1.37,1.371 3.018,2.056 4.945,2.055c1.927,-0.001 3.575,-0.686 4.945,-2.055c1.37,-1.369 2.055,-3.018 2.055,-4.945ZM29,27c0,0.541 -0.198,1.01 -0.594,1.406c-0.396,0.396 -0.865,0.594 -1.406,0.594c-0.563,0 -1.031,-0.198 -1.406,-0.594l-5.359,-5.344c-1.865,1.291 -3.943,1.937 -6.234,1.937c-1.489,0 -2.914,-0.289 -4.273,-0.867c-1.359,-0.578 -2.531,-1.359 -3.516,-2.344c-0.985,-0.985 -1.766,-2.157 -2.344,-3.516c-0.578,-1.359 -0.867,-2.784 -0.867,-4.273c0,-1.489 0.289,-2.914 0.867,-4.273c0.578,-1.359 1.359,-2.531 2.344,-3.516c0.985,-0.985 2.157,-1.766 3.516,-2.344c1.359,-0.578 2.784,-0.867 4.273,-0.867c1.489,0 2.914,0.289 4.273,0.867c1.359,0.578 2.531,1.359 3.516,2.344c0.985,0.985 1.766,2.157 2.344,3.516c0.578,1.359 0.867,2.784 0.867,4.273c0,2.291 -0.646,4.369 -1.937,6.234l5.359,5.359c0.385,0.385 0.578,0.854 0.578,1.406l-0.001,0.002l0,0Z" style="fill-rule:nonzero;stroke-opacity:0"/> </symbol><symbol viewBox="0 0 32 32" id="icon-selectionmodule"> <path d="M29,11.217l-13,-6.217l-13,6.217l13,6.217l13,-6.217ZM16,7.063l8.685,4.154l-8.685,4.153c-2.895,-1.384 -5.79,-2.769 -8.685,-4.153l8.685,-4.154ZM26.396,14.635l2.604,1.244l-13,6.217l-13,-6.217l2.604,-1.244l10.396,4.971l10.396,-4.971ZM26.396,19.297l2.604,1.245l-13,6.217l-13,-6.217l2.604,-1.245l10.396,4.972l10.396,-4.972Z" style="fill-rule:nonzero;stroke-opacity:0"/> <path d="M18,20.305l3.305,0l0,-3.305l3.39,0l0,3.305l3.305,0l0,3.39l-3.305,0l0,3.305l-3.39,0l0,-3.305l-3.305,0l0,-3.39l0,0Z" style="fill:currentColor;fill-rule:nonzero;stroke-width:1px;"/> </symbol><symbol viewBox="0 0 32 32" id="icon-snapping"> <path d="M27,15.083l0,1.834c0,1.919 -0.47,3.647 -1.411,5.184c-0.94,1.537 -2.248,2.738 -3.924,3.603c-1.676,0.865 -3.564,1.297 -5.665,1.296c-2.101,-0.001 -3.989,-0.433 -5.665,-1.296c-1.676,-0.864 -2.984,-2.065 -3.924,-3.603c-0.941,-1.538 -1.411,-3.266 -1.411,-5.184l0,-1.834c0,-0.248 0.091,-0.463 0.272,-0.644c0.182,-0.182 0.397,-0.272 0.645,-0.272l5.5,0c0.248,0 0.463,0.09 0.644,0.272c0.182,0.181 0.272,0.396 0.272,0.644l0,1.834c0,0.496 0.112,0.925 0.337,1.288c0.224,0.363 0.479,0.636 0.766,0.817c0.287,0.182 0.626,0.325 1.017,0.43c0.391,0.105 0.696,0.167 0.916,0.186c0.22,0.019 0.431,0.029 0.631,0.029c0.2,0 0.411,-0.01 0.631,-0.029c0.22,-0.019 0.525,-0.081 0.916,-0.186c0.391,-0.105 0.73,-0.248 1.017,-0.43c0.287,-0.181 0.542,-0.454 0.766,-0.817c0.225,-0.363 0.337,-0.792 0.337,-1.288l0,-1.834c0,-0.248 0.09,-0.463 0.272,-0.644c0.181,-0.182 0.396,-0.272 0.644,-0.272l5.5,0c0.248,0 0.463,0.09 0.645,0.272c0.181,0.181 0.272,0.396 0.272,0.644l0,0ZM12.333,5.917l0,5.5c0,0.248 -0.09,0.463 -0.272,0.644c-0.181,0.182 -0.396,0.272 -0.644,0.272l-5.5,0c-0.248,0 -0.463,-0.09 -0.645,-0.272c-0.181,-0.181 -0.272,-0.396 -0.272,-0.644l0,-5.5c0,-0.248 0.091,-0.463 0.272,-0.645c0.182,-0.181 0.397,-0.272 0.645,-0.272l5.5,0c0.248,0 0.463,0.091 0.644,0.272c0.182,0.182 0.272,0.397 0.272,0.645ZM27,5.917l0,5.5c0,0.248 -0.091,0.463 -0.272,0.644c-0.182,0.182 -0.397,0.272 -0.645,0.272l-5.5,0c-0.248,0 -0.463,-0.09 -0.644,-0.272c-0.182,-0.181 -0.272,-0.396 -0.272,-0.644l0,-5.5c0,-0.248 0.09,-0.463 0.272,-0.645c0.181,-0.181 0.396,-0.272 0.644,-0.272l5.5,0c0.248,0 0.463,0.091 0.645,0.272c0.181,0.182 0.272,0.397 0.272,0.645Z" style="fill-rule:nonzero;stroke-opacity:0"/> </symbol><symbol viewBox="0 0 32 32" id="icon-spatialfilter"> <rect x="4" y="4" width="24" height="24" style="fill:none;stroke-width:1.12px;stroke-dasharray:2.24,2.24"/> </symbol><symbol viewBox="0 0 32 32" id="icon-split"> <path d="M14.796,17.112c-0.83,0.227 -1.715,0.35 -2.634,0.35c-4.72,0 -8.552,-3.24 -8.552,-7.231c0,-3.991 3.832,-7.231 8.552,-7.231c3.903,0 7.198,2.214 8.223,5.237c0.495,-0.135 1.009,-0.207 1.536,-0.207c3.934,0 7.127,3.968 7.127,8.856c0,4.887 -3.193,8.855 -7.127,8.855c-3.873,0 -7.028,-3.846 -7.125,-8.629Z" style="fill:currentColor;stroke-width:1px;stroke-dasharray:1,1;"/> <path d="M16.88,25.672c0.084,-1.894 -0.996,-3.476 -2.412,-3.534c-0.122,-0.004 -0.243,0.002 -0.362,0.02l0.101,-2.259l5.06,-1.999c0.452,-0.216 0.829,-0.582 1.039,-1.063c0.201,-0.46 0.216,-0.949 0.079,-1.392l-0.089,-0.206l-5.986,2.355l0.275,-6.182l-0.233,-0.01c-0.482,0.028 -0.958,0.209 -1.342,0.546c-0.402,0.353 -0.633,0.816 -0.691,1.296l-0.242,5.228l-2.187,0.86c-0.024,-0.112 -0.058,-0.223 -0.105,-0.331c-0.538,-1.253 -2.463,-1.684 -4.297,-0.963c-1.835,0.721 -2.886,2.321 -2.347,3.573c0.539,1.253 2.463,1.684 4.298,0.963l4.531,-1.791l-0.217,4.682c-0.084,1.894 0.996,3.476 2.412,3.533c1.416,0.058 2.631,-1.432 2.715,-3.326l0,0ZM6.854,21.213c-0.826,0.325 -1.542,0.272 -1.937,0.115l0,0c-0.128,-0.051 -0.294,-0.141 -0.352,-0.276c-0.064,-0.15 -0.003,-0.391 0.163,-0.644c0.27,-0.412 0.761,-0.779 1.345,-1.009c0.826,-0.325 1.542,-0.272 1.936,-0.115c0.129,0.051 0.295,0.141 0.353,0.276c0.064,0.15 0.003,0.391 -0.164,0.645c-0.27,0.411 -0.76,0.779 -1.344,1.008l0,0ZM12.727,19.751c-0.232,-0.156 -0.288,-0.462 -0.125,-0.684c0.163,-0.221 0.483,-0.275 0.715,-0.12c0.232,0.156 0.288,0.462 0.125,0.684c-0.162,0.221 -0.483,0.275 -0.715,0.12ZM14.808,27.162c-0.193,0.236 -0.409,0.373 -0.578,0.366c-0.153,-0.006 -0.297,-0.124 -0.392,-0.222l0,0c-0.289,-0.301 -0.585,-0.926 -0.547,-1.779c0.027,-0.603 0.221,-1.169 0.534,-1.552c0.193,-0.236 0.409,-0.373 0.578,-0.367c0.153,0.007 0.297,0.125 0.392,0.223c0.289,0.301 0.585,0.926 0.547,1.779c-0.027,0.603 -0.221,1.169 -0.534,1.552l0,0Z" style="fill-rule:nonzero;stroke-opacity:0"/> <path d="M15.013,16.414l5.483,-8.151" style="fill:none;stroke-width:1px;stroke-dasharray:1,1;"/> </symbol><symbol viewBox="0 0 32 32" id="icon-streetview"> <path d="M27,25.219c0,0.62 -0.32,1.179 -0.961,1.676c-0.64,0.498 -1.494,0.897 -2.562,1.197c-1.068,0.3 -2.24,0.526 -3.516,0.679c-1.276,0.153 -2.596,0.229 -3.961,0.229c-1.365,0 -2.685,-0.076 -3.961,-0.229c-1.276,-0.153 -2.448,-0.379 -3.516,-0.679c-1.068,-0.3 -1.922,-0.699 -2.562,-1.197c-0.641,-0.497 -0.961,-1.056 -0.961,-1.676c0,-0.483 0.172,-0.919 0.515,-1.307c0.344,-0.389 0.818,-0.717 1.422,-0.983c0.604,-0.267 1.219,-0.486 1.844,-0.658c0.624,-0.172 1.307,-0.317 2.046,-0.436c0.271,-0.049 0.521,0.003 0.75,0.156c0.229,0.152 0.365,0.357 0.406,0.613c0.052,0.256 -0.003,0.492 -0.164,0.709c-0.162,0.216 -0.378,0.344 -0.649,0.383c-0.604,0.099 -1.156,0.215 -1.656,0.348c-0.5,0.133 -0.898,0.258 -1.195,0.376c-0.297,0.118 -0.55,0.234 -0.758,0.348c-0.208,0.113 -0.351,0.209 -0.43,0.288c-0.078,0.078 -0.122,0.137 -0.133,0.177c0.032,0.108 0.172,0.238 0.422,0.391c0.25,0.153 0.63,0.315 1.141,0.487c0.511,0.172 1.105,0.332 1.782,0.48c0.676,0.148 1.512,0.271 2.507,0.369c0.995,0.098 2.045,0.148 3.148,0.148c1.104,0.001 2.153,-0.049 3.148,-0.148c0.995,-0.099 1.831,-0.222 2.508,-0.369c0.677,-0.147 1.27,-0.309 1.781,-0.487c0.511,-0.178 0.892,-0.343 1.141,-0.495c0.25,-0.152 0.391,-0.287 0.422,-0.406c-0.01,-0.039 -0.055,-0.093 -0.133,-0.162c-0.078,-0.069 -0.221,-0.163 -0.43,-0.281c-0.208,-0.118 -0.46,-0.234 -0.757,-0.347c-0.297,-0.114 -0.696,-0.237 -1.195,-0.369c-0.5,-0.132 -1.052,-0.248 -1.657,-0.348c-0.27,-0.039 -0.486,-0.167 -0.648,-0.383c-0.162,-0.217 -0.216,-0.453 -0.165,-0.709c0.042,-0.256 0.177,-0.461 0.406,-0.613c0.23,-0.153 0.48,-0.205 0.75,-0.156c0.74,0.118 1.422,0.263 2.047,0.436c0.625,0.173 1.239,0.392 1.843,0.658c0.605,0.266 1.079,0.593 1.422,0.983c0.344,0.389 0.516,0.825 0.516,1.307l0.003,0ZM21,11.982l0,5.673c0,0.256 -0.098,0.478 -0.296,0.665c-0.198,0.188 -0.432,0.281 -0.704,0.28l-1,0l0,5.673c0,0.256 -0.099,0.478 -0.296,0.665c-0.198,0.188 -0.433,0.281 -0.704,0.281l-3.999,0c-0.271,0 -0.505,-0.094 -0.704,-0.281c-0.198,-0.187 -0.297,-0.409 -0.296,-0.665l0,-5.673l-1,0c-0.271,0 -0.506,-0.093 -0.704,-0.28c-0.198,-0.187 -0.297,-0.409 -0.297,-0.665l0,-5.673c0,-0.521 0.196,-0.967 0.587,-1.336c0.391,-0.37 0.862,-0.555 1.414,-0.555l5.999,0c0.552,0 1.023,0.185 1.414,0.555c0.391,0.369 0.586,0.815 0.586,1.336l0,0ZM19.5,6.309c0,0.916 -0.341,1.696 -1.024,2.341c-0.682,0.645 -1.508,0.968 -2.476,0.968c-0.968,0.001 -1.794,-0.322 -2.476,-0.968c-0.683,-0.646 -1.024,-1.426 -1.024,-2.341c0,-0.915 0.341,-1.695 1.024,-2.341c0.682,-0.646 1.508,-0.969 2.476,-0.968c0.968,0.001 1.794,0.323 2.476,0.968c0.683,0.645 1.024,1.425 1.024,2.341Z" style="fill-rule:nonzero;stroke-opacity:0"/> </symbol><symbol viewBox="0 0 32 32" id="icon-toc"> <path d="M6.714,23.5l0,3c0,0.135 -0.046,0.253 -0.137,0.352c-0.092,0.099 -0.201,0.149 -0.327,0.148l-2.786,0c-0.125,0 -0.234,-0.049 -0.327,-0.148c-0.092,-0.099 -0.138,-0.216 -0.137,-0.352l0,-3c0,-0.135 0.046,-0.253 0.137,-0.352c0.092,-0.099 0.201,-0.149 0.327,-0.148l2.786,0c0.126,0 0.235,0.049 0.327,0.148c0.092,0.099 0.138,0.216 0.137,0.352ZM6.714,17.5l0,3c0,0.135 -0.046,0.253 -0.137,0.352c-0.092,0.099 -0.201,0.149 -0.327,0.148l-2.786,0c-0.125,0 -0.234,-0.049 -0.327,-0.148c-0.092,-0.099 -0.138,-0.216 -0.137,-0.352l0,-3c0,-0.135 0.046,-0.253 0.137,-0.352c0.092,-0.099 0.201,-0.149 0.327,-0.148l2.786,0c0.126,0 0.235,0.049 0.327,0.148c0.092,0.099 0.138,0.216 0.137,0.352ZM6.714,11.5l0,3c0,0.135 -0.046,0.253 -0.137,0.352c-0.092,0.099 -0.201,0.149 -0.327,0.148l-2.786,0c-0.125,0 -0.234,-0.049 -0.327,-0.148c-0.092,-0.099 -0.138,-0.216 -0.137,-0.352l0,-3c0,-0.135 0.046,-0.253 0.137,-0.352c0.092,-0.099 0.201,-0.149 0.327,-0.148l2.786,0c0.126,0 0.235,0.049 0.327,0.148c0.092,0.099 0.138,0.216 0.137,0.352ZM29,23.5l0,3c0,0.135 -0.046,0.253 -0.137,0.352c-0.092,0.099 -0.201,0.149 -0.327,0.148l-19.5,0c-0.126,0 -0.235,-0.049 -0.327,-0.148c-0.092,-0.099 -0.138,-0.216 -0.138,-0.352l0,-3c0,-0.135 0.046,-0.253 0.138,-0.352c0.091,-0.099 0.2,-0.149 0.327,-0.148l19.5,0c0.125,0 0.234,0.049 0.327,0.148c0.092,0.099 0.138,0.216 0.137,0.352ZM6.714,5.5l0,3c0,0.135 -0.046,0.253 -0.137,0.352c-0.092,0.099 -0.201,0.149 -0.327,0.148l-2.786,0c-0.125,0 -0.234,-0.049 -0.327,-0.148c-0.092,-0.099 -0.138,-0.216 -0.137,-0.352l0,-3c0,-0.135 0.046,-0.253 0.137,-0.352c0.092,-0.099 0.201,-0.149 0.327,-0.148l2.786,0c0.126,0 0.235,0.049 0.327,0.148c0.092,0.099 0.138,0.216 0.137,0.352ZM29,17.5l0,3c0,0.135 -0.046,0.253 -0.137,0.352c-0.092,0.099 -0.201,0.149 -0.327,0.148l-19.5,0c-0.126,0 -0.235,-0.049 -0.327,-0.148c-0.092,-0.099 -0.138,-0.216 -0.138,-0.352l0,-3c0,-0.135 0.046,-0.253 0.138,-0.352c0.091,-0.099 0.2,-0.149 0.327,-0.148l19.5,0c0.125,0 0.234,0.049 0.327,0.148c0.092,0.099 0.138,0.216 0.137,0.352ZM29,11.5l0,3c0,0.135 -0.046,0.253 -0.137,0.352c-0.092,0.099 -0.201,0.149 -0.327,0.148l-19.5,0c-0.126,0 -0.235,-0.049 -0.327,-0.148c-0.092,-0.099 -0.138,-0.216 -0.138,-0.352l0,-3c0,-0.135 0.046,-0.253 0.138,-0.352c0.091,-0.099 0.2,-0.149 0.327,-0.148l19.5,0c0.125,0 0.234,0.049 0.327,0.148c0.092,0.099 0.138,0.216 0.137,0.352ZM29,5.5l0,3c0,0.135 -0.046,0.253 -0.137,0.352c-0.092,0.099 -0.201,0.149 -0.327,0.148l-19.5,0c-0.126,0 -0.235,-0.049 -0.327,-0.148c-0.092,-0.099 -0.138,-0.216 -0.138,-0.352l0,-3c0,-0.135 0.046,-0.253 0.138,-0.352c0.091,-0.099 0.2,-0.149 0.327,-0.148l19.5,0c0.125,0 0.234,0.049 0.327,0.148c0.092,0.099 0.138,0.216 0.137,0.352Z" style="fill-rule:nonzero;stroke-opacity:0"/> </symbol><symbol viewBox="0 0 32 32" id="icon-toolsdownloadmap"> <path d="M23,25c0,-0.271 -0.099,-0.505 -0.297,-0.703c-0.198,-0.198 -0.432,-0.297 -0.703,-0.297c-0.271,0 -0.505,0.099 -0.703,0.297c-0.198,0.198 -0.297,0.432 -0.297,0.703c0,0.271 0.099,0.505 0.297,0.703c0.198,0.198 0.432,0.297 0.703,0.297c0.271,0 0.505,-0.099 0.703,-0.297c0.198,-0.198 0.297,-0.432 0.297,-0.703ZM27,25c0,-0.271 -0.099,-0.505 -0.297,-0.703c-0.198,-0.198 -0.432,-0.297 -0.703,-0.297c-0.271,0 -0.505,0.099 -0.703,0.297c-0.198,0.198 -0.297,0.432 -0.297,0.703c0,0.271 0.099,0.505 0.297,0.703c0.198,0.198 0.432,0.297 0.703,0.297c0.271,0 0.505,-0.099 0.703,-0.297c0.198,-0.198 0.297,-0.432 0.297,-0.703ZM29,21.5l0,5c0,0.417 -0.146,0.771 -0.438,1.062c-0.292,0.291 -0.646,0.437 -1.062,0.438l-23,0c-0.417,0 -0.771,-0.146 -1.062,-0.438c-0.291,-0.292 -0.437,-0.646 -0.438,-1.062l0,-5c0,-0.417 0.146,-0.771 0.438,-1.062c0.292,-0.291 0.646,-0.437 1.062,-0.438l7.266,0l2.109,2.125c0.604,0.583 1.312,0.875 2.125,0.875c0.813,0 1.521,-0.292 2.125,-0.875l2.125,-2.125l7.25,0c0.417,0 0.771,0.146 1.062,0.438c0.291,0.292 0.437,0.646 0.438,1.062ZM23.922,12.609c0.177,0.427 0.104,0.792 -0.219,1.094l-7,7c-0.187,0.198 -0.422,0.297 -0.703,0.297c-0.281,0 -0.516,-0.099 -0.703,-0.297l-7,-7c-0.323,-0.302 -0.396,-0.667 -0.219,-1.094c0.177,-0.406 0.485,-0.609 0.922,-0.609l4,0l0,-7c0,-0.271 0.099,-0.505 0.297,-0.703c0.198,-0.198 0.432,-0.297 0.703,-0.297l4,0c0.271,0 0.505,0.099 0.703,0.297c0.198,0.198 0.297,0.432 0.297,0.703l0,7l4,0c0.437,0 0.745,0.203 0.922,0.609Z" style="fill-rule:nonzero;stroke-opacity:0"/> </symbol><symbol viewBox="0 0 32 32" id="icon-transparencyslider"> <path d="M9.5,23l0,2l-5.5,0l0,-2l5.5,0ZM15,21c0.271,0 0.505,0.099 0.703,0.297c0.198,0.198 0.297,0.432 0.297,0.703l0,4c0,0.271 -0.099,0.505 -0.297,0.703c-0.198,0.198 -0.432,0.297 -0.703,0.297l-4,0c-0.271,0 -0.505,-0.099 -0.703,-0.297c-0.198,-0.198 -0.297,-0.432 -0.297,-0.703l0,-4c0,-0.271 0.099,-0.505 0.297,-0.703c0.198,-0.198 0.432,-0.297 0.703,-0.297l4,0ZM17.5,15l0,2l-13.5,0l0,-2l13.5,0ZM7.5,7l0,2l-3.5,0l0,-2l3.5,0ZM28,23l0,2l-11.5,0l0,-2l11.5,0ZM13,5c0.271,0 0.505,0.099 0.703,0.297c0.198,0.198 0.297,0.432 0.297,0.703l0,4c0,0.271 -0.099,0.505 -0.297,0.703c-0.198,0.198 -0.432,0.297 -0.703,0.297l-4,0c-0.271,0 -0.505,-0.099 -0.703,-0.297c-0.198,-0.198 -0.297,-0.432 -0.297,-0.703l0,-4c0,-0.271 0.099,-0.505 0.297,-0.703c0.198,-0.198 0.432,-0.297 0.703,-0.297l4,0ZM23,13c0.271,0 0.505,0.099 0.703,0.297c0.198,0.198 0.297,0.432 0.297,0.703l0,4c0,0.271 -0.099,0.505 -0.297,0.703c-0.198,0.198 -0.432,0.297 -0.703,0.297l-4,0c-0.271,0 -0.505,-0.099 -0.703,-0.297c-0.198,-0.198 -0.297,-0.432 -0.297,-0.703l0,-4c0,-0.271 0.099,-0.505 0.297,-0.703c0.198,-0.198 0.432,-0.297 0.703,-0.297l4,0ZM28,15l0,2l-3.5,0l0,-2l3.5,0ZM28,7l0,2l-13.5,0l0,-2l13.5,0Z" style="fill-rule:nonzero;stroke-opacity:0"/> </symbol><symbol viewBox="0 0 32 32" id="icon-zoomin"> <rect x="7" y="7" width="18" height="18" style="fill:#ebebeb;"/> <path d="M14.974,22.022l0,-4.979l-4.947,0l0,-2.081l4.947,0l0,-4.94l2.106,0l0,4.94l4.947,0l0,2.081l-4.947,0l0,4.979l-2.106,0l0,0Z" style="fill-rule:nonzero;stroke-opacity:0"/> </symbol><symbol viewBox="0 0 32 32" id="icon-zoomout"> <rect x="7" y="7" width="18" height="18" style="fill:#ebebeb;"/> <rect x="10" y="15" width="12" height="2" style=""/> </symbol></svg>