<svg viewBox="0 0 100 100" xmlns="http://www.w3.org/2000/svg"><symbol viewBox="0 0 26 28" id="icon-attributelist"><title>attributelist</title> <path fill="#444444" d="M8 21.5v-3q0-0.219-0.141-0.359t-0.359-0.141h-5q-0.219 0-0.359 0.141t-0.141 0.359v3q0 0.219 0.141 0.359t0.359 0.141h5q0.219 0 0.359-0.141t0.141-0.359zM8 15.5v-3q0-0.219-0.141-0.359t-0.359-0.141h-5q-0.219 0-0.359 0.141t-0.141 0.359v3q0 0.219 0.141 0.359t0.359 0.141h5q0.219 0 0.359-0.141t0.141-0.359zM16 21.5v-3q0-0.219-0.141-0.359t-0.359-0.141h-5q-0.219 0-0.359 0.141t-0.141 0.359v3q0 0.219 0.141 0.359t0.359 0.141h5q0.219 0 0.359-0.141t0.141-0.359zM8 9.5v-3q0-0.219-0.141-0.359t-0.359-0.141h-5q-0.219 0-0.359 0.141t-0.141 0.359v3q0 0.219 0.141 0.359t0.359 0.141h5q0.219 0 0.359-0.141t0.141-0.359zM16 15.5v-3q0-0.219-0.141-0.359t-0.359-0.141h-5q-0.219 0-0.359 0.141t-0.141 0.359v3q0 0.219 0.141 0.359t0.359 0.141h5q0.219 0 0.359-0.141t0.141-0.359zM24 21.5v-3q0-0.219-0.141-0.359t-0.359-0.141h-5q-0.219 0-0.359 0.141t-0.141 0.359v3q0 0.219 0.141 0.359t0.359 0.141h5q0.219 0 0.359-0.141t0.141-0.359zM16 9.5v-3q0-0.219-0.141-0.359t-0.359-0.141h-5q-0.219 0-0.359 0.141t-0.141 0.359v3q0 0.219 0.141 0.359t0.359 0.141h5q0.219 0 0.359-0.141t0.141-0.359zM24 15.5v-3q0-0.219-0.141-0.359t-0.359-0.141h-5q-0.219 0-0.359 0.141t-0.141 0.359v3q0 0.219 0.141 0.359t0.359 0.141h5q0.219 0 0.359-0.141t0.141-0.359zM24 9.5v-3q0-0.219-0.141-0.359t-0.359-0.141h-5q-0.219 0-0.359 0.141t-0.141 0.359v3q0 0.219 0.141 0.359t0.359 0.141h5q0.219 0 0.359-0.141t0.141-0.359zM26 4.5v17q0 1.031-0.734 1.766t-1.766 0.734h-21q-1.031 0-1.766-0.734t-0.734-1.766v-17q0-1.031 0.734-1.766t1.766-0.734h21q1.031 0 1.766 0.734t0.734 1.766z"/> </symbol><symbol viewBox="0 0 20 28" id="icon-bookmark"><title>bookmark</title> <path fill="#444444" d="M18.188 2q0.359 0 0.688 0.141 0.516 0.203 0.82 0.641t0.305 0.969v20.141q0 0.531-0.305 0.969t-0.82 0.641q-0.297 0.125-0.688 0.125-0.75 0-1.297-0.5l-6.891-6.625-6.891 6.625q-0.562 0.516-1.297 0.516-0.359 0-0.688-0.141-0.516-0.203-0.82-0.641t-0.305-0.969v-20.141q0-0.531 0.305-0.969t0.82-0.641q0.328-0.141 0.688-0.141h16.375z"/> </symbol><symbol viewBox="0 0 24 28" id="icon-buffer"><title>buffer</title> <path fill="#444444" d="M12 4q-2.031 0-3.883 0.797t-3.187 2.133-2.133 3.187-0.797 3.883 0.797 3.883 2.133 3.187 3.187 2.133 3.883 0.797 3.883-0.797 3.187-2.133 2.133-3.187 0.797-3.883-0.797-3.883-2.133-3.187-3.187-2.133-3.883-0.797zM24 14q0 3.266-1.609 6.023t-4.367 4.367-6.023 1.609-6.023-1.609-4.367-4.367-1.609-6.023 1.609-6.023 4.367-4.367 6.023-1.609 6.023 1.609 4.367 4.367 1.609 6.023z"/> </symbol><symbol viewBox="0 0 32 32" id="icon-currentlocation"><title>currentlocation</title> <path fill="#6c6c6c" d="M16 25.313q3.875 0 6.594-2.719t2.719-6.594-2.719-6.594-6.594-2.719-6.594 2.719-2.719 6.594 2.719 6.594 6.594 2.719zM27.938 14.688h2.75v2.625h-2.75q-0.438 4.188-3.438 7.188t-7.188 3.438v2.75h-2.625v-2.75q-4.188-0.438-7.188-3.438t-3.438-7.188h-2.75v-2.625h2.75q0.438-4.188 3.438-7.188t7.188-3.438v-2.75h2.625v2.75q4.188 0.438 7.188 3.438t3.438 7.188zM16 10.688q2.188 0 3.75 1.563t1.563 3.75-1.563 3.75-3.75 1.563-3.75-1.563-1.563-3.75 1.563-3.75 3.75-1.563z"/> </symbol><symbol viewBox="0 0 22 28" id="icon-dataselection"><title>dataselection</title> <path fill="#444444" d="M21.922 4.609q0.266 0.641-0.219 1.094l-7.703 7.703v11.594q0 0.656-0.609 0.922-0.203 0.078-0.391 0.078-0.422 0-0.703-0.297l-4-4q-0.297-0.297-0.297-0.703v-7.594l-7.703-7.703q-0.484-0.453-0.219-1.094 0.266-0.609 0.922-0.609h20q0.656 0 0.922 0.609z"/> </symbol><symbol viewBox="0 0 26 28" id="icon-drawing"><title>drawing</title> <path fill="#444444" d="M6 24h14v-4h-14v4zM6 14h14v-6h-2.5q-0.625 0-1.062-0.438t-0.438-1.062v-2.5h-10v10zM24 15q0-0.406-0.297-0.703t-0.703-0.297-0.703 0.297-0.297 0.703 0.297 0.703 0.703 0.297 0.703-0.297 0.297-0.703zM26 15v6.5q0 0.203-0.148 0.352t-0.352 0.148h-3.5v2.5q0 0.625-0.438 1.062t-1.062 0.438h-15q-0.625 0-1.062-0.438t-0.438-1.062v-2.5h-3.5q-0.203 0-0.352-0.148t-0.148-0.352v-6.5q0-1.234 0.883-2.117t2.117-0.883h1v-8.5q0-0.625 0.438-1.062t1.062-0.438h10.5q0.625 0 1.375 0.313t1.188 0.75l2.375 2.375q0.438 0.438 0.75 1.188t0.313 1.375v4h1q1.234 0 2.117 0.883t0.883 2.117z"/> </symbol><symbol viewBox="0 0 28 28" id="icon-edit"><title>edit</title> <path fill="#444444" d="M13.875 18.5l1.813-1.813-2.375-2.375-1.813 1.813v0.875h1.5v1.5h0.875zM20.75 7.25q-0.25-0.25-0.516 0.016l-5.469 5.469q-0.266 0.266-0.016 0.516t0.516-0.016l5.469-5.469q0.266-0.266 0.016-0.516zM22 16.531v2.969q0 1.859-1.32 3.18t-3.18 1.32h-13q-1.859 0-3.18-1.32t-1.32-3.18v-13q0-1.859 1.32-3.18t3.18-1.32h13q0.984 0 1.828 0.391 0.234 0.109 0.281 0.359 0.047 0.266-0.141 0.453l-0.766 0.766q-0.219 0.219-0.5 0.125-0.359-0.094-0.703-0.094h-13q-1.031 0-1.766 0.734t-0.734 1.766v13q0 1.031 0.734 1.766t1.766 0.734h13q1.031 0 1.766-0.734t0.734-1.766v-1.969q0-0.203 0.141-0.344l1-1q0.234-0.234 0.547-0.109t0.313 0.453zM20.5 5l4.5 4.5-10.5 10.5h-4.5v-4.5zM27.438 7.063l-1.437 1.437-4.5-4.5 1.437-1.437q0.438-0.438 1.062-0.438t1.062 0.438l2.375 2.375q0.438 0.438 0.438 1.062t-0.438 1.062z"/> </symbol><symbol viewBox="0 0 32 28" id="icon-graph"><title>graph</title> <path fill="#444444" d="M10 14v8h-4v-8h4zM16 6v16h-4v-16h4zM32 24v2h-32v-24h2v22h30zM22 10v12h-4v-12h4zM28 4v18h-4v-18h4z"/> </symbol><symbol viewBox="0 0 30 28" id="icon-influenceimage"><title>influenceimage</title> <path fill="#444444" d="M10 9q0 1.25-0.875 2.125t-2.125 0.875-2.125-0.875-0.875-2.125 0.875-2.125 2.125-0.875 2.125 0.875 0.875 2.125zM26 15v7h-22v-3l5-5 2.5 2.5 8-8zM27.5 4h-25q-0.203 0-0.352 0.148t-0.148 0.352v19q0 0.203 0.148 0.352t0.352 0.148h25q0.203 0 0.352-0.148t0.148-0.352v-19q0-0.203-0.148-0.352t-0.352-0.148zM30 4.5v19q0 1.031-0.734 1.766t-1.766 0.734h-25q-1.031 0-1.766-0.734t-0.734-1.766v-19q0-1.031 0.734-1.766t1.766-0.734h25q1.031 0 1.766 0.734t0.734 1.766z"/> </symbol><symbol viewBox="0 0 10 28" id="icon-legend"><title>legend</title> <path fill="#444444" d="M10 21v2q0 0.406-0.297 0.703t-0.703 0.297h-8q-0.406 0-0.703-0.297t-0.297-0.703v-2q0-0.406 0.297-0.703t0.703-0.297h1v-6h-1q-0.406 0-0.703-0.297t-0.297-0.703v-2q0-0.406 0.297-0.703t0.703-0.297h6q0.406 0 0.703 0.297t0.297 0.703v9h1q0.406 0 0.703 0.297t0.297 0.703zM8 3v3q0 0.406-0.297 0.703t-0.703 0.297h-4q-0.406 0-0.703-0.297t-0.297-0.703v-3q0-0.406 0.297-0.703t0.703-0.297h4q0.406 0 0.703 0.297t0.297 0.703z"/> </symbol><symbol viewBox="0 0 24 28" id="icon-merge"><title>merge</title> <path fill="#444444" d="M12 15v7q0 0.406-0.297 0.703t-0.703 0.297-0.703-0.297l-2.25-2.25-5.187 5.187q-0.156 0.156-0.359 0.156t-0.359-0.156l-1.781-1.781q-0.156-0.156-0.156-0.359t0.156-0.359l5.187-5.187-2.25-2.25q-0.297-0.297-0.297-0.703t0.297-0.703 0.703-0.297h7q0.406 0 0.703 0.297t0.297 0.703zM23.797 4.5q0 0.203-0.156 0.359l-5.187 5.187 2.25 2.25q0.297 0.297 0.297 0.703t-0.297 0.703-0.703 0.297h-7q-0.406 0-0.703-0.297t-0.297-0.703v-7q0-0.406 0.297-0.703t0.703-0.297 0.703 0.297l2.25 2.25 5.187-5.187q0.156-0.156 0.359-0.156t0.359 0.156l1.781 1.781q0.156 0.156 0.156 0.359z"/> </symbol><symbol viewBox="0 0 21 32" id="icon-olcontroldefault"><title>olcontroldefault</title> <path fill="#6c6c6c" d="M20.232 18.625q0.554 0.536 0.25 1.232-0.304 0.714-1.054 0.714h-6.821l3.589 8.5q0.179 0.446 0 0.875t-0.607 0.625l-3.161 1.339q-0.446 0.179-0.875 0t-0.625-0.607l-3.411-8.071-5.571 5.571q-0.339 0.339-0.804 0.339-0.214 0-0.429-0.089-0.714-0.304-0.714-1.054v-26.857q0-0.75 0.714-1.054 0.214-0.089 0.429-0.089 0.482 0 0.804 0.339z"/> </symbol><symbol viewBox="0 0 29 32" id="icon-olcontroldragpan"><title>olcontroldragpan</title> <path fill="#6c6c6c" d="M15.714 2.286q-0.821 0-1.411 0.589t-0.589 1.411v11.714h-0.571v-9.429q0-0.821-0.589-1.411t-1.411-0.589-1.411 0.589-0.589 1.411v14l-2.75-3.661q-0.679-0.911-1.821-0.911-0.946 0-1.616 0.67t-0.67 1.616q0 0.768 0.464 1.375l6.857 9.143q0.679 0.911 1.821 0.911h12.286q0.607 0 1.089-0.393t0.607-1l1.357-7.232q0.089-0.571 0.089-1.054v-8.893q0-0.821-0.589-1.411t-1.411-0.589-1.411 0.589-0.589 1.411v4.857h-0.571v-9.429q0-0.821-0.589-1.411t-1.411-0.589-1.411 0.589-0.589 1.411v9.429h-0.571v-11.714q0-0.821-0.589-1.411t-1.411-0.589zM15.714 0q1.214 0 2.241 0.634t1.58 1.723q0.339-0.071 0.75-0.071 1.768 0 3.027 1.259t1.259 3.027v0.304q1.875-0.107 3.223 1.143t1.348 3.125v8.893q0 0.714-0.143 1.482l-1.357 7.214q-0.25 1.411-1.366 2.339t-2.563 0.929h-12.286q-1.071 0-2.045-0.491t-1.616-1.33l-6.857-9.143q-0.911-1.214-0.911-2.75 0-1.893 1.339-3.232t3.232-1.339q1.393 0 2.286 0.607v-7.75q0-1.768 1.259-3.027t3.027-1.259q0.411 0 0.75 0.071 0.554-1.089 1.58-1.723t2.241-0.634z"/> </symbol><symbol viewBox="0 0 10 28" id="icon-olcontrolidentify"><title>olcontrolidentify</title> <path fill="#444444" d="M10 21v2q0 0.406-0.297 0.703t-0.703 0.297h-8q-0.406 0-0.703-0.297t-0.297-0.703v-2q0-0.406 0.297-0.703t0.703-0.297h1v-6h-1q-0.406 0-0.703-0.297t-0.297-0.703v-2q0-0.406 0.297-0.703t0.703-0.297h6q0.406 0 0.703 0.297t0.297 0.703v9h1q0.406 0 0.703 0.297t0.297 0.703zM8 3v3q0 0.406-0.297 0.703t-0.703 0.297h-4q-0.406 0-0.703-0.297t-0.297-0.703v-3q0-0.406 0.297-0.703t0.703-0.297h4q0.406 0 0.703 0.297t0.297 0.703z"/> </symbol><symbol viewBox="0 0 32 32" id="icon-olcontrolmeasure"><title>olcontrolmeasure</title> <path fill="#6c6c6c" d="M0 22.989v-12.978h1.989v5.971h1.97v-5.971h2.073v1.99h1.948v-1.99h2.012v3.98h1.99v-3.98h2.031v1.948h1.949v-1.948h2.073v3.98h1.948v-3.98h2.032v5.971h1.906v-5.971h2.095v1.948h1.97v-1.948h2.053v3.98h1.886v-3.98h2.095v1.948h1.927v-1.948h2.053v3.98h1.97v-3.98h2.032v12.979h-42.002z"/> </symbol><symbol viewBox="0 0 32 32" id="icon-olcontrolmeasurearea"><title>olcontrolmeasurearea</title> <path fill="#6c6c6c" d="M23.023 29.006v-2.029h-1.013v2.029h-1.014v-2.029h-1.016v2.029h-0.951v-3.043h-1.014v3.043h-1.014v-2.029h-1.014v2.029h-0.951v-2.029h-1.014v2.029h-1.015v-3.043h-1.014v3.043h-1.014v-2.029h-0.949v2.029h-1.014v-2.029h-1.015v2.029h-1.013v-3.043h-0.951v3.043h-3.042v-25.011l25.011 25.011h-4.983zM6.988 13.584v11.365h11.364l-11.364-11.365z"/> </symbol><symbol viewBox="0 0 32 32" id="icon-olcontrolnavigationhistorynext"><title>olcontrolnavigationhistorynext</title> <path fill="#6c6c6c" d="M31 16l-15-15v9h-16v12h16v9z"/> </symbol><symbol viewBox="0 0 32 32" id="icon-olcontrolnavigationhistoryprevious"><title>olcontrolnavigationhistoryprevious</title> <path fill="#6c6c6c" d="M1 16l15 15v-9h16v-12h-16v-9z"/> </symbol><symbol viewBox="0 0 18 18" id="icon-olcontrolpaneast"><title>olcontrolpaneast</title><path d="M18,9l-9,9l0,-18l9,9Z" style="fill:#6c6c6c;"/></symbol><symbol viewBox="0 0 18 18" id="icon-olcontrolpannorth"><title>olcontrolpannorth</title><path d="M9,0l9,9l-18,0l9,-9Z" style="fill:#6c6c6c;"/></symbol><symbol viewBox="0 0 18 18" id="icon-olcontrolpansouth"><title>olcontrolpansouth</title><path d="M9.018,18l-9,-9l18,0l-9,9Z" style="fill:#6c6c6c;"/></symbol><symbol viewBox="0 0 18 18" id="icon-olcontrolpanwest"><title>olcontrolpanwest</title><path d="M0,9l9,-9l0,18l-9,-9Z" style="fill:#6c6c6c;"/></symbol><symbol viewBox="0 0 30 32" id="icon-olcontrolzoombox"><title>olcontrolzoombox</title> <path fill="#6c6c6c" d="M18.286 14.286v1.143q0 0.232-0.17 0.402t-0.402 0.17h-4v4q0 0.232-0.17 0.402t-0.402 0.17h-1.143q-0.232 0-0.402-0.17t-0.17-0.402v-4h-4q-0.232 0-0.402-0.17t-0.17-0.402v-1.143q0-0.232 0.17-0.402t0.402-0.17h4v-4q0-0.232 0.17-0.402t0.402-0.17h1.143q0.232 0 0.402 0.17t0.17 0.402v4h4q0.232 0 0.402 0.17t0.17 0.402zM20.571 14.857q0-3.304-2.348-5.652t-5.652-2.348-5.652 2.348-2.348 5.652 2.348 5.652 5.652 2.348 5.652-2.348 2.348-5.652zM29.714 29.714q0 0.946-0.67 1.616t-1.616 0.67q-0.964 0-1.607-0.679l-6.125-6.107q-3.196 2.214-7.125 2.214-2.554 0-4.884-0.991t-4.018-2.679-2.679-4.018-0.991-4.884 0.991-4.884 2.679-4.018 4.018-2.679 4.884-0.991 4.884 0.991 4.018 2.679 2.679 4.018 0.991 4.884q0 3.929-2.214 7.125l6.125 6.125q0.661 0.661 0.661 1.607z"/> </symbol><symbol viewBox="0 0 30 32" id="icon-olcontrolzoomout"><title>olcontrolzoomout</title> <path fill="#6c6c6c" d="M18.286 14.286v1.143q0 0.232-0.17 0.402t-0.402 0.17h-10.286q-0.232 0-0.402-0.17t-0.17-0.402v-1.143q0-0.232 0.17-0.402t0.402-0.17h10.286q0.232 0 0.402 0.17t0.17 0.402zM20.571 14.857q0-3.304-2.348-5.652t-5.652-2.348-5.652 2.348-2.348 5.652 2.348 5.652 5.652 2.348 5.652-2.348 2.348-5.652zM29.714 29.714q0 0.946-0.67 1.616t-1.616 0.67q-0.964 0-1.607-0.679l-6.125-6.107q-3.196 2.214-7.125 2.214-2.554 0-4.884-0.991t-4.018-2.679-2.679-4.018-0.991-4.884 0.991-4.884 2.679-4.018 4.018-2.679 4.884-0.991 4.884 0.991 4.018 2.679 2.679 4.018 0.991 4.884q0 3.929-2.214 7.125l6.125 6.125q0.661 0.661 0.661 1.607z"/> </symbol><symbol viewBox="0 0 32 32" id="icon-olcontrolzoomtomaxextent"><title>olcontrolzoomtomaxextent</title> <path fill="#6c6c6c" d="M32 16q0 0.464-0.339 0.804l-4.571 4.571q-0.339 0.339-0.804 0.339t-0.804-0.339-0.339-0.804v-2.286h-6.857v6.857h2.286q0.464 0 0.804 0.339t0.339 0.804-0.339 0.804l-4.571 4.571q-0.339 0.339-0.804 0.339t-0.804-0.339l-4.571-4.571q-0.339-0.339-0.339-0.804t0.339-0.804 0.804-0.339h2.286v-6.857h-6.857v2.286q0 0.464-0.339 0.804t-0.804 0.339-0.804-0.339l-4.571-4.571q-0.339-0.339-0.339-0.804t0.339-0.804l4.571-4.571q0.339-0.339 0.804-0.339t0.804 0.339 0.339 0.804v2.286h6.857v-6.857h-2.286q-0.464 0-0.804-0.339t-0.339-0.804 0.339-0.804l4.571-4.571q0.339-0.339 0.804-0.339t0.804 0.339l4.571 4.571q0.339 0.339 0.339 0.804t-0.339 0.804-0.804 0.339h-2.286v6.857h6.857v-2.286q0-0.464 0.339-0.804t0.804-0.339 0.804 0.339l4.571 4.571q0.339 0.339 0.339 0.804z"/> </symbol><symbol viewBox="0 0 24 28" id="icon-relateddocuments"><title>relateddocuments</title> <path fill="#444444" d="M22.937 5.938q0.438 0.438 0.75 1.188t0.313 1.375v18q0 0.625-0.438 1.062t-1.062 0.438h-21q-0.625 0-1.062-0.438t-0.438-1.062v-25q0-0.625 0.438-1.062t1.062-0.438h14q0.625 0 1.375 0.313t1.188 0.75zM16 2.125v5.875h5.875q-0.156-0.453-0.344-0.641l-4.891-4.891q-0.187-0.187-0.641-0.344zM22 26v-16h-6.5q-0.625 0-1.062-0.438t-0.438-1.062v-6.5h-12v24h20zM6 12.5q0-0.219 0.141-0.359t0.359-0.141h11q0.219 0 0.359 0.141t0.141 0.359v1q0 0.219-0.141 0.359t-0.359 0.141h-11q-0.219 0-0.359-0.141t-0.141-0.359v-1zM17.5 16q0.219 0 0.359 0.141t0.141 0.359v1q0 0.219-0.141 0.359t-0.359 0.141h-11q-0.219 0-0.359-0.141t-0.141-0.359v-1q0-0.219 0.141-0.359t0.359-0.141h11zM17.5 20q0.219 0 0.359 0.141t0.141 0.359v1q0 0.219-0.141 0.359t-0.359 0.141h-11q-0.219 0-0.359-0.141t-0.141-0.359v-1q0-0.219 0.141-0.359t0.359-0.141h11z"/> </symbol><symbol viewBox="0 0 26 28" id="icon-search"><title>search</title> <path fill="#444444" d="M18 13q0-2.891-2.055-4.945t-4.945-2.055-4.945 2.055-2.055 4.945 2.055 4.945 4.945 2.055 4.945-2.055 2.055-4.945zM26 26q0 0.812-0.594 1.406t-1.406 0.594q-0.844 0-1.406-0.594l-5.359-5.344q-2.797 1.937-6.234 1.937-2.234 0-4.273-0.867t-3.516-2.344-2.344-3.516-0.867-4.273 0.867-4.273 2.344-3.516 3.516-2.344 4.273-0.867 4.273 0.867 3.516 2.344 2.344 3.516 0.867 4.273q0 3.437-1.937 6.234l5.359 5.359q0.578 0.578 0.578 1.406z"/> </symbol><symbol viewBox="0 0 22 28" id="icon-selectionmodule"><title>selectionmodule</title> <path fill="#444444" d="M22 11.5v3q0 0.625-0.438 1.062t-1.062 0.438h-6.5v6.5q0 0.625-0.438 1.062t-1.062 0.438h-3q-0.625 0-1.062-0.438t-0.438-1.062v-6.5h-6.5q-0.625 0-1.062-0.438t-0.438-1.062v-3q0-0.625 0.438-1.062t1.062-0.438h6.5v-6.5q0-0.625 0.438-1.062t1.062-0.438h3q0.625 0 1.062 0.438t0.438 1.062v6.5h6.5q0.625 0 1.062 0.438t0.438 1.062z"/> </symbol><symbol viewBox="0 0 24 28" id="icon-snapping"><title>snapping</title> <path fill="#444444" d="M24 13v2q0 3.141-1.539 5.656t-4.281 3.93-6.18 1.414-6.18-1.414-4.281-3.93-1.539-5.656v-2q0-0.406 0.297-0.703t0.703-0.297h6q0.406 0 0.703 0.297t0.297 0.703v2q0 0.812 0.367 1.406t0.836 0.891 1.109 0.469 1 0.203 0.688 0.031 0.688-0.031 1-0.203 1.109-0.469 0.836-0.891 0.367-1.406v-2q0-0.406 0.297-0.703t0.703-0.297h6q0.406 0 0.703 0.297t0.297 0.703zM8 3v6q0 0.406-0.297 0.703t-0.703 0.297h-6q-0.406 0-0.703-0.297t-0.297-0.703v-6q0-0.406 0.297-0.703t0.703-0.297h6q0.406 0 0.703 0.297t0.297 0.703zM24 3v6q0 0.406-0.297 0.703t-0.703 0.297h-6q-0.406 0-0.703-0.297t-0.297-0.703v-6q0-0.406 0.297-0.703t0.703-0.297h6q0.406 0 0.703 0.297t0.297 0.703z"/> </symbol><symbol viewBox="0 0 22 28" id="icon-spatialfilter"><title>spatialfilter</title> <path fill="#444444" d="M21.922 4.609q0.266 0.641-0.219 1.094l-7.703 7.703v11.594q0 0.656-0.609 0.922-0.203 0.078-0.391 0.078-0.422 0-0.703-0.297l-4-4q-0.297-0.297-0.297-0.703v-7.594l-7.703-7.703q-0.484-0.453-0.219-1.094 0.266-0.609 0.922-0.609h20q0.656 0 0.922 0.609z"/> </symbol><symbol viewBox="0 0 24 28" id="icon-split"><title>split</title> <path fill="#444444" d="M11.797 16.5q0 0.203-0.156 0.359l-5.187 5.187 2.25 2.25q0.297 0.297 0.297 0.703t-0.297 0.703-0.703 0.297h-7q-0.406 0-0.703-0.297t-0.297-0.703v-7q0-0.406 0.297-0.703t0.703-0.297 0.703 0.297l2.25 2.25 5.187-5.187q0.156-0.156 0.359-0.156t0.359 0.156l1.781 1.781q0.156 0.156 0.156 0.359zM24 3v7q0 0.406-0.297 0.703t-0.703 0.297-0.703-0.297l-2.25-2.25-5.187 5.187q-0.156 0.156-0.359 0.156t-0.359-0.156l-1.781-1.781q-0.156-0.156-0.156-0.359t0.156-0.359l5.187-5.187-2.25-2.25q-0.297-0.297-0.297-0.703t0.297-0.703 0.703-0.297h7q0.406 0 0.703 0.297t0.297 0.703z"/> </symbol><symbol viewBox="0 0 25 32" id="icon-streetview"><title>streetview</title> <path fill="#6c6c6c" d="M25.143 27.429q0 1.125-1.098 2.027t-2.929 1.446-4.018 0.821-4.527 0.277-4.527-0.277-4.018-0.821-2.929-1.446-1.098-2.027q0-0.875 0.589-1.58t1.625-1.188 2.107-0.795 2.339-0.527q0.464-0.089 0.857 0.188t0.464 0.741q0.089 0.464-0.188 0.857t-0.741 0.464q-1.036 0.179-1.893 0.42t-1.366 0.455-0.866 0.42-0.491 0.348-0.152 0.214q0.054 0.196 0.482 0.473t1.304 0.589 2.036 0.58 2.866 0.446 3.598 0.179 3.598-0.179 2.866-0.446 2.036-0.589 1.304-0.598 0.482-0.491q-0.018-0.071-0.152-0.196t-0.491-0.339-0.866-0.42-1.366-0.446-1.893-0.42q-0.464-0.071-0.741-0.464t-0.188-0.857q0.071-0.464 0.464-0.741t0.857-0.188q1.268 0.214 2.339 0.527t2.107 0.795 1.625 1.188 0.589 1.58zM18.286 11.429v6.857q0 0.464-0.339 0.804t-0.804 0.339h-1.143v6.857q0 0.464-0.339 0.804t-0.804 0.339h-4.571q-0.464 0-0.804-0.339t-0.339-0.804v-6.857h-1.143q-0.464 0-0.804-0.339t-0.339-0.804v-6.857q0-0.946 0.67-1.616t1.616-0.67h6.857q0.946 0 1.616 0.67t0.67 1.616zM16.571 4.571q0 1.661-1.17 2.83t-2.83 1.17-2.83-1.17-1.17-2.83 1.17-2.83 2.83-1.17 2.83 1.17 1.17 2.83z"/> </symbol><symbol viewBox="0 0 28 28" id="icon-toc"><title>toc</title> <path fill="#444444" d="M4 20.5v3q0 0.203-0.148 0.352t-0.352 0.148h-3q-0.203 0-0.352-0.148t-0.148-0.352v-3q0-0.203 0.148-0.352t0.352-0.148h3q0.203 0 0.352 0.148t0.148 0.352zM4 14.5v3q0 0.203-0.148 0.352t-0.352 0.148h-3q-0.203 0-0.352-0.148t-0.148-0.352v-3q0-0.203 0.148-0.352t0.352-0.148h3q0.203 0 0.352 0.148t0.148 0.352zM4 8.5v3q0 0.203-0.148 0.352t-0.352 0.148h-3q-0.203 0-0.352-0.148t-0.148-0.352v-3q0-0.203 0.148-0.352t0.352-0.148h3q0.203 0 0.352 0.148t0.148 0.352zM28 20.5v3q0 0.203-0.148 0.352t-0.352 0.148h-21q-0.203 0-0.352-0.148t-0.148-0.352v-3q0-0.203 0.148-0.352t0.352-0.148h21q0.203 0 0.352 0.148t0.148 0.352zM4 2.5v3q0 0.203-0.148 0.352t-0.352 0.148h-3q-0.203 0-0.352-0.148t-0.148-0.352v-3q0-0.203 0.148-0.352t0.352-0.148h3q0.203 0 0.352 0.148t0.148 0.352zM28 14.5v3q0 0.203-0.148 0.352t-0.352 0.148h-21q-0.203 0-0.352-0.148t-0.148-0.352v-3q0-0.203 0.148-0.352t0.352-0.148h21q0.203 0 0.352 0.148t0.148 0.352zM28 8.5v3q0 0.203-0.148 0.352t-0.352 0.148h-21q-0.203 0-0.352-0.148t-0.148-0.352v-3q0-0.203 0.148-0.352t0.352-0.148h21q0.203 0 0.352 0.148t0.148 0.352zM28 2.5v3q0 0.203-0.148 0.352t-0.352 0.148h-21q-0.203 0-0.352-0.148t-0.148-0.352v-3q0-0.203 0.148-0.352t0.352-0.148h21q0.203 0 0.352 0.148t0.148 0.352z"/> </symbol><symbol viewBox="0 0 26 28" id="icon-toolsdownloadmap"><title>toolsdownloadmap</title> <path fill="#444444" d="M20 21q0-0.406-0.297-0.703t-0.703-0.297-0.703 0.297-0.297 0.703 0.297 0.703 0.703 0.297 0.703-0.297 0.297-0.703zM24 21q0-0.406-0.297-0.703t-0.703-0.297-0.703 0.297-0.297 0.703 0.297 0.703 0.703 0.297 0.703-0.297 0.297-0.703zM26 17.5v5q0 0.625-0.438 1.062t-1.062 0.438h-23q-0.625 0-1.062-0.438t-0.438-1.062v-5q0-0.625 0.438-1.062t1.062-0.438h7.266l2.109 2.125q0.906 0.875 2.125 0.875t2.125-0.875l2.125-2.125h7.25q0.625 0 1.062 0.438t0.438 1.062zM20.922 8.609q0.266 0.641-0.219 1.094l-7 7q-0.281 0.297-0.703 0.297t-0.703-0.297l-7-7q-0.484-0.453-0.219-1.094 0.266-0.609 0.922-0.609h4v-7q0-0.406 0.297-0.703t0.703-0.297h4q0.406 0 0.703 0.297t0.297 0.703v7h4q0.656 0 0.922 0.609z"/> </symbol><symbol viewBox="0 0 24 28" id="icon-transparencyslider"><title>transparencyslider</title> <path fill="#444444" d="M5.5 22v2h-5.5v-2h5.5zM11 20q0.406 0 0.703 0.297t0.297 0.703v4q0 0.406-0.297 0.703t-0.703 0.297h-4q-0.406 0-0.703-0.297t-0.297-0.703v-4q0-0.406 0.297-0.703t0.703-0.297h4zM13.5 14v2h-13.5v-2h13.5zM3.5 6v2h-3.5v-2h3.5zM24 22v2h-11.5v-2h11.5zM9 4q0.406 0 0.703 0.297t0.297 0.703v4q0 0.406-0.297 0.703t-0.703 0.297h-4q-0.406 0-0.703-0.297t-0.297-0.703v-4q0-0.406 0.297-0.703t0.703-0.297h4zM19 12q0.406 0 0.703 0.297t0.297 0.703v4q0 0.406-0.297 0.703t-0.703 0.297h-4q-0.406 0-0.703-0.297t-0.297-0.703v-4q0-0.406 0.297-0.703t0.703-0.297h4zM24 14v2h-3.5v-2h3.5zM24 6v2h-13.5v-2h13.5z"/> </symbol><symbol viewBox="0 0 18 18" id="icon-zoomin"><title>zoomin</title><rect x="0.75" y="0.75" width="16.5" height="16.5" style="fill:#ebebeb;"/><path d="M8.079,14.251l0,-4.357l-4.325,0l0,-1.821l4.325,0l0,-4.324l1.842,0l0,4.324l4.325,0l0,1.821l-4.325,0l0,4.357l-1.842,0Z" style="fill:#4d4d4d;fill-rule:nonzero;"/></symbol><symbol viewBox="0 0 18 18" id="icon-zoomout"><title>zoomout</title><rect x="0.75" y="0.75" width="16.5" height="16.5" style="fill:#ebebeb;"/><rect x="3.754" y="8.073" width="10.491" height="1.821" style="fill:#4d4d4d;fill-rule:nonzero;"/></symbol></svg>